<?xml version="1.0" standalone="no"?>
<!DOCTYPE svg PUBLIC "-//W3C//DTD SVG 1.1//EN" "http://www.w3.org/Graphics/SVG/1.1/DTD/svg11.dtd" >
<svg>
<metadata>
Created by FontForge 20090914 at Wed Mar  7 08:01:19 2018
 By www-data
Copyright (c) Mark Simonson, 2010. All rights reserved.
</metadata>
<defs>
<font id="ProximaNovaSoft-Semibold" horiz-adv-x="568" >
  <font-face 
    font-family="Proxima Nova Soft Sb"
    font-weight="600"
    font-stretch="normal"
    units-per-em="1000"
    panose-1="2 0 5 6 3 0 0 2 0 4"
    ascent="775"
    descent="-225"
    x-height="483"
    cap-height="673"
    bbox="-153 -275.002 1079 908"
    underline-thickness="20"
    underline-position="-113"
    unicode-range="U+000D-U+FB02"
  />
<missing-glyph horiz-adv-x="492" 
d="M422 -55c0 -9.33301 -3.5 -17.5 -10.5 -24.5s-15.167 -10.5 -24.5 -10.5h-281c-10 0 -18.333 3.5 -25 10.5s-10 15.167 -10 24.5v772c0 9.33301 3.33301 17.5 10 24.5s15 10.5 25 10.5h281c9.33301 0 17.5 -3.5 24.5 -10.5s10.5 -15.167 10.5 -24.5v-772zM390 -60v782
h-288v-782h288z" />
    <glyph glyph-name="fi" unicode="fi" horiz-adv-x="553" 
d="M431 673c18 0 33.5 -6.33301 46.5 -19s19.5 -28 19.5 -46c0 -18.667 -6.5 -34.334 -19.5 -47.001s-28.5 -19 -46.5 -19s-33.5 6.33301 -46.5 19s-19.5 28.334 -19.5 47.001c0 18 6.5 33.333 19.5 46s28.5 19 46.5 19zM485 47c0 -14.667 -5.33203 -27.167 -15.999 -37.5
s-23.334 -15.5 -38.001 -15.5s-27.167 5.16699 -37.5 15.5s-15.5 22.833 -15.5 37.5v390c0 14 5.16699 26.167 15.5 36.5s23.5 15.5 39.5 15.5c14 0 26.167 -5.16699 36.5 -15.5s15.5 -22.5 15.5 -36.5v-390zM324.001 633c0 -12 -3.16504 -22.165 -9.49805 -30.498
s-15.5 -12.5 -27.5 -12.5c-2.66699 0 -5.66699 0.333008 -9 1s-7 1 -11 1c-20 0 -36 -6.66699 -48 -20s-18 -33 -18 -59v-30h58c12.667 0 23.5 -4.5 32.5 -13.5s13.5 -20.167 13.5 -33.5c0 -12.667 -4.5 -23.667 -13.5 -33s-19.833 -14 -32.5 -14h-58v-342
c0 -14.667 -5.33301 -27.167 -16 -37.5s-23.334 -15.5 -38.001 -15.5s-27.334 5 -38.001 15s-16 22.667 -16 38v342h-40c-12.667 0 -23.5 4.66699 -32.5 14s-13.5 20.666 -13.5 33.999c0 12.667 4.33301 23.5 13 32.5s19.667 13.5 33 13.5h40v30
c0 25.333 3.66699 48.333 11 69s18 38 32 52s30.333 24.667 49 32s39.334 11 62.001 11c11.333 0 21.666 -0.666992 30.999 -2s17.5 -3.83301 24.5 -7.5s12.333 -8.33398 16 -14.001s5.5 -12.5 5.5 -20.5z" />
    <glyph glyph-name="fl" unicode="fl" horiz-adv-x="553" 
d="M485 47c0 -14.667 -5.33203 -27.167 -15.999 -37.5s-23.334 -15.5 -38.001 -15.5s-27.167 5.16699 -37.5 15.5s-15.5 22.833 -15.5 37.5v574c0 14 5.16699 26.167 15.5 36.5s23.5 15.5 39.5 15.5c14 0 26.167 -5.16699 36.5 -15.5s15.5 -22.5 15.5 -36.5v-574z
M324.001 633c0 -12 -3.16504 -22.165 -9.49805 -30.498s-15.5 -12.5 -27.5 -12.5c-2.66699 0 -5.66699 0.333008 -9 1s-7 1 -11 1c-20 0 -36 -6.66699 -48 -20s-18 -33 -18 -59v-30h58c12.667 0 23.5 -4.5 32.5 -13.5s13.5 -20.167 13.5 -33.5
c0 -12.667 -4.5 -23.667 -13.5 -33s-19.833 -14 -32.5 -14h-58v-342c0 -14.667 -5.33301 -27.167 -16 -37.5s-23.334 -15.5 -38.001 -15.5s-27.334 5 -38.001 15s-16 22.667 -16 38v342h-40c-12.667 0 -23.5 4.66699 -32.5 14s-13.5 20.666 -13.5 33.999
c0 12.667 4.33301 23.5 13 32.5s19.667 13.5 33 13.5h40v30c0 25.333 3.66699 48.333 11 69s18 38 32 52s30.333 24.667 49 32s39.334 11 62.001 11c11.333 0 21.666 -0.666992 30.999 -2s17.5 -3.83301 24.5 -7.5s12.333 -8.33398 16 -14.001s5.5 -12.5 5.5 -20.5z" />
    <glyph glyph-name=".notdef" horiz-adv-x="492" 
d="M422 -55c0 -9.33301 -3.5 -17.5 -10.5 -24.5s-15.167 -10.5 -24.5 -10.5h-281c-10 0 -18.333 3.5 -25 10.5s-10 15.167 -10 24.5v772c0 9.33301 3.33301 17.5 10 24.5s15 10.5 25 10.5h281c9.33301 0 17.5 -3.5 24.5 -10.5s10.5 -15.167 10.5 -24.5v-772zM390 -60v782
h-288v-782h288z" />
    <glyph glyph-name="NULL" horiz-adv-x="0" 
 />
    <glyph glyph-name="NULL" horiz-adv-x="0" 
 />
    <glyph glyph-name="nonmarkingreturn" unicode="&#xd;" horiz-adv-x="0" 
 />
    <glyph glyph-name="space" unicode=" " horiz-adv-x="257" 
 />
    <glyph glyph-name="exclam" unicode="!" horiz-adv-x="246" 
d="M186 610c0 -2 -0.331055 -10.833 -0.998047 -26.5l-2.5 -58.5c-1 -23.333 -2 -48.833 -3 -76.5s-2.16699 -54.667 -3.5 -81s-2.33301 -50.5 -3 -72.5s-1.33398 -38.667 -2.00098 -50c-0.666992 -12.667 -5.5 -23.5 -14.5 -32.5s-20.5 -13.5 -34.5 -13.5
c-12.667 0 -23.5 4.5 -32.5 13.5s-13.833 19.833 -14.5 32.5c-0.666992 11.333 -1.5 28 -2.5 50s-2 46.167 -3 72.5s-2.16699 53.333 -3.5 81s-2.33301 53.167 -3 76.5s-1.33398 42.833 -2.00098 58.5s-1 24.5 -1 26.5c-0.666992 18 5.33301 33 18 45s28 18 46 18
c17.333 0 32 -6 44 -18s18 -27 18 -45zM194.002 60c0 -9.33301 -1.83203 -18.166 -5.49902 -26.499s-8.83398 -15.833 -15.501 -22.5s-14.334 -11.834 -23.001 -15.501s-17.667 -5.5 -27 -5.5c-10 0 -19.167 1.83301 -27.5 5.5s-15.666 8.83398 -21.999 15.501
s-11.333 14.167 -15 22.5s-5.5 17.166 -5.5 26.499c0 20 6.83301 36.833 20.5 50.5s30.167 20.5 49.5 20.5s36 -6.83301 50 -20.5s21 -30.5 21 -50.5z" />
    <glyph glyph-name="quotedbl" unicode="&#x22;" horiz-adv-x="382" 
d="M334 617c0 -3.33301 -1.16992 -13.666 -3.50293 -30.999s-5.16602 -37 -8.49902 -59l-10.5 -66.5c-3.66699 -22.333 -6.5 -40.5 -8.5 -54.5c-1.33301 -6.66699 -4.66602 -12.167 -9.99902 -16.5s-12 -6.5 -20 -6.5c-6 0 -11.667 2.16699 -17 6.5
s-8.33301 9.83301 -9 16.5c-2.66699 14 -5.66699 32.167 -9 54.5s-6.83301 44.5 -10.5 66.5s-6.66699 41.667 -9 59s-3.5 27.666 -3.5 30.999c0 16.667 5.83301 30.834 17.5 42.501s25.834 17.5 42.501 17.5s30.667 -5.83301 42 -17.5s17 -25.834 17 -42.501zM167.997 617
c0 -3.33301 -1.16895 -13.5 -3.50195 -30.5s-5.33301 -36.5 -9 -58.5s-7.16699 -44.333 -10.5 -67s-6.33301 -41 -9 -55c-1.33301 -6.66699 -4.66602 -12.167 -9.99902 -16.5s-11.666 -6.5 -18.999 -6.5c-6.66699 0 -12.667 2.16699 -18 6.5s-8.33301 9.83301 -9 16.5
c-2.66699 14 -5.66699 32.333 -9 55s-6.83301 45 -10.5 67s-6.66699 41.5 -9 58.5s-3.5 27.167 -3.5 30.5c0 16.667 5.66699 30.834 17 42.501s25.666 17.5 42.999 17.5c16.667 0 30.834 -5.83301 42.501 -17.5s17.5 -25.834 17.5 -42.501z" />
    <glyph glyph-name="numbersign" unicode="#" horiz-adv-x="607" 
d="M579 456c0 -9.33301 -3.16602 -17.166 -9.49902 -23.499s-14.166 -9.5 -23.499 -9.5h-81l-60 -179h62c9.33301 0 17.333 -3.5 24 -10.5s10 -15.5 10 -25.5c0 -9.33301 -3.33301 -17.333 -10 -24s-14.667 -10 -24 -10h-85l-52 -154
c-2.66699 -8 -7.33398 -14.333 -14.001 -19s-14.334 -7 -23.001 -7c-11.333 0 -20.666 3.66699 -27.999 11s-11 16 -11 26c0 1.33301 0.166992 3.16602 0.5 5.49902s0.833008 4.5 1.5 6.5l45 131h-101l-52 -155c-2.66699 -8 -7.33398 -14.333 -14.001 -19
s-14.334 -7 -23.001 -7c-12 -0.666992 -21.333 3 -28 11s-10 17 -10 27c0 4 0.666992 8 2 12l44 131h-55c-10 0 -18.333 3.5 -25 10.5s-10 15.5 -10 25.5c0 9.33301 3.33301 17.333 10 24s15 10 25 10h79l59 179h-59c-9.33301 0 -17.166 3.33301 -23.499 10s-9.5 15 -9.5 25
c0 9.33301 3.16699 17.333 9.5 24s14.166 10 23.499 10h83l51 155c2.66699 8 7.33398 14.167 14.001 18.5s14 6.5 22 6.5c12 0 21.5 -3.66699 28.5 -11s10.5 -16 10.5 -26c0 -3.33301 -0.333008 -7 -1 -11l-44 -132h101l51 155c2.66699 8 7.33398 14.167 14.001 18.5
s14 6.5 22 6.5c12 0 21.5 -3.66699 28.5 -11s10.5 -16 10.5 -26c0 -3.33301 -0.333008 -7.33301 -1 -12l-45 -131h58c9.33301 0 17.166 -3.5 23.499 -10.5s9.5 -15.5 9.5 -25.5zM383.001 423h-100l-59 -179h100z" />
    <glyph glyph-name="dollar" unicode="$" horiz-adv-x="606" 
d="M566 195c0 -26 -4.33203 -50.665 -12.999 -73.998s-21.834 -44 -39.501 -62s-40 -33.167 -67 -45.5s-59.167 -20.166 -96.5 -23.499v-57c0 -10.667 -3.83301 -19.834 -11.5 -27.501s-17.167 -11.5 -28.5 -11.5c-12 0 -22 3.83301 -30 11.5s-12 16.834 -12 27.501v57
c-20.667 1.33301 -41.334 4.33301 -62.001 9s-40.334 10.5 -59.001 17.5s-35.5 15.5 -50.5 25.5s-27.167 21 -36.5 33c-4 4.66699 -6.83301 9.5 -8.5 14.5s-2.5 10.5 -2.5 16.5c0 15.333 5.33301 28.666 16 39.999s23.667 17 39 17c12 0 23 -3.66699 33 -11
c17.333 -14 37 -26 59 -36s46 -16.667 72 -20v191c-26 6.66699 -51.5 14.334 -76.5 23.001s-47.667 20.167 -68 34.5s-36.666 32.5 -48.999 54.5s-18.5 49.333 -18.5 82c0 25.333 4.83301 49.166 14.5 71.499s23.834 42.166 42.501 59.499s41 31.5 67 42.5
s55.333 17.833 88 20.5v60c0 10.667 4 19.834 12 27.501s18 11.5 30 11.5c11.333 0 20.833 -3.83301 28.5 -11.5s11.5 -16.834 11.5 -27.501v-61c15.333 -2 31.333 -4.83301 48 -8.5s32.834 -8.33398 48.501 -14.001s30.167 -12.667 43.5 -21s24.333 -17.833 33 -28.5
c7.33301 -8.66699 11 -18.667 11 -30c0 -8 -1.5 -15.5 -4.5 -22.5s-7.33301 -12.833 -13 -17.5s-12 -8.5 -19 -11.5s-14.167 -4.5 -21.5 -4.5s-14.333 1.66699 -21 5c-16.667 9.33301 -33.834 18.333 -51.501 27s-35.5 14.667 -53.5 18v-170
c26 -7.33301 51.667 -15.5 77 -24.5s48.333 -21 69 -36s37.5 -33.833 50.5 -56.5s19.5 -50.667 19.5 -84zM268.001 417.002v154.001c-28 -3.33301 -50 -12 -66 -26s-24 -32.333 -24 -55c0 -10 2.16699 -18.667 6.5 -26s10.5 -13.833 18.5 -19.5s17.5 -10.834 28.5 -15.501
s23.167 -8.66699 36.5 -12zM444.001 183.003c0 10.667 -2.50488 20.3291 -7.50488 28.9961s-11.667 16.334 -20 23.001s-18.166 12.334 -29.499 17.001s-23.666 9 -36.999 13v-169c16.667 2.66699 30.834 6.83398 42.501 12.501s21.334 12.334 29.001 20.001
s13.334 16.167 17.001 25.5s5.5 19 5.5 29z" />
    <glyph glyph-name="percent" unicode="%" horiz-adv-x="747" 
d="M360 510c0 -23.333 -4 -45 -12 -65s-19.167 -37.333 -33.5 -52s-31.833 -26.167 -52.5 -34.5s-43.667 -12.5 -69 -12.5c-24.667 0 -47.167 4.16699 -67.5 12.5s-37.666 19.833 -51.999 34.5s-25.5 32 -33.5 52s-12 41.667 -12 65s4 45.166 12 65.499s19.167 38 33.5 53
s31.666 26.833 51.999 35.5s42.833 13 67.5 13c25.333 0 48.333 -4.33301 69 -13s38.167 -20.5 52.5 -35.5s25.5 -32.667 33.5 -53s12 -42.166 12 -65.499zM201 6c-5.33301 -8 -13 -12 -23 -12c-8 0 -14.833 2.66699 -20.5 8s-8.5 12 -8.5 20c0 5.33301 1.33301 10.333 4 15
l398 624c6 8 14 12 24 12c8 0 14.833 -2.83301 20.5 -8.5s8.5 -12.5 8.5 -20.5c0 -5.33301 -1.33301 -10 -4 -14zM720 152c0 -23.333 -4 -45 -12 -65s-19.333 -37.333 -34 -52s-32.334 -26.167 -53.001 -34.5s-43.334 -12.5 -68.001 -12.5s-47.334 4.16699 -68.001 12.5
s-38.167 19.833 -52.5 34.5s-25.333 32 -33 52s-11.5 41.667 -11.5 65s3.83301 45.333 11.5 66s18.667 38.5 33 53.5s31.833 26.667 52.5 35s43.334 12.5 68.001 12.5s47.334 -4.16699 68.001 -12.5s38.334 -20 53.001 -35s26 -32.833 34 -53.5s12 -42.667 12 -66zM106 510
c0 -28.667 8.16699 -52.001 24.5 -70.001s37.166 -27 62.499 -27c12.667 0 24.5 2.5 35.5 7.5s20.333 11.667 28 20s13.667 18.333 18 30s6.5 24.834 6.5 39.501c0 30 -8.16699 54 -24.5 72s-37.5 27 -63.5 27c-25.333 0 -46.166 -9 -62.499 -27s-24.5 -42 -24.5 -72z
M466 151.999c0 -14 2.16406 -27 6.49707 -39s10.333 -22.167 18 -30.5s16.834 -15 27.501 -20s22.334 -7.5 35.001 -7.5s24.5 2.5 35.5 7.5s20.333 11.667 28 20s13.834 18.5 18.501 30.5s7 25 7 39c0 30 -8.33301 54 -25 72s-38 27 -64 27s-47 -9 -63 -27s-24 -42 -24 -72z
" />
    <glyph glyph-name="ampersand" unicode="&#x26;" horiz-adv-x="644" 
d="M499 131c6.66699 -7.33301 13.833 -14.5039 21.5 -21.5039s14.834 -14.167 21.501 -21.5s12.167 -14.666 16.5 -21.999s6.5 -14.666 6.5 -21.999c0 -12.667 -4.66699 -24.334 -14 -35.001s-21.333 -16 -36 -16c-7.33301 0 -15.166 2.5 -23.499 7.5
s-16.166 10.833 -23.499 17.5s-14.333 13.834 -21 21.501s-12.334 13.834 -17.001 18.501c-25.333 -21.333 -53.166 -38.333 -83.499 -51s-64.5 -19 -102.5 -19c-30 0 -58 4 -84 12s-48.833 19.833 -68.5 35.5s-35 35.5 -46 59.5s-16.5 51.667 -16.5 83
c0 26 3.83301 48.833 11.5 68.5s18.167 37.167 31.5 52.5s28.666 29 45.999 41s35.666 23 54.999 33c-14 24.667 -25.333 49.5 -34 74.5s-13 48.833 -13 71.5s4.66699 43.5 14 62.5s22 35.667 38 50s35.167 25.5 57.5 33.5s46.833 12 73.5 12c22.667 0 44 -3 64 -9
s37.5 -14.833 52.5 -26.5s26.833 -26.167 35.5 -43.5s13 -36.666 13 -57.999c0 -25.333 -4.66699 -47.333 -14 -66s-21.833 -35.167 -37.5 -49.5s-33.5 -27 -53.5 -38s-40.333 -21.5 -61 -31.5c12.667 -18 24.667 -34 36 -48l33 -39.5l31 -35.5l30 -34
c10.667 16 20.334 32.667 29.001 50s16.334 34 23.001 50c3.33301 8 8.83301 14.5 16.5 19.5s16.167 7.5 25.5 7.5c13.333 0 24.5 -4.66699 33.5 -14s13.5 -20 13.5 -32c0 -6.66699 -2 -14.667 -6 -24c-4.66699 -10 -9.83398 -20.5 -15.501 -31.5
s-11.834 -21.833 -18.501 -32.5l-20 -31.5c-6.66699 -10.333 -13.334 -19.833 -20.001 -28.5zM142.999 187.996c0 -18 3.16699 -34.168 9.5 -48.501s14.666 -26.333 24.999 -36s22.5 -17.167 36.5 -22.5s28.667 -8 44 -8c21.333 0 41.333 4.33301 60 13s36.334 20 53.001 34
l-52.5 57l-38.5 44.5l-32 40c-10 13 -20.667 27.833 -32 44.5c-21.333 -14.667 -38.833 -31.167 -52.5 -49.5s-20.5 -41.166 -20.5 -68.499zM312.999 597.995c-10.667 0 -20.833 -1.99805 -30.5 -5.99805s-18 -9.66699 -25 -17s-12.5 -16 -16.5 -26s-6 -20.667 -6 -32
c0 -15.333 3 -31.5 9 -48.5s14 -34.167 24 -51.5c15.333 7.33301 29.833 15.166 43.5 23.499s25.5 17 35.5 26s18 19.167 24 30.5s9 23.666 9 36.999c0 20.667 -6.33301 36.5 -19 47.5s-28.667 16.5 -48 16.5z" />
    <glyph glyph-name="quotesingle" unicode="'" horiz-adv-x="215" 
d="M168 617c0 -3.33301 -1.16895 -13.5 -3.50195 -30.5s-5.33301 -36.5 -9 -58.5s-7.16699 -44.333 -10.5 -67s-6.33301 -41 -9 -55c-1.33301 -6.66699 -4.66602 -12.167 -9.99902 -16.5s-11.666 -6.5 -18.999 -6.5c-6.66699 0 -12.667 2.16699 -18 6.5
s-8.33301 9.83301 -9 16.5c-2.66699 14 -5.66699 32.333 -9 55s-6.83301 45 -10.5 67s-6.66699 41.5 -9 58.5s-3.5 27.167 -3.5 30.5c0 16.667 5.66699 30.834 17 42.501s25.666 17.5 42.999 17.5c16.667 0 30.834 -5.83301 42.501 -17.5s17.5 -25.834 17.5 -42.501z" />
    <glyph glyph-name="parenleft" unicode="(" horiz-adv-x="278" 
d="M251 -139c0 -12.667 -4.33203 -23.998 -12.999 -33.998s-19.667 -15 -33 -15c-6.66699 0 -12.834 1.33301 -18.501 4s-10.5 7 -14.5 13c-20 28 -38 58.5 -54 91.5s-29.667 67.333 -41 103s-20 72 -26 109s-9 73.833 -9 110.5s3 73.5 9 110.5s14.667 73.333 26 109
s25 70 41 103s34 63.833 54 92.5c4 5.33301 8.83301 9.33301 14.5 12s11.834 4 18.501 4c14 0 25.167 -4.83301 33.5 -14.5s12.5 -20.167 12.5 -31.5c0 -8 -1.66699 -15 -5 -21c-14 -28 -26.333 -56 -37 -84s-19.834 -56.833 -27.501 -86.5s-13.5 -60.5 -17.5 -92.5
s-6 -65.667 -6 -101c0 -70.667 7.66699 -134.834 23 -192.501s37 -113.834 65 -168.501c3.33301 -7.33301 5 -14.333 5 -21z" />
    <glyph glyph-name="parenright" unicode=")" horiz-adv-x="278" 
d="M237 243c0 -36.667 -3.16406 -73.501 -9.49707 -110.501s-15 -73.333 -26 -109s-24.5 -70 -40.5 -103s-34 -63.5 -54 -91.5c-4.66699 -6 -9.83398 -10.333 -15.501 -13s-11.834 -4 -18.501 -4c-13.333 0 -24.166 5 -32.499 15s-12.5 21 -12.5 33
c0 7.33301 1.33301 14.666 4 21.999c28 54.667 49.667 110.834 65 168.501s23 121.834 23 192.501c0 35.333 -2 69 -6 101s-9.83301 62.833 -17.5 92.5s-16.834 58.5 -27.501 86.5s-23 56 -37 84c-3.33301 6 -5 12.667 -5 20c0 12 4.16699 22.833 12.5 32.5
s19.166 14.5 32.499 14.5c6.66699 0 13 -1.33301 19 -4s11 -6.66699 15 -12c20.667 -28.667 39 -59.5 55 -92.5s29.5 -67.333 40.5 -103s19.667 -72 26 -109s9.5 -73.833 9.5 -110.5z" />
    <glyph glyph-name="asterisk" unicode="*" horiz-adv-x="347" 
d="M175 683c6.66699 0 12.8301 -2.66699 18.4971 -8s8.16699 -11.666 7.5 -18.999l-5 -91l76 48c4.66699 2.66699 9.33398 4 14.001 4c6 0 12 -2.33301 18 -7s9 -11.334 9 -20.001c0 -11.333 -4.33301 -19 -13 -23l-81 -41l80 -42c9.33301 -4.66699 14 -12 14 -22
c0 -8 -2.66699 -14.667 -8 -20s-12 -8 -20 -8c-4.66699 0 -9 1.33301 -13 4l-76 49l5 -91c0.666992 -7.33301 -1.83301 -13.666 -7.5 -18.999s-12.5 -8 -20.5 -8s-14.5 2.66699 -19.5 8s-7.5 11.666 -7.5 18.999l4 91l-77 -49c-4 -3.33301 -8.33301 -5 -13 -5
c-6 0 -12 2.66699 -18 8s-9 12 -9 20c0 4.66699 1.16699 9.16699 3.5 13.5s5.83301 7.5 10.5 9.5l80 42l-80 41c-9.33301 4.66699 -14 12.334 -14 23.001c0 8 2.83301 14.667 8.5 20s11.834 8 18.501 8c4.66699 0 9.33398 -1.33301 14.001 -4l76 -49l-4 91
c0 7.33301 2.66699 13.666 8 18.999s12.333 8 21 8z" />
    <glyph glyph-name="plus" unicode="+" horiz-adv-x="502" 
d="M479 339c0 -10.667 -3.16699 -19.334 -9.5 -26.001s-14.166 -10 -23.499 -10h-157v-176c0 -10 -3.5 -18.667 -10.5 -26s-16.167 -11 -27.5 -11c-10.667 0 -19.5 3.66699 -26.5 11s-10.5 16 -10.5 26v176h-157c-10 0 -18.167 3.33301 -24.5 10s-9.5 15.334 -9.5 26.001
c0 9.33301 3.16699 17.166 9.5 23.499s14.5 9.5 24.5 9.5h157v169c0 10 3.5 18.5 10.5 25.5s16.5 10.5 28.5 10.5c10 0 18.5 -3.5 25.5 -10.5s10.5 -15.5 10.5 -25.5v-169h157c9.33301 0 17.166 -3.16699 23.499 -9.5s9.5 -14.166 9.5 -23.499z" />
    <glyph glyph-name="comma" unicode="," horiz-adv-x="246" 
d="M200 39c0 -30 -7.00488 -58.8311 -21.0049 -86.498s-32.667 -51.834 -56 -72.501c-6 -5.33301 -13 -8 -21 -8c-7.33301 0 -14.666 2.5 -21.999 7.5s-11 12.167 -11 21.5c0 8 3 15 9 21c12.667 10.667 23.834 23 33.501 37s15.5 27.667 17.5 41
c-1.33301 -0.666992 -3.66602 -1.33398 -6.99902 -2.00098s-6.66602 -1 -9.99902 -1c-17.333 0 -31.666 6 -42.999 18s-17 27.333 -17 46c0 19.333 6.66699 35.833 20 49.5s29.333 20.5 48 20.5c10.667 0 20.834 -2 30.501 -6s18.167 -10 25.5 -18
s13.166 -17.667 17.499 -29s6.5 -24.333 6.5 -39z" />
    <glyph glyph-name="hyphen" unicode="-" horiz-adv-x="300" 
d="M276 243c0 -13.333 -4.33301 -24.5 -13 -33.5s-19.334 -13.5 -32.001 -13.5h-162c-12.667 0 -23.334 4.5 -32.001 13.5s-13 20.167 -13 33.5c0 12.667 4.33301 23.334 13 32.001s19.334 13 32.001 13h162c12.667 0 23.334 -4.33301 32.001 -13s13 -19.334 13 -32.001z
" />
    <glyph glyph-name="period" unicode="." horiz-adv-x="246" 
d="M194 60c0 -19.333 -7 -36 -21 -50s-30.667 -21 -50 -21s-36 7 -50 21s-21 30.667 -21 50c0 20 7 36.833 21 50.5s30.667 20.5 50 20.5s36 -6.83301 50 -20.5s21 -30.5 21 -50.5z" />
    <glyph glyph-name="slash" unicode="/" horiz-adv-x="316" 
d="M304 658c0 -4 -0.666016 -8 -1.99902 -12l-216 -649c-2.66699 -7.33301 -7.33398 -13.333 -14.001 -18s-14 -7 -22 -7c-11.333 0 -20.666 3.66699 -27.999 11s-11 16 -11 26c0 3.33301 1 7.33301 3 12l216 649c3.33301 7.33301 8.16602 13.333 14.499 18s13.833 7 22.5 7
c10.667 0 19.5 -3.83301 26.5 -11.5s10.5 -16.167 10.5 -25.5z" />
    <glyph glyph-name="zero" unicode="0" horiz-adv-x="617" 
d="M576 333c0 -42 -5.16699 -83.5 -15.5 -124.5s-26.333 -78 -48 -111s-49.5 -59.5 -83.5 -79.5s-74.333 -30 -121 -30s-86.834 10 -120.501 30s-61.334 46.5 -83.001 79.5s-37.667 70 -48 111s-15.5 82.5 -15.5 124.5s5.16699 83.5 15.5 124.5s26.333 77.833 48 110.5
s49.334 59 83.001 79s73.834 30 120.501 30s87 -10 121 -30s61.833 -46.333 83.5 -79s37.667 -69.5 48 -110.5s15.5 -82.5 15.5 -124.5zM454 333c0 32 -2.5 62.333 -7.5 91s-13.333 53.834 -25 75.501s-26.667 39 -45 52s-41.166 19.5 -68.499 19.5
c-26.667 0 -49.334 -6.5 -68.001 -19.5s-33.834 -30.333 -45.501 -52s-20 -46.834 -25 -75.501s-7.5 -59 -7.5 -91s2.5 -62.333 7.5 -91s13.333 -54 25 -76s26.834 -39.5 45.501 -52.5s41.334 -19.5 68.001 -19.5c27.333 0 50.166 6.5 68.499 19.5s33.333 30.5 45 52.5
s20 47.333 25 76s7.5 59 7.5 91z" />
    <glyph glyph-name="one" unicode="1" horiz-adv-x="383" 
d="M313 53c0 -16.667 -5.83496 -30.667 -17.502 -42s-26.167 -17 -43.5 -17c-16 0 -29.833 5.66699 -41.5 17s-17.5 25.333 -17.5 42v459l-80 -83c-8.66699 -9.33301 -19.667 -14 -33 -14c-12.667 0 -24.167 4.83301 -34.5 14.5s-15.5 21.5 -15.5 35.5s5 26 15 36l149 151
c12.667 13.333 29.334 20 50.001 20c18.667 0 34.834 -6.5 48.501 -19.5s20.5 -28.833 20.5 -47.5v-552v0z" />
    <glyph glyph-name="two" unicode="2" horiz-adv-x="595" 
d="M541 54c0 -15.333 -5.00293 -28.168 -15.0029 -38.501s-22.333 -15.5 -37 -15.5h-391c-14 0 -26.667 5.5 -38 16.5s-17 24.833 -17 41.5c0 9.33301 2 18.333 6 27s10 16 18 22l156 120.5c43.333 35 78.666 66.667 105.999 95s47.5 54.5 60.5 78.5s19.5 47.333 19.5 70
c0 16.667 -3.33301 31.334 -10 44.001s-15.667 23.167 -27 31.5s-24.166 14.5 -38.499 18.5s-29.166 6 -44.499 6c-29.333 0 -56.166 -4.33301 -80.499 -13s-46.166 -20.667 -65.499 -36c-10 -8 -21.333 -12 -34 -12c-14 0 -26.333 5.16699 -37 15.5s-16 23.166 -16 38.499
c0 10 3 19.333 9 28c10.667 12.667 24.334 24.334 41.001 35.001s34.834 19.667 54.501 27s40.5 13 62.5 17s43.333 6 64 6c32.667 0 63.667 -4.5 93 -13.5s55.166 -22.167 77.499 -39.5s40.166 -38.833 53.499 -64.5s20 -55.167 20 -88.5
c0 -31.333 -6.83301 -61.5 -20.5 -90.5s-33 -58.333 -58 -88s-55.167 -60 -90.5 -91s-75.333 -63.167 -120 -96.5h247c14.667 0 27 -5 37 -15s15 -22 15 -36z" />
    <glyph glyph-name="three" unicode="3" horiz-adv-x="575" 
d="M529 182c0 -28 -5.83105 -53.8379 -17.498 -77.5049s-28.5 -44.167 -50.5 -61.5s-48.5 -30.833 -79.5 -40.5s-66.167 -14.5 -105.5 -14.5c-24 0 -47.667 2.16699 -71 6.5s-45.333 10.333 -66 18s-39.167 16.834 -55.5 27.501s-29.166 22.667 -38.499 36
c-6 8 -9 16.667 -9 26c0 14.667 5.33301 27.334 16 38.001s23 16 37 16c11.333 0 21.666 -3.33301 30.999 -10c22 -16.667 46.167 -29.5 72.5 -38.5s53.166 -13.5 80.499 -13.5c43.333 0 77 9.16699 101 27.5s36 42.5 36 72.5c0 16.667 -3.16699 30.834 -9.5 42.501
s-15.666 21.167 -27.999 28.5s-27.5 12.833 -45.5 16.5s-39 5.5 -63 5.5c-11.333 -1.33301 -22 -1.33301 -32 0s-18.833 4 -26.5 8s-13.834 9.83301 -18.501 17.5s-7 17.167 -7 28.5c0 14 5 26.167 15 36.5s23 15.5 39 15.5c23.333 -1.33301 45 -0.666016 65 2.00098
s37.5 7.16699 52.5 13.5s26.667 15.166 35 26.499s12.5 26 12.5 44c0 15.333 -3.5 28.666 -10.5 39.999s-16.333 20.833 -28 28.5s-25.834 13.5 -42.501 17.5s-34 6 -52 6c-26.667 0 -51.5 -4 -74.5 -12s-44.833 -19.667 -65.5 -35c-8 -6 -18 -9 -30 -9
c-12.667 0 -24.5 4.66699 -35.5 14s-16.5 21.333 -16.5 36s6 26.667 18 36c26.667 23.333 57.834 41.833 93.501 55.5s76.167 20.5 121.5 20.5c36 0 69 -4.16699 99 -12.5s55.5 -20.166 76.5 -35.499s37.333 -34.166 49 -56.499s17.5 -47.5 17.5 -75.5
c0 -22 -4.33301 -41.833 -13 -59.5s-19.834 -32.834 -33.501 -45.501s-29.167 -23 -46.5 -31s-34.666 -13.667 -51.999 -17c16 -2 33.167 -6.66699 51.5 -14s35.166 -17.666 50.499 -30.999s28 -29.666 38 -48.999s15 -42 15 -68z" />
    <glyph glyph-name="four" unicode="4" horiz-adv-x="582" 
d="M560 202c0 -14.667 -4.99902 -26.999 -14.999 -36.999s-22 -15 -36 -15h-44v-97c0 -16.667 -5.83301 -30.667 -17.5 -42s-25.834 -17 -42.501 -17s-30.667 5.66699 -42 17s-17 25.333 -17 42v97h-263c-16.667 0 -31 6.16699 -43 18.5s-18 27.833 -18 46.5
c0 14.667 3.66699 27.667 11 39l240 371c10 14.667 23.167 26.334 39.5 35.001s33.166 13 50.499 13c13.333 1.33301 26 0.666016 38 -2.00098s22.833 -7.33398 32.5 -14.001s17.334 -15.167 23.001 -25.5s8.5 -21.833 8.5 -34.5v-342h44c14 0 26 -5.16699 36 -15.5
s15 -22.833 15 -37.5zM346.001 255.001v305l-201 -305h201z" />
    <glyph glyph-name="five" unicode="5" horiz-adv-x="601" 
d="M560 215c0 -34.667 -6.33691 -66.166 -19.0039 -94.499s-30.167 -52.333 -52.5 -72s-49.333 -34.667 -81 -45s-66.167 -15.5 -103.5 -15.5c-22.667 0 -45.334 1.83301 -68.001 5.5s-44 8.83398 -64 15.501s-38 15.167 -54 25.5s-29 22.166 -39 35.499
c-6 8.66699 -9 18 -9 28c0 14.667 5.5 27.334 16.5 38.001s24.167 16 39.5 16c11.333 0 22.333 -3.33301 33 -10c20 -16 42 -28 66 -36s50 -12 78 -12c21.333 0 40.333 3 57 9s30.834 14.333 42.501 25s20.667 23 27 37s9.5 29 9.5 45c0 17.333 -3.16699 33.166 -9.5 47.499
s-15.166 26.666 -26.499 36.999s-25.166 18.166 -41.499 23.499s-34.833 8 -55.5 8c-22 0 -43.167 -3 -63.5 -9s-39.833 -15.667 -58.5 -29c-14 -10 -29.667 -15 -47 -15s-31.666 5.33301 -42.999 16s-17 24.334 -17 41.001v265c0 20 7 37 21 51s31 21 51 21h321
c14 0 26 -5.16699 36 -15.5s15 -22.833 15 -37.5s-5 -27 -15 -37s-22 -15 -36 -15h-274v-190c16 16 37 29.667 63 41s55 17 87 17c28 0 55 -5 81 -15s48.833 -24 68.5 -42s35.334 -40.333 47.001 -67s17.5 -57 17.5 -91z" />
    <glyph glyph-name="six" unicode="6" horiz-adv-x="601" 
d="M564 213c0 -31.333 -6.00195 -60.667 -18.002 -88s-28.667 -51.166 -50 -71.499s-47.166 -36.333 -77.499 -48s-64.166 -17.5 -101.499 -17.5c-49.333 0 -91.5 9.33301 -126.5 28s-63.5 43.667 -85.5 75s-38.167 67.666 -48.5 108.999s-15.5 85.333 -15.5 132
c0 48.667 6.33301 94 19 136s31.334 78.5 56.001 109.5s55.5 55.333 92.5 73s79.5 26.5 127.5 26.5c16.667 0 33.667 -1.16699 51 -3.5s33.5 -6.16602 48.5 -11.499s29 -12 42 -20s23.5 -17.333 31.5 -28c5.33301 -8.66699 8 -17.667 8 -27
c0 -15.333 -5.83301 -27.833 -17.5 -37.5s-23.834 -14.5 -36.501 -14.5c-10.667 0 -20 2.66699 -28 8c-13.333 9.33301 -27.833 16.333 -43.5 21s-34.167 7 -55.5 7c-27.333 0 -51.833 -5.83301 -73.5 -17.5s-40 -27.5 -55 -47.5s-26.5 -43.167 -34.5 -69.5
s-12 -53.833 -12 -82.5v-9.5c0 -3 0.333008 -6.16699 1 -9.5c8 11.333 17.833 22.666 29.5 33.999s25.334 21.333 41.001 30s32.667 15.667 51 21s37.166 8 56.499 8c30 0 58.5 -4.5 85.5 -13.5s50.833 -22.667 71.5 -41s37 -40.833 49 -67.5s18 -57.667 18 -93z
M442.998 208.999c0 20 -3.83105 37.3311 -11.498 51.998s-17.667 26.834 -30 36.501s-26.666 16.667 -42.999 21s-33.5 6.5 -51.5 6.5c-28.667 0 -55.667 -6.83301 -81 -20.5s-46.333 -32.5 -63 -56.5c1.33301 -17.333 5.16602 -35.166 11.499 -53.499
s15.166 -35 26.499 -50s26 -27.167 44 -36.5s40 -14 66 -14c21.333 0 40.166 3.33301 56.499 10s30 15.5 41 26.5s19.5 23.333 25.5 37s9 27.5 9 41.5z" />
    <glyph glyph-name="seven" unicode="7" horiz-adv-x="533" 
d="M516 608c0 -8.66699 -1.66699 -16.335 -5 -23.002l-246 -555c-4.66699 -11.333 -12 -20.166 -22 -26.499s-21.333 -9.5 -34 -9.5c-18 0 -32.5 6 -43.5 18s-16.5 25.667 -16.5 41c0 6.66699 1.66699 14.334 5 23.001l218 486h-299c-14.667 0 -27 5 -37 15s-15 23 -15 39
c0 14 5 26 15 36s22.333 15 37 15h385c14 0 27.167 -5.5 39.5 -16.5s18.5 -25.167 18.5 -42.5z" />
    <glyph glyph-name="eight" unicode="8" horiz-adv-x="596" 
d="M555 171c0 -30 -6.8291 -56.335 -20.4961 -79.002s-32.5 -41.667 -56.5 -57s-51.5 -27 -82.5 -35s-63.5 -12 -97.5 -12s-66.5 3.83301 -97.5 11.5s-58.333 19.334 -82 35.001s-42.334 34.834 -56.001 57.501s-20.5 49 -20.5 79c0 21.333 3.83301 41 11.5 59
s18.334 34.333 32.001 49s29.5 27.5 47.5 38.5s37.333 19.833 58 26.5c-19.333 6 -37.333 13.667 -54 23s-31.334 20.5 -44.001 33.5s-22.5 27.833 -29.5 44.5s-10.5 35.667 -10.5 57c0 30.667 7.16699 57.167 21.5 79.5s33.166 40.5 56.499 54.5s49.5 24.333 78.5 31
s58.5 10 88.5 10c29.333 0 58.833 -3.33301 88.5 -10s56.167 -17 79.5 -31s42.333 -32.167 57 -54.5s22 -48.833 22 -79.5c0 -21.333 -3.83301 -40.333 -11.5 -57s-17.834 -31.5 -30.501 -44.5s-27.334 -24.167 -44.001 -33.5s-34.667 -17 -54 -23
c20.667 -6.66699 40 -15.5 58 -26.5s33.833 -23.833 47.5 -38.5s24.5 -31 32.5 -49s12 -37.667 12 -59zM423.004 483.998c0 14 -3.16895 26.5 -9.50195 37.5s-15.166 20.5 -26.499 28.5s-24.5 13.833 -39.5 17.5s-31.5 5.5 -49.5 5.5s-34.5 -1.83301 -49.5 -5.5
s-28.167 -9.5 -39.5 -17.5s-20.166 -17.5 -26.499 -28.5s-9.5 -23.5 -9.5 -37.5c0 -15.333 4.66699 -28.5 14 -39.5s20.5 -20.167 33.5 -27.5s26.667 -13 41 -17s26.5 -6.66699 36.5 -8c10 1.33301 22.333 4 37 8s28.5 9.66699 41.5 17s24 16.5 33 27.5
s13.5 24.167 13.5 39.5zM434.002 185.998c0 17.333 -5.16992 32.166 -15.5029 44.499s-22.666 22.666 -36.999 30.999s-29.333 14.833 -45 19.5s-28.5 7.66699 -38.5 9c-10 -1.33301 -22.667 -4.33301 -38 -9s-30.333 -11.167 -45 -19.5s-27.167 -18.666 -37.5 -30.999
s-15.5 -27.166 -15.5 -44.499c0 -14 3.5 -26.833 10.5 -38.5s16.667 -21.667 29 -30s26.833 -14.666 43.5 -18.999s34.334 -6.5 53.001 -6.5s36.334 2.16699 53.001 6.5s31 10.666 43 18.999s21.667 18.333 29 30s11 24.5 11 38.5z" />
    <glyph glyph-name="nine" unicode="9" horiz-adv-x="601" 
d="M560 334c0 -48.667 -6.3291 -94.001 -18.9961 -136.001s-31.334 -78.5 -56.001 -109.5s-55.5 -55.333 -92.5 -73s-79.5 -26.5 -127.5 -26.5c-16.667 0 -33.667 1.16699 -51 3.5s-33.5 6.16602 -48.5 11.499s-29 12 -42 20s-23.5 17.333 -31.5 28c-6 8 -9 17 -9 27
c0 7.33301 1.66699 14.166 5 20.499s7.66602 11.833 12.999 16.5s11.166 8.33398 17.499 11.001s12.833 4 19.5 4c10.667 0 20 -2.66699 28 -8c13.333 -9.33301 27.833 -16.333 43.5 -21s34.167 -7 55.5 -7c27.333 0 51.833 5.83301 73.5 17.5s40 27.5 55 47.5
s26.5 43.167 34.5 69.5s12 53.833 12 82.5v9.5c0 3 -0.333008 6.16699 -1 9.5c-8 -11.333 -18 -22.666 -30 -33.999s-25.833 -21.333 -41.5 -30s-32.5 -15.667 -50.5 -21s-36.667 -8 -56 -8c-30 0 -58.5 4.5 -85.5 13.5s-50.833 22.667 -71.5 41s-37 40.833 -49 67.5
s-18 57.667 -18 93c0 31.333 5.83301 60.5 17.5 87.5s28.334 50.833 50.001 71.5s47.667 36.834 78 48.501s64.166 17.5 101.499 17.5c49.333 0 91.333 -9.33301 126 -28s63.167 -43.667 85.5 -75s38.666 -67.833 48.999 -109.5s15.5 -85.5 15.5 -131.5zM438.004 417.999
c-1.33301 17.333 -5.16504 35.168 -11.498 53.501s-15.333 35 -27 50s-26.5 27.167 -44.5 36.5s-39.667 14 -65 14c-22 0 -41.167 -3.33301 -57.5 -10s-30 -15.5 -41 -26.5s-19.333 -23.333 -25 -37s-8.5 -27.5 -8.5 -41.5c0 -20 3.66699 -37.333 11 -52
s17.166 -26.834 29.499 -36.501s26.833 -16.667 43.5 -21s34 -6.5 52 -6.5c28 0 54.667 6.83301 80 20.5s46.666 32.5 63.999 56.5z" />
    <glyph glyph-name="colon" unicode=":" horiz-adv-x="243" 
d="M194 419c0 -19.333 -7 -36 -21 -50s-30.667 -21 -50 -21s-36 7 -50 21s-21 30.667 -21 50s7 36 21 50s30.667 21 50 21s36 -7 50 -21s21 -30.667 21 -50zM194 60c0 -19.333 -7 -36 -21 -50s-30.667 -21 -50 -21s-36 7 -50 21s-21 30.667 -21 50c0 20 7 36.833 21 50.5
s30.667 20.5 50 20.5s36 -6.83301 50 -20.5s21 -30.5 21 -50.5z" />
    <glyph glyph-name="semicolon" unicode=";" horiz-adv-x="246" 
d="M194 419c0 -9.33301 -1.83008 -18.333 -5.49707 -27s-8.83398 -16.334 -15.501 -23.001s-14.334 -11.834 -23.001 -15.501s-17.667 -5.5 -27 -5.5c-10 0 -19.167 1.83301 -27.5 5.5s-15.833 8.83398 -22.5 15.501s-11.834 14.334 -15.501 23.001s-5.5 17.667 -5.5 27
c0 19.333 7 36 21 50s30.667 21 50 21s36 -7 50 -21s21 -30.667 21 -50zM200.003 40c0 -30 -7.00488 -58.8311 -21.0049 -86.498s-32.667 -51.834 -56 -72.501c-6 -5.33301 -13 -8 -21 -8c-7.33301 0 -14.666 2.5 -21.999 7.5s-11 12.167 -11 21.5c0 8 3 14.667 9 20
c12.667 11.333 23.834 24 33.501 38s15.5 27.667 17.5 41c-1.33301 -0.666992 -3.66602 -1.33398 -6.99902 -2.00098s-6.66602 -1 -9.99902 -1c-17.333 0 -31.666 6 -42.999 18s-17 27.333 -17 46c0 19.333 6.66699 35.833 20 49.5s29.333 20.5 48 20.5
c10.667 0 20.834 -2 30.501 -6s18.167 -10 25.5 -18s13.166 -17.667 17.499 -29s6.5 -24.333 6.5 -39z" />
    <glyph glyph-name="less" unicode="&#x3c;" horiz-adv-x="502" 
d="M478 145c0 -11.333 -3.99902 -20.335 -11.999 -27.002s-16.333 -10 -25 -10c-4.66699 0 -9.33398 1 -14.001 3l-373 174c-9.33301 4.66699 -16.833 11.5 -22.5 20.5s-8.5 19.167 -8.5 30.5c0 10 2.83301 19.333 8.5 28s13.167 15.334 22.5 20.001l373 175
c4 1.33301 8.66699 2 14 2c9.33301 0 17.833 -3.33301 25.5 -10s11.5 -15.667 11.5 -27c0 -6.66699 -1.83301 -13.167 -5.5 -19.5s-8.83398 -11.166 -15.501 -14.499l-347 -156l347 -155c6.66699 -3.33301 11.834 -8 15.501 -14s5.5 -12.667 5.5 -20z" />
    <glyph glyph-name="equal" unicode="=" horiz-adv-x="502" 
d="M479 430c0 -10 -3.33301 -18.5 -10 -25.5s-14.667 -10.5 -24 -10.5h-388c-9.33301 0 -17.333 3.5 -24 10.5s-10 15.5 -10 25.5c0 9.33301 3.33301 17.333 10 24s14.667 10 24 10h388c9.33301 0 17.333 -3.33301 24 -10s10 -14.667 10 -24zM479 240
c0 -10 -3.16699 -18.333 -9.5 -25s-14.166 -10 -23.499 -10h-390c-9.33301 0 -17.166 3.33301 -23.499 10s-9.5 15 -9.5 25c0 9.33301 3.16699 17.166 9.5 23.499s14.166 9.5 23.499 9.5h390c9.33301 0 17.166 -3.16699 23.499 -9.5s9.5 -14.166 9.5 -23.499z" />
    <glyph glyph-name="greater" unicode="&#x3e;" horiz-adv-x="502" 
d="M479 336c0 -11.333 -2.83301 -21.499 -8.5 -30.499s-13.167 -15.833 -22.5 -20.5l-374 -174c-4.66699 -2 -9.33398 -3 -14.001 -3c-8.66699 0 -17 3.5 -25 10.5s-12 15.833 -12 26.5c0 7.33301 1.83301 14 5.5 20s8.83398 10.667 15.501 14l348 155l-347 156
c-7.33301 3.33301 -12.833 8 -16.5 14s-5.5 12.667 -5.5 20c-0.666992 11.333 3 20.333 11 27s16.667 10 26 10c5.33301 0 10.333 -0.666992 15 -2l373 -175c9.33301 -4.66699 16.833 -11.334 22.5 -20.001s8.5 -18 8.5 -28z" />
    <glyph glyph-name="question" unicode="?" horiz-adv-x="458" 
d="M434 520c0 -24.667 -4.33398 -45.832 -13.001 -63.499s-19.667 -33.167 -33 -46.5s-27.5 -25.333 -42.5 -36l-42.5 -31.5c-13.333 -10.333 -24.333 -21 -33 -32s-13 -23.833 -13 -38.5c0 -7.33301 1.16699 -13.333 3.5 -18s3.5 -10 3.5 -16
c0 -11.333 -4.16699 -21.833 -12.5 -31.5s-19.833 -14.5 -34.5 -14.5c-10 0 -19 2.66699 -27 8s-14.833 12.166 -20.5 20.499s-10 17.833 -13 28.5s-4.5 21.667 -4.5 33c0 20.667 4 38.334 12 53.001s17.833 27.834 29.5 39.501s24.5 22.167 38.5 31.5
s26.833 18.666 38.5 27.999s21.5 19.166 29.5 29.499s12 22.5 12 36.5c0 19.333 -7.5 36 -22.5 50s-38.833 21 -71.5 21c-20.667 0 -39.667 -3.5 -57 -10.5s-33 -16.5 -47 -28.5c-9.33301 -7.33301 -21 -11 -35 -11c-13.333 0 -25 4.66699 -35 14s-15 21.333 -15 36
c0 10 2.33301 19 7 27c9.33301 12.667 21.333 24 36 34s30.834 18.333 48.501 25s36 11.667 55 15s37.5 5 55.5 5c31.333 0 59.5 -3.83301 84.5 -11.5s46.333 -18.5 64 -32.5s31.167 -30.667 40.5 -50s14 -40.333 14 -63zM295.999 60.002c0 -19.333 -7 -36 -21 -50
s-30.667 -21 -50 -21s-36 7 -50 21s-21 30.667 -21 50c0 20 7 36.833 21 50.5s30.667 20.5 50 20.5s36 -6.83301 50 -20.5s21 -30.5 21 -50.5z" />
    <glyph glyph-name="at" unicode="@" horiz-adv-x="783" 
d="M747 328c0 -41.333 -5.67285 -77.166 -17.0059 -107.499s-26.166 -55.5 -44.499 -75.5s-38.666 -35 -60.999 -45s-44.166 -15 -65.499 -15c-29.333 0 -51.833 8 -67.5 24s-24.834 34.667 -27.501 56c-18 -23.333 -40.333 -42.5 -67 -57.5s-54.334 -22.5 -83.001 -22.5
c-24 0 -45.5 4.16699 -64.5 12.5s-35.167 19.833 -48.5 34.5s-23.666 32.167 -30.999 52.5s-11 42.5 -11 66.5c0 34 6.5 66 19.5 96s30.167 56.167 51.5 78.5s45.833 40 73.5 53s56.167 19.5 85.5 19.5c30.667 0 56.834 -6.83301 78.501 -20.5s37.5 -30.5 47.5 -50.5l5 26
c2 10.667 7.5 19.334 16.5 26.001s18.833 10 29.5 10c14 0 25.333 -4.33301 34 -13s13 -19 13 -31v-5.5c0 -1.66699 -0.333008 -3.16699 -1 -4.5l-43 -206c-0.666992 -3.33301 -1.33398 -7.16602 -2.00098 -11.499s-1 -8.16602 -1 -11.499c0 -16 4 -27.833 12 -35.5
s17.667 -11.5 29 -11.5c10 0 20.833 3 32.5 9s22.5 15.667 32.5 29s18.333 30.666 25 51.999s10 47.666 10 78.999c0 40 -6.66699 76.667 -20 110s-32.166 62.166 -56.499 86.499s-53.666 43.166 -87.999 56.499s-72.5 20 -114.5 20
c-47.333 0 -92.666 -9.66699 -135.999 -29s-81.333 -45.333 -114 -78s-58.5 -70.5 -77.5 -113.5s-28.5 -87.833 -28.5 -134.5c0 -39.333 7.16699 -76.166 21.5 -110.499s34 -64 59 -89s55 -44.667 90 -59s72.833 -21.5 113.5 -21.5c32 0 62.167 4.16699 90.5 12.5
s55.5 20.166 81.5 35.499c2.66699 1.33301 5.33398 2 8.00098 2c4.66699 0 9 -1.5 13 -4.5s6 -7.16699 6 -12.5c0 -6 -2.33301 -10.333 -7 -13c-29.333 -18 -60.833 -31.833 -94.5 -41.5s-67.5 -14.5 -101.5 -14.5c-45.333 0 -87.333 8 -126 24s-72.167 38.167 -100.5 66.5
s-50.5 61.666 -66.5 99.999s-24 79.5 -24 123.5c0 53.333 11 103.833 33 151.5s51.167 89.5 87.5 125.5s78.5 64.5 126.5 85.5s98 31.5 150 31.5c48 0 91.333 -8.16699 130 -24.5s71.667 -38.666 99 -66.999s48.5 -61.333 63.5 -99s22.5 -77.5 22.5 -119.5zM499.994 362
c-2.66699 6 -6.49707 12.501 -11.4971 19.501s-11.167 13.5 -18.5 19.5s-16 10.833 -26 14.5s-21 5.5 -33 5.5c-22 0 -42.333 -4.66699 -61 -14s-34.834 -21.5 -48.501 -36.5s-24.334 -32.333 -32.001 -52s-11.5 -39.5 -11.5 -59.5c0 -28.667 8 -52 24 -70s38 -27 66 -27
c15.333 0 29.166 2.16699 41.499 6.5s23.833 10.166 34.5 17.499s20.167 15.5 28.5 24.5s15.5 17.833 21.5 26.5z" />
    <glyph glyph-name="A" unicode="A" horiz-adv-x="674" 
d="M646 58c0 -15.333 -5.82812 -29.833 -17.4951 -43.5s-27.167 -20.5 -46.5 -20.5c-12.667 0 -24.334 3.5 -35.001 10.5s-18.334 16.5 -23.001 28.5l-35 93h-304l-36 -93c-4.66699 -12 -12.334 -21.5 -23.001 -28.5s-22.334 -10.5 -35.001 -10.5
c-19.333 0 -34.833 6.5 -46.5 19.5s-17.5 27.833 -17.5 44.5c0 8.66699 1.66699 16 5 22l208 530c7.33301 18.667 19.666 33.834 36.999 45.501s36 17.5 56 17.5c21.333 1.33301 41.333 -3.83398 60 -15.501s32 -27.5 40 -47.5l209 -530c2.66699 -8 4 -15.333 4 -22z
M455.005 232l-118 315l-119 -315h237z" />
    <glyph glyph-name="B" unicode="B" horiz-adv-x="650" 
d="M604 180c0 -26 -4.16895 -49.8311 -12.502 -71.498s-20.833 -40.667 -37.5 -57s-36.834 -29 -60.501 -38s-51.5 -13.5 -83.5 -13.5h-267c-20 0 -37 7 -51 21s-21 31 -21 51v523c0 20 7 37 21 51s31 21 51 21h258c30.667 0 57.834 -4.5 81.501 -13.5
s43.5 -21.167 59.5 -36.5s28.167 -33.333 36.5 -54s12.5 -42.667 12.5 -66c0 -21.333 -3 -40.666 -9 -57.999s-14.5 -32.5 -25.5 -45.5s-23.333 -23.667 -37 -32s-28.5 -14.166 -44.5 -17.499c18 -2.66699 34.833 -8.83398 50.5 -18.501s29.334 -21.834 41.001 -36.501
s20.834 -31.334 27.501 -50.001s10 -38.334 10 -59.001zM468.998 477.002c0 24.667 -8.16699 45.167 -24.5 61.5s-39.166 24.5 -68.499 24.5h-186v-171h186c29.333 0 52.166 8 68.499 24s24.5 36.333 24.5 61zM481.998 196.002c0 12 -2.16699 23.668 -6.5 35.001
s-10.833 21.166 -19.5 29.499s-19.167 15 -31.5 20s-26.833 7.5 -43.5 7.5h-191v-184h191c32 0 56.833 8.16699 74.5 24.5s26.5 38.833 26.5 67.5z" />
    <glyph glyph-name="C" unicode="C" horiz-adv-x="683" 
d="M391 678c54.667 0 101.168 -9.99219 139.501 -29.9922s70.166 -44.667 95.499 -74c8.66699 -10.667 13 -22.334 13 -35.001c0 -15.333 -5.5 -28.333 -16.5 -39s-24.5 -16 -40.5 -16c-7.33301 0 -14.833 1.66699 -22.5 5s-14.5 8 -20.5 14
c-19.333 21.333 -42 38.166 -68 50.499s-52.667 18.5 -80 18.5c-32.667 0 -62.834 -6 -90.501 -18s-51.667 -28.667 -72 -50s-36.333 -46.5 -48 -75.5s-17.5 -60.833 -17.5 -95.5s5.83301 -66.667 17.5 -96s27.667 -54.5 48 -75.5s44.333 -37.5 72 -49.5
s57.834 -18 90.501 -18c28 0 54.833 5.83301 80.5 17.5s48.167 28.5 67.5 50.5c6 6 12.833 10.667 20.5 14s15.5 5 23.5 5c16 0 29.167 -5.33301 39.5 -16s15.5 -23.334 15.5 -38.001c0 -6.66699 -1 -12.834 -3 -18.501s-5 -11.167 -9 -16.5c-26 -29.333 -58 -54 -96 -74
s-84.333 -30 -139 -30c-49.333 0 -95.333 8.33301 -138 25s-79.667 40.167 -111 70.5s-56 66.666 -74 108.999s-27 89.166 -27 140.499s9 98.166 27 140.499s42.667 78.666 74 108.999s68.333 53.833 111 70.5s88.667 25 138 25z" />
    <glyph glyph-name="D" unicode="D" horiz-adv-x="711" 
d="M670 333c0 -48.667 -8.5 -93.5029 -25.5 -134.503s-40.833 -76.167 -71.5 -105.5s-67.5 -52.166 -110.5 -68.499s-90.5 -24.5 -142.5 -24.5h-177c-20 0 -37 7 -51 21s-21 31 -21 51v523c0 20 7 37 21 51s31 21 51 21h177c52 0 99.5 -8.16699 142.5 -24.5
s79.833 -39.166 110.5 -68.499s54.5 -64.666 71.5 -105.999s25.5 -86.333 25.5 -135zM547 332.997c0 32 -4.83203 61.999 -14.499 89.999s-24 52.167 -43 72.5s-42.833 36.5 -71.5 48.5s-61.334 18 -98.001 18h-130v-457h130c36 0 68 6 96 18s51.833 28.333 71.5 49
s34.5 44.834 44.5 72.501s15 57.167 15 88.5z" />
    <glyph glyph-name="E" unicode="E" horiz-adv-x="578" 
d="M535 54c0 -15.333 -5 -28.167 -15 -38.5s-22 -15.5 -36 -15.5h-341c-20 0 -37 7 -51 21s-21 31 -21 51v523c0 20 7 37 21 51s31 21 51 21h341c14 0 26 -5.16699 36 -15.5s15 -22.833 15 -37.5s-5 -27 -15 -37s-22 -15 -36 -15h-294v-170h287c14 0 26 -5.16699 36 -15.5
s15 -22.833 15 -37.5s-5 -27 -15 -37s-22 -15 -36 -15h-287v-182h294c14 0 26 -5 36 -15s15 -22 15 -36z" />
    <glyph glyph-name="F" unicode="F" horiz-adv-x="563" 
d="M535 614c0 -14.667 -5 -27 -15 -37s-22 -15 -36 -15h-294v-170h287c14 0 26 -5.16699 36 -15.5s15 -22.833 15 -37.5s-5 -27 -15 -37s-22 -15 -36 -15h-287v-234c0 -16.667 -5.83301 -30.667 -17.5 -42s-26.167 -17 -43.5 -17c-16 0 -29.667 5.66699 -41 17
s-17 25.333 -17 42v542c0 20 7 37 21 51s31 21 51 21h341c14 0 26 -5.16699 36 -15.5s15 -22.833 15 -37.5z" />
    <glyph glyph-name="G" unicode="G" horiz-adv-x="717" 
d="M666 166c0 -28 -8.33691 -53.1641 -25.0039 -75.4971s-38.167 -41.166 -64.5 -56.499s-55.833 -27 -88.5 -35s-65 -12 -97 -12c-48 0 -93.333 8.16699 -136 24.5s-79.834 39.666 -111.501 69.999s-56.667 66.666 -75 108.999s-27.5 89.833 -27.5 142.5
s9.16699 100.167 27.5 142.5s43.333 78.5 75 108.5s68.834 53.167 111.501 69.5s88 24.5 136 24.5c52.667 0 98.167 -9 136.5 -27s70.833 -40.667 97.5 -68c4.66699 -5.33301 8.33398 -11.333 11.001 -18s4 -13.334 4 -20.001c0 -14.667 -5.66699 -27.334 -17 -38.001
s-24.333 -16 -39 -16c-15.333 0 -28.666 5.66699 -39.999 17c-20 20 -43.333 35.667 -70 47s-54.334 17 -83.001 17c-32.667 0 -62.834 -6 -90.501 -18s-51.667 -28.667 -72 -50s-36.333 -46.5 -48 -75.5s-17.5 -60.833 -17.5 -95.5s5.83301 -66.667 17.5 -96
s27.667 -54.5 48 -75.5s44.333 -37.5 72 -49.5s57.834 -18 90.501 -18c16.667 0 32.834 1.66699 48.501 5s30.334 7.83301 44.001 13.5s25.834 12.167 36.501 19.5s19.667 14.333 27 21v101h-151c-14.667 0 -26.834 5 -36.501 15s-14.5 23 -14.5 39c0 14 4.83301 26 14.5 36
s21.834 15 36.501 15h198c20 0 37 -7 51 -21s21 -31 21 -51v-121v0z" />
    <glyph glyph-name="H" unicode="H" horiz-adv-x="724" 
d="M654 53c0 -16 -5.83398 -29.833 -17.501 -41.5s-26.167 -17.5 -43.5 -17.5c-16 0 -29.833 5.83301 -41.5 17.5s-17.5 25.5 -17.5 41.5v237h-344v-237c0 -16.667 -5.83301 -30.667 -17.5 -42s-26.167 -17 -43.5 -17c-16 0 -29.667 5.66699 -41 17s-17 25.333 -17 42v562
c0 16 5.83301 29.667 17.5 41s25.834 17 42.501 17s30.667 -5.66699 42 -17s17 -25 17 -41v-220h344v220c0 16 5.83301 29.667 17.5 41s26.167 17 43.5 17c16.667 0 30.667 -5.66699 42 -17s17 -25 17 -41v-562v0z" />
    <glyph glyph-name="I" unicode="I" horiz-adv-x="261" 
d="M190 53c0 -16.667 -5.83398 -30.667 -17.501 -42s-26.167 -17 -43.5 -17c-16 0 -29.667 5.66699 -41 17s-17 25.333 -17 42v562c0 16 5.83301 29.667 17.5 41s25.834 17 42.501 17s30.667 -5.66699 42 -17s17 -25 17 -41v-562v0z" />
    <glyph glyph-name="J" unicode="J" horiz-adv-x="482" 
d="M411 212c0 -38 -5.66699 -71.1709 -17 -99.5039s-27 -51.666 -47 -69.999s-43.833 -32 -71.5 -41s-57.834 -13.5 -90.501 -13.5c-13.333 0 -27.5 0.833008 -42.5 2.5s-29.667 4.83398 -44 9.50098s-27.666 10.667 -39.999 18s-22.5 16.333 -30.5 27
c-6.66699 8 -10 17.333 -10 28c0 14.667 5.5 27.334 16.5 38.001s23.5 16 37.5 16c6.66699 0 13 -1.66699 19 -5c12 -6.66699 25 -13 39 -19s29.333 -9 46 -9c36 0 64.333 10.833 85 32.5s31 50.834 31 87.501v401c0 16 5.83301 29.667 17.5 41s26.167 17 43.5 17
c16 0 29.667 -5.66699 41 -17s17 -25 17 -41v-403v0z" />
    <glyph glyph-name="K" unicode="K" horiz-adv-x="623" 
d="M559 51c0 -14 -5.5 -27.001 -16.5 -39.001s-24.5 -18 -40.5 -18c-8.66699 0 -17 1.66699 -25 5s-14.667 9 -20 17l-209 264l-58 -68v-159c0 -16.667 -5.83301 -30.667 -17.5 -42s-26.167 -17 -43.5 -17c-16 0 -29.667 5.66699 -41 17s-17 25.333 -17 42v562
c0 16 5.83301 29.667 17.5 41s25.834 17 42.501 17s30.667 -5.66699 42 -17s17 -25 17 -41v-264l246 301c5.33301 6.66699 11.833 11.5 19.5 14.5s15.5 4.5 23.5 4.5c15.333 0 28.666 -5.16699 39.999 -15.5s17 -23.5 17 -39.5c0 -13.333 -4 -24.666 -12 -33.999l-198 -230
l221 -267c8 -10.667 12 -22 12 -34z" />
    <glyph glyph-name="L" unicode="L" horiz-adv-x="518" 
d="M489 54c0 -15.333 -5.16797 -28.167 -15.501 -38.5s-22.5 -15.5 -36.5 -15.5h-294c-20 0 -37 7 -51 21s-21 31 -21 51v543c0 16 5.83301 29.667 17.5 41s25.834 17 42.501 17s30.667 -5.66699 42 -17s17 -25 17 -41v-510h247c14 0 26.167 -5 36.5 -15s15.5 -22 15.5 -36z
" />
    <glyph glyph-name="M" unicode="M" horiz-adv-x="837" 
d="M767 53c0 -16 -5.83008 -29.834 -17.4971 -41.501s-26.167 -17.5 -43.5 -17.5c-16 0 -29.833 5.83301 -41.5 17.5s-17.5 25.5 -17.5 41.5v446l-197 -484c-2.66699 -6 -6.83398 -11 -12.501 -15s-12.5 -6 -20.5 -6c-6.66699 0 -12.834 2 -18.501 6s-9.83398 9 -12.501 15
l-196 484v-446c0 -16.667 -5.83301 -30.667 -17.5 -42s-26.167 -17 -43.5 -17c-16 0 -29.667 5.66699 -41 17s-17 25.333 -17 42v541c0 20.667 7.33301 38.334 22 53.001s32.334 22 53.001 22c25.333 2 48.5 -1 69.5 -9s36.167 -23.667 45.5 -47l157 -387l158 387
c6.66699 16.667 17.667 30.167 33 40.5s32.666 15.5 51.999 15.5c13.333 1.33301 26.333 0.666016 39 -2.00098s24 -7 34 -13s18 -14.167 24 -24.5s9 -22.166 9 -35.499v-541v0z" />
    <glyph glyph-name="N" unicode="N" horiz-adv-x="721" 
d="M650 65c0 -9.33301 -1.66602 -18.332 -4.99902 -26.999s-8.33301 -16.167 -15 -22.5s-14.5 -11.5 -23.5 -15.5s-18.833 -6 -29.5 -6c-11.333 0 -22.333 2.66699 -33 8s-19.667 12.666 -27 21.999l-327 448v-419c0 -16.667 -5.83301 -30.667 -17.5 -42
s-26.167 -17 -43.5 -17c-16 0 -29.667 5.66699 -41 17s-17 25.333 -17 42v545c0 10 1.83301 19.333 5.5 28s9 16.667 16 24s15.167 13 24.5 17s19.666 6 30.999 6c12.667 0 24.667 -2.83301 36 -8.5s21 -13.5 29 -23.5l318 -432v406c0 16 5.83301 29.667 17.5 41
s26.167 17 43.5 17c16 0 29.667 -5.66699 41 -17s17 -25 17 -41v-550v0z" />
    <glyph glyph-name="O" unicode="O" horiz-adv-x="765" 
d="M724 333c0 -50 -8.33301 -96 -25 -138s-40.167 -78.5 -70.5 -109.5s-66.5 -55 -108.5 -72s-88 -25.5 -138 -25.5s-95.833 8.5 -137.5 25.5s-77.667 41 -108 72s-53.833 67.5 -70.5 109.5s-25 88 -25 138s8.33301 96 25 138s40.167 78.5 70.5 109.5s66.333 55 108 72
s87.5 25.5 137.5 25.5s96 -8.5 138 -25.5s78.167 -41 108.5 -72s53.833 -67.5 70.5 -109.5s25 -88 25 -138zM601 333c0 34 -5.16699 65.667 -15.5 95s-25 54.666 -44 75.999s-42 38 -69 50s-57.167 18 -90.5 18s-63.5 -6 -90.5 -18s-50 -28.667 -69 -50
s-33.667 -46.666 -44 -75.999s-15.5 -61 -15.5 -95s5.16699 -65.667 15.5 -95s25 -54.5 44 -75.5s42 -37.667 69 -50s57.167 -18.5 90.5 -18.5s63.5 6.16699 90.5 18.5s50 29 69 50s33.667 46.167 44 75.5s15.5 61 15.5 95z" />
    <glyph glyph-name="P" unicode="P" horiz-adv-x="610" 
d="M584 457c0 -28 -4.83105 -54.833 -14.498 -80.5s-23.834 -47.834 -42.501 -66.501s-41.5 -33.667 -68.5 -45s-57.833 -17 -92.5 -17h-176v-195c0 -16.667 -5.83301 -30.667 -17.5 -42s-26.167 -17 -43.5 -17c-16 0 -29.667 5.66699 -41 17s-17 25.333 -17 42v542
c0 20 7 37 21 51s31 21 51 21h223c34.667 0 65.667 -5.5 93 -16.5s50.166 -26.167 68.499 -45.5s32.333 -41.666 42 -66.999s14.5 -52.333 14.5 -81zM462.002 457c0 32 -10.5 57.5 -31.5 76.5s-47.833 28.5 -80.5 28.5h-160v-209h160c32.667 0 59.5 9.5 80.5 28.5
s31.5 44.167 31.5 75.5z" />
    <glyph glyph-name="Q" unicode="Q" horiz-adv-x="765" 
d="M724 333c0 -48.667 -7.66699 -93.1689 -23 -133.502s-37.333 -75.833 -66 -106.5l24 -26c8 -9.33301 12 -20.666 12 -33.999s-5.16699 -25.666 -15.5 -36.999s-23.5 -17 -39.5 -17s-29.333 6.33301 -40 19l-28 30c-24 -13.333 -49.833 -23.333 -77.5 -30
s-57.167 -10 -88.5 -10c-50 0 -95.833 8.5 -137.5 25.5s-77.667 41 -108 72s-53.833 67.5 -70.5 109.5s-25 88 -25 138s8.33301 96 25 138s40.167 78.5 70.5 109.5s66.333 55 108 72s87.5 25.5 137.5 25.5s96 -8.5 138 -25.5s78.167 -41 108.5 -72s53.833 -67.5 70.5 -109.5
s25 -88 25 -138zM601 332.998c0 34 -5.16797 65.667 -15.501 95s-25 54.666 -44 75.999s-42 38 -69 50s-57.167 18 -90.5 18s-63.5 -6 -90.5 -18s-50 -28.667 -69 -50s-33.667 -46.666 -44 -75.999s-15.5 -61 -15.5 -95s5.16699 -65.667 15.5 -95s25 -54.5 44 -75.5
s42 -37.667 69 -50s57.167 -18.5 90.5 -18.5c32.667 0 63.334 6.66699 92.001 20l-51 57c-4.66699 4.66699 -8 9.83398 -10 15.501s-3 11.5 -3 17.5c0 13.333 5.16699 25.833 15.5 37.5s23.5 17.5 39.5 17.5s29.333 -6 40 -18l52 -59c14 20.667 24.833 43.667 32.5 69
s11.5 52.666 11.5 81.999z" />
    <glyph glyph-name="R" unicode="R" horiz-adv-x="630" 
d="M584 457c0 -29.333 -4.33301 -55.499 -13 -78.499s-20.5 -42.5 -35.5 -58.5s-31.833 -29 -50.5 -39s-37.667 -16.667 -57 -20l111 -180c5.33301 -9.33301 8 -19 8 -29c0 -14 -5.33301 -27.167 -16 -39.5s-25 -18.5 -43 -18.5c-10 0 -19.5 2.5 -28.5 7.5
s-16.167 12.167 -21.5 21.5l-133 225h-115v-195c0 -16.667 -5.83301 -30.667 -17.5 -42s-26.167 -17 -43.5 -17c-16 0 -29.667 5.66699 -41 17s-17 25.333 -17 42v542c0 20 7 37 21 51s31 21 51 21h223c32.667 0 62.5 -5 89.5 -15s50 -24.5 69 -43.5s33.667 -41.333 44 -67
s15.5 -53.834 15.5 -84.501zM349 562.001h-159v-209h159c32.667 0 59.667 9.5 81 28.5s32 44.167 32 75.5c0 32 -10.667 57.5 -32 76.5s-48.333 28.5 -81 28.5z" />
    <glyph glyph-name="S" unicode="S" horiz-adv-x="595" 
d="M558 195c0 -28 -4.99805 -54.4941 -14.998 -79.4941s-25.5 -47 -46.5 -66s-47.833 -34 -80.5 -45s-71.334 -16.5 -116.001 -16.5c-24.667 0 -49.334 2 -74.001 6s-48 9.66699 -70 17s-41.833 16.166 -59.5 26.499s-32.167 22.166 -43.5 35.499c-8 10 -12 21 -12 33
c0 16 5.66699 29.5 17 40.5s24.666 16.5 39.999 16.5c5.33301 0 10.833 -0.833008 16.5 -2.5s10.834 -4.16699 15.501 -7.5c23.333 -17.333 49.666 -31.666 78.999 -42.999s61.333 -17 96 -17c23.333 0 43.333 2.66699 60 8s30.334 12.166 41.001 20.499s18.5 18 23.5 29
s7.5 21.833 7.5 32.5c0 16.667 -5.66699 30.667 -17 42s-26 20.833 -44 28.5s-38.667 14.167 -62 19.5s-47.166 11.5 -71.499 18.5s-48.166 15 -71.499 24s-44 20.667 -62 35s-32.5 32 -43.5 53s-16.5 46.833 -16.5 77.5c0 28 5.83301 53.833 17.5 77.5s28 44.334 49 62.001
s46.5 31.5 76.5 41.5s63.333 15 100 15c20 0 40.833 -1.5 62.5 -4.5s42.667 -7.66699 63 -14s39 -14 56 -23s31.167 -19.5 42.5 -31.5c8 -9.33301 12 -20 12 -32c0 -16 -6 -29.167 -18 -39.5s-25.333 -15.5 -40 -15.5c-11.333 0 -22 3.33301 -32 10
c-24 15.333 -49.333 26.666 -76 33.999s-53.334 11 -80.001 11c-34 0 -61 -7.5 -81 -22.5s-30 -34.833 -30 -59.5c0 -15.333 5.5 -27.833 16.5 -37.5s25.667 -18 44 -25s39 -13.333 62 -19s46.667 -11.834 71 -18.501s48.166 -14.834 71.499 -24.501s44 -21.834 62 -36.501
s32.5 -32.834 43.5 -54.501s16.5 -48.167 16.5 -79.5z" />
    <glyph glyph-name="T" unicode="T" horiz-adv-x="577" 
d="M556 614c0 -14.667 -5.16699 -27 -15.5 -37s-22.5 -15 -36.5 -15h-155v-509c0 -16 -5.83301 -29.833 -17.5 -41.5s-26.167 -17.5 -43.5 -17.5c-16 0 -29.833 5.83301 -41.5 17.5s-17.5 25.5 -17.5 41.5v509h-155c-14.667 0 -27 5 -37 15s-15 23 -15 39c0 14 5 26 15 36
s22.333 15 37 15h430c14 0 26.167 -5.16699 36.5 -15.5s15.5 -22.833 15.5 -37.5z" />
    <glyph glyph-name="U" unicode="U" horiz-adv-x="720" 
d="M650 264c0 -41.333 -6.00098 -79 -18.001 -113s-30 -63.167 -54 -87.5s-54.167 -43 -90.5 -56s-78.833 -19.5 -127.5 -19.5c-48 0 -90.167 6.66699 -126.5 20s-66.666 32 -90.999 56s-42.333 52.833 -54 86.5s-17.5 71.167 -17.5 112.5v351
c0 16 5.83301 29.833 17.5 41.5s26.167 17.5 43.5 17.5c16 0 29.833 -5.83301 41.5 -17.5s17.5 -25.5 17.5 -41.5v-347c0 -52 14.333 -93.833 43 -125.5s70.667 -47.5 126 -47.5c56 0 98.167 15.833 126.5 47.5s42.5 73.5 42.5 125.5v347c0 16 5.83301 29.833 17.5 41.5
s26.5 17.5 44.5 17.5c16.667 0 30.667 -5.83301 42 -17.5s17 -25.5 17 -41.5v-350v0z" />
    <glyph glyph-name="V" unicode="V" horiz-adv-x="674" 
d="M647 611c0 -8 -1.6709 -15.667 -5.00391 -23l-208 -531c-7.33301 -18.667 -19.666 -33.834 -36.999 -45.501s-35.666 -17.5 -54.999 -17.5h-10c-20 0 -38.5 5.83301 -55.5 17.5s-29.5 26.834 -37.5 45.501l-208 531c-2.66699 6 -4 13.667 -4 23
c0 14.667 5.83301 28.667 17.5 42s26.834 20 45.501 20c12.667 0 24.5 -3.5 35.5 -10.5s18.833 -17.167 23.5 -30.5l188 -502l187 502c4.66699 12.667 12.334 22.667 23.001 30s22.667 11 36 11c18.667 0 34 -6.33301 46 -19s18 -27 18 -43z" />
    <glyph glyph-name="W" unicode="W" horiz-adv-x="905" 
d="M881 615c0 -5.33301 -0.668945 -10.999 -2.00195 -16.999l-156 -545c-4.66699 -17.333 -14.334 -31.5 -29.001 -42.5s-31 -16.5 -49 -16.5h-2c-18.667 0 -34.834 5.5 -48.501 16.5s-22.834 25.167 -27.501 42.5l-115 436l-115 -436c-4 -17.333 -13.167 -31.5 -27.5 -42.5
s-30.5 -16.5 -48.5 -16.5h-2c-18 0 -34.167 5.5 -48.5 16.5s-23.833 24.833 -28.5 41.5l-156 547c-2 5.33301 -3 10.666 -3 15.999c0 16 5.83301 30.333 17.5 43s26.834 19 45.501 19c14.667 0 27.834 -4.5 39.501 -13.5s19.5 -20.833 23.5 -35.5l119 -471l126 472
c4 13.333 11.333 24 22 32s23.334 12 38.001 12c12.667 0 24.334 -4 35.001 -12s17.667 -18.667 21 -32l126 -472l118 471c3.33301 14 11 25.5 23 34.5s25.667 13.5 41 13.5c18.667 0 33.834 -6.16699 45.501 -18.5s17.5 -26.5 17.5 -42.5z" />
    <glyph glyph-name="X" unicode="X" horiz-adv-x="662" 
d="M608 52c0 -7.33301 -1.33398 -14.3311 -4.00098 -20.998s-6.5 -12.834 -11.5 -18.501s-11.167 -10.167 -18.5 -13.5s-15.333 -5 -24 -5c-9.33301 0 -18 2 -26 6s-15 10 -21 18l-172 241l-174 -242c-5.33301 -7.33301 -12 -13 -20 -17s-16.667 -6 -26 -6
c-15.333 0 -28.666 5.16699 -39.999 15.5s-17 24.166 -17 41.499c0 6 0.666992 11.833 2 17.5s4 10.834 8 15.501l188 258l-175 242c-6.66699 9.33301 -10 19.666 -10 30.999c0 14.667 5.33301 27.834 16 39.501s24.667 17.5 42 17.5c20 0 36.333 -8.33301 49 -25l157 -223
l156 223c11.333 16.667 27.333 25 48 25c16 0 29.833 -5.5 41.5 -16.5s17.5 -24.167 17.5 -39.5c0 -12.667 -3.33301 -23.334 -10 -32.001l-174 -241l188 -258c6.66699 -10 10 -21 10 -33z" />
    <glyph glyph-name="Y" unicode="Y" horiz-adv-x="638" 
d="M592 617c0 -10.667 -2.66699 -20.667 -8 -30l-205 -311v-223c0 -16.667 -5.83301 -30.667 -17.5 -42s-25.834 -17 -42.501 -17s-30.667 5.66699 -42 17s-17 25.333 -17 42v223l-207 312c-6 8 -9 17.667 -9 29c0 13.333 5.33301 25.833 16 37.5s24.667 17.5 42 17.5
c8.66699 0 17.5 -2.16699 26.5 -6.5s16.167 -10.833 21.5 -19.5l169 -263l167 263c5.33301 8 12.333 14.333 21 19s18 7 28 7c16.667 0 30.334 -5.5 41.001 -16.5s16 -23.833 16 -38.5z" />
    <glyph glyph-name="Z" unicode="Z" horiz-adv-x="589" 
d="M551 54c0 -15.333 -5.16699 -28.168 -15.5 -38.501s-22.5 -15.5 -36.5 -15.5h-396c-16.667 0 -31.5 6.33301 -44.5 19s-19.5 28.667 -19.5 48c0 14.667 4 28 12 40l331 455h-292c-14 0 -26.167 5 -36.5 15s-15.5 23 -15.5 39c0 14 5.16699 26 15.5 36s22.5 15 36.5 15
h392c16 0 30.167 -6.16699 42.5 -18.5s18.5 -28.166 18.5 -47.499c0 -16 -4.66699 -30 -14 -42l-329 -454h299c14 0 26.167 -5 36.5 -15s15.5 -22 15.5 -36z" />
    <glyph glyph-name="bracketleft" unicode="[" horiz-adv-x="266" 
d="M255 -153c0 -10 -3.5 -18.667 -10.5 -26s-15.167 -11 -24.5 -11h-103c-20 0 -37.167 7 -51.5 21s-21.5 31 -21.5 51v724c0 20 7.16699 37 21.5 51s31.5 21 51.5 21h103c9.33301 0 17.5 -3.66699 24.5 -11s10.5 -16 10.5 -26s-3.5 -18.5 -10.5 -25.5
s-15.167 -10.5 -24.5 -10.5h-97v-722h97c9.33301 0 17.5 -3.5 24.5 -10.5s10.5 -15.5 10.5 -25.5z" />
    <glyph glyph-name="backslash" unicode="\" horiz-adv-x="316" 
d="M304 9c0 -9.33301 -3.50195 -17.833 -10.502 -25.5s-16.167 -11.5 -27.5 -11.5c-8 0 -15.167 2.33301 -21.5 7s-11.166 10.667 -14.499 18l-216 649c-1.33301 2 -2 4 -2 6v5c0 10 3.5 18.833 10.5 26.5s16.167 11.5 27.5 11.5c8 0 15.333 -2.33301 22 -7
s11.334 -10.667 14.001 -18l216 -649c0.666992 -2 1.16699 -4 1.5 -6s0.5 -4 0.5 -6z" />
    <glyph glyph-name="bracketright" unicode="]" horiz-adv-x="266" 
d="M221 -118c0 -20 -7 -37 -21 -51s-31 -21 -51 -21h-102c-9.33301 0 -17.666 3.66699 -24.999 11s-11 16 -11 26s3.66699 18.5 11 25.5s15.666 10.5 24.999 10.5h96v722h-96c-9.33301 0 -17.666 3.5 -24.999 10.5s-11 16.167 -11 27.5c0 9.33301 3.66699 17.5 11 24.5
s15.666 10.5 24.999 10.5h102c20 0 37 -7 51 -21s21 -31 21 -51v-724v0z" />
    <glyph glyph-name="asciicircum" unicode="^" horiz-adv-x="438" 
d="M400 363c0 -8 -3.33301 -16 -10 -24s-15.667 -12 -27 -12c-6.66699 0 -13.167 1.66699 -19.5 5s-10.833 8.33301 -13.5 15l-112 245l-110 -245c-2.66699 -6.66699 -7.16699 -11.667 -13.5 -15s-12.833 -5 -19.5 -5c-10.667 0 -19.667 3.5 -27 10.5s-11 15.5 -11 25.5
c0 5.33301 1.33301 10.333 4 15l127 263c4.66699 9.33301 11.667 17 21 23s20 9 32 9c10.667 0 20.667 -3 30 -9s16 -13.667 20 -23l126 -263c2 -4.66699 3 -9.66699 3 -15z" />
    <glyph glyph-name="underscore" unicode="_" horiz-adv-x="564" 
d="M573 -76c0 -10.667 -3.5 -19.5 -10.5 -26.5s-15.167 -10.5 -24.5 -10.5h-511c-9.33301 0 -17.666 3.5 -24.999 10.5s-11 15.833 -11 26.5c0 9.33301 3.66699 17.666 11 24.999s15.666 11 24.999 11h511c9.33301 0 17.5 -3.66699 24.5 -11s10.5 -15.666 10.5 -24.999z" />
    <glyph glyph-name="grave" unicode="`" horiz-adv-x="241" 
d="M210 578c0 -7.33301 -2.66699 -13.834 -8 -19.501s-12 -8.5 -20 -8.5c-6 0 -12 2.33301 -18 7l-106 92c-6.66699 5.33301 -10 13 -10 23c0 8.66699 3.33301 16.5 10 23.5s14.667 10.5 24 10.5s17.333 -3.33301 24 -10l96 -99c5.33301 -5.33301 8 -11.666 8 -18.999z" />
    <glyph glyph-name="a" unicode="a" horiz-adv-x="537" 
d="M469 47c0 -14.667 -4.99805 -27.165 -14.998 -37.498s-22.667 -15.5 -38 -15.5c-10.667 0 -19.834 2.16699 -27.501 6.5s-14 11.666 -19 21.999s-7.5 20.166 -7.5 29.499c-18 -20.667 -40.333 -36.5 -67 -47.5s-56 -16.5 -88 -16.5c-20 0 -40 3.33301 -60 10
s-38 16.667 -54 30s-29.167 30 -39.5 50s-15.5 43.333 -15.5 70c0 27.333 5.16699 51 15.5 71s23.5 36.333 39.5 49s34 22 54 28s40 9 60 9c32 0 61.5 -5.16699 88.5 -15.5s49.167 -25.833 66.5 -46.5v74c0 28 -10.333 49.833 -31 65.5s-47.667 23.5 -81 23.5
c-21.333 0 -41.5 -2.83301 -60.5 -8.5s-37.167 -15.167 -54.5 -28.5c-7.33301 -4.66699 -14.666 -7 -21.999 -7c-10 0 -19.5 3.66699 -28.5 11s-13.5 17.666 -13.5 30.999c0 8.66699 2.66699 16.334 8 23.001c9.33301 12 21.666 22.333 36.999 31s31.666 15.667 48.999 21
s35 9.33301 53 12s34.333 4 49 4c26.667 0 52.167 -3 76.5 -9s45.833 -15.833 64.5 -29.5s33.5 -31.667 44.5 -54s16.5 -49.833 16.5 -82.5v-273zM362.002 111.002v72c-12 16 -28.167 28 -48.5 36s-42.166 12 -65.499 12c-28.667 0 -52.667 -7.66699 -72 -23
s-29 -36 -29 -62s9.66699 -46.5 29 -61.5s43.333 -22.5 72 -22.5c23.333 0 45.166 4 65.499 12s36.5 20.333 48.5 37z" />
    <glyph glyph-name="b" unicode="b" horiz-adv-x="582" 
d="M543 241c0 -40 -5.33203 -75.668 -15.999 -107.001s-25.5 -57.833 -44.5 -79.5s-41.667 -38.167 -68 -49.5s-54.833 -17 -85.5 -17c-31.333 0 -60.166 6.83301 -86.499 20.5s-48.833 32.834 -67.5 57.501v-19c0 -14.667 -5.33301 -27.167 -16 -37.5
s-23.334 -15.5 -38.001 -15.5s-27.167 5.16699 -37.5 15.5s-15.5 22.833 -15.5 37.5v574c0 14 5.16699 26.167 15.5 36.5s23.5 15.5 39.5 15.5c14 0 26.167 -5.16699 36.5 -15.5s15.5 -22.5 15.5 -36.5v-204c19.333 25.333 42.166 44.666 68.499 57.999s54.833 20 85.5 20
s59.167 -5.83301 85.5 -17.5s49 -28.5 68 -50.5s33.833 -48.667 44.5 -80s16 -66.666 16 -105.999zM433.001 240.999c0 22.667 -3.16699 43.834 -9.5 63.501s-15.333 36.667 -27 51s-25.834 25.333 -42.501 33s-35.667 11.5 -57 11.5c-24 0 -47.5 -6.33301 -70.5 -19
s-40.167 -28 -51.5 -46v-189c11.333 -18 28.5 -33 51.5 -45s46.5 -18 70.5 -18c21.333 0 40.333 3.83301 57 11.5s30.834 18.5 42.501 32.5s20.667 30.667 27 50s9.5 40.666 9.5 63.999z" />
    <glyph glyph-name="c" unicode="c" horiz-adv-x="497" 
d="M459 75c0 -6 -1.33691 -11.8359 -4.00391 -17.5029s-6.66699 -10.834 -12 -15.501c-17.333 -16 -38.666 -29 -63.999 -39s-55.666 -15 -90.999 -15c-36.667 0 -70.334 6.33301 -101.001 19s-57 30.334 -79 53.001s-39.167 49.5 -51.5 80.5s-18.5 64.833 -18.5 101.5
s6.16699 70.334 18.5 101.001s29.5 57.334 51.5 80.001s48.333 40.334 79 53.001s64.334 19 101.001 19c18.667 0 36.334 -1.66699 53.001 -5s32 -7.83301 46 -13.5s26.5 -12.334 37.5 -20.001s19.833 -16.5 26.5 -26.5c4.66699 -6.66699 7 -14 7 -22
c0 -14 -5.33301 -25.167 -16 -33.5s-22 -12.5 -34 -12.5c-11.333 0 -21.666 3.33301 -30.999 10c-12.667 9.33301 -26 16.333 -40 21s-28.667 7 -44 7c-22 0 -41.833 -3.83301 -59.5 -11.5s-32.834 -18.5 -45.501 -32.5s-22.5 -30.833 -29.5 -50.5
s-10.5 -40.834 -10.5 -63.501c0 -23.333 3.5 -44.666 10.5 -63.999s16.833 -36.166 29.5 -50.499s27.834 -25.333 45.501 -33s37.5 -11.5 59.5 -11.5c32 0 60 9.66699 84 29c9.33301 6.66699 19.666 10 30.999 10c12.667 0 24.334 -4.33301 35.001 -13s16 -20 16 -34z" />
    <glyph glyph-name="d" unicode="d" horiz-adv-x="582" 
d="M514 47c0 -14.667 -5.16895 -27.166 -15.502 -37.499s-23.166 -15.5 -38.499 -15.5c-14.667 0 -27.167 5.16699 -37.5 15.5s-15.5 22.833 -15.5 37.5v19c-19.333 -24.667 -42.166 -43.834 -68.499 -57.501s-55.166 -20.5 -86.499 -20.5
c-30.667 0 -59.167 5.66699 -85.5 17s-49 27.833 -68 49.5s-33.833 48.167 -44.5 79.5s-16 67 -16 107c0 39.333 5.16699 74.666 15.5 105.999s25 58 44 80s41.667 38.833 68 50.5s55.166 17.5 86.499 17.5c30 0 58.5 -6.66699 85.5 -20s50.167 -32.666 69.5 -57.999v203
c0 14.667 5.16699 27.167 15.5 37.5s23.5 15.5 39.5 15.5c14 0 26.167 -5.16699 36.5 -15.5s15.5 -22.833 15.5 -37.5v-573zM406.998 146.001v190.002c-12 18 -29.5 33.167 -52.5 45.5s-46.833 18.5 -71.5 18.5c-20 0 -38.333 -3.83301 -55 -11.5
s-30.834 -18.667 -42.501 -33s-20.834 -31.333 -27.501 -51s-10 -40.834 -10 -63.501s3.33301 -43.834 10 -63.501s15.834 -36.5 27.501 -50.5s25.834 -24.833 42.501 -32.5s35 -11.5 55 -11.5c24.667 0 48.5 6 71.5 18s40.5 27 52.5 45z" />
    <glyph glyph-name="e" unicode="e" horiz-adv-x="557" 
d="M520 259c0 -14 -5.00293 -26.166 -15.0029 -36.499s-22.333 -15.5 -37 -15.5h-318c2 -18 6.83301 -35.167 14.5 -51.5s17.834 -30.5 30.501 -42.5s28 -21.5 46 -28.5s38.333 -10.5 61 -10.5c17.333 0 35.5 2.66699 54.5 8s36.833 13.333 53.5 24
c7.33301 4 14.666 6 21.999 6c10.667 0 20.834 -4 30.501 -12s14.5 -18.667 14.5 -32c0 -14 -6 -24.667 -18 -32c-24 -16.667 -50.167 -28.834 -78.5 -36.501s-58.166 -11.5 -89.499 -11.5c-36 0 -69.667 6 -101 18s-58.166 29.167 -80.499 51.5s-39.833 49 -52.5 80
s-19 65.833 -19 104.5c0 34.667 6 67.5 18 98.5s28.833 57.833 50.5 80.5s47.5 40.667 77.5 54s63 20 99 20c28.667 0 55 -4.16699 79 -12.5s45.5 -20 64.5 -35s35.5 -33 49.5 -54s24.667 -44.5 32 -70.5l8 -31.5c2.66699 -11 4 -21.833 4 -32.5zM416.997 281.001
c0 14 -2.66699 28.5 -8 43.5s-13.5 28.833 -24.5 41.5s-24.833 23 -41.5 31s-36.667 12 -60 12c-22.667 0 -42 -4 -58 -12s-29.5 -18.167 -40.5 -30.5s-19.5 -26 -25.5 -41s-9.33301 -29.833 -10 -44.5h268z" />
    <glyph glyph-name="f" unicode="f" horiz-adv-x="310" 
d="M354 623c0 -13.333 -4 -23.498 -12 -30.498s-16.667 -10.5 -26 -10.5c-7.33301 0 -14.666 1.66699 -21.999 5s-16.333 5 -27 5c-20.667 0 -36.834 -6.66699 -48.501 -20s-17.5 -33 -17.5 -59v-30h58c12.667 0 23.5 -4.66699 32.5 -14s13.5 -20.666 13.5 -33.999
c0 -12.667 -4.5 -23.5 -13.5 -32.5s-19.833 -13.5 -32.5 -13.5h-58v-342c0 -14.667 -5.33301 -27.167 -16 -37.5s-23.667 -15.5 -39 -15.5c-14.667 0 -27.167 5.16699 -37.5 15.5s-15.5 22.833 -15.5 37.5v342h-40c-12.667 0 -23.5 4.66699 -32.5 14
s-13.5 20.666 -13.5 33.999c0 12.667 4.5 23.5 13.5 32.5s19.833 13.5 32.5 13.5h40v30c0 51.333 14 91.5 42 120.5s65.333 43.5 112 43.5c14 0 27.333 -1.16699 40 -3.5s24 -5.83301 34 -10.5s18 -10.334 24 -17.001s9 -14.334 9 -23.001z" />
    <glyph glyph-name="g" unicode="g" horiz-adv-x="581" 
d="M513 26c0 -44 -7.33301 -80.333 -22 -109s-34 -51.334 -58 -68.001s-50.667 -28.334 -80 -35.001s-59 -10 -89 -10c-16 0 -32.833 1 -50.5 3s-34.834 5.33301 -51.501 10s-32.167 10.667 -46.5 18s-26.5 16.666 -36.5 27.999c-6 8 -9 17 -9 27
c0 12.667 4.5 23.334 13.5 32.001s19.833 13 32.5 13c8.66699 0 16.667 -2.33301 24 -7c18 -13.333 37.167 -22.666 57.5 -27.999s42.5 -8 66.5 -8c17.333 0 34.333 2 51 6s31.834 11.167 45.501 21.5s24.667 23.833 33 40.5s12.5 37.667 12.5 63v56
c-18.667 -24 -41.167 -43.167 -67.5 -57.5s-55.166 -21.5 -86.499 -21.5c-30.667 0 -59.167 5.33301 -85.5 16s-49 26.5 -68 47.5s-33.833 46.833 -44.5 77.5s-16 66 -16 106c0 39.333 5.16699 74.333 15.5 105s25 56.667 44 78s41.667 37.5 68 48.5
s55.166 16.5 86.499 16.5c30 0 58.333 -6.66699 85 -20s49.667 -32.666 69 -57.999v19c0 14.667 5.16699 27.167 15.5 37.5s23.5 15.5 39.5 15.5c14 0 26.167 -5.16699 36.5 -15.5s15.5 -22.833 15.5 -37.5v-410zM406 159v177c-6 8.66699 -13.5 16.834 -22.5 24.501
s-18.833 14.5 -29.5 20.5s-22.167 10.667 -34.5 14s-24.5 5 -36.5 5c-20 0 -38.333 -3.66699 -55 -11s-30.834 -17.666 -42.501 -30.999s-20.834 -29.333 -27.501 -48s-10 -39.667 -10 -63c0 -22.667 3.33301 -43.334 10 -62.001s15.834 -34.834 27.501 -48.501
s25.834 -24.167 42.501 -31.5s35 -11 55 -11c12 0 24.167 1.66699 36.5 5s23.833 8 34.5 14s20.5 12.833 29.5 20.5s16.5 16.167 22.5 25.5z" />
    <glyph glyph-name="h" unicode="h" horiz-adv-x="569" 
d="M502 47c0 -14.667 -5.33203 -27.166 -15.999 -37.499s-23.334 -15.5 -38.001 -15.5s-27.167 5.16699 -37.5 15.5s-15.5 22.833 -15.5 37.5v256c0 18.667 -2.5 34.167 -7.5 46.5s-11.5 22.166 -19.5 29.499s-18.167 12.666 -30.5 15.999s-25.833 5 -40.5 5
c-12.667 0 -25.167 -1.83301 -37.5 -5.5s-23.666 -8.5 -33.999 -14.5s-19.833 -12.833 -28.5 -20.5s-16 -15.5 -22 -23.5v-289c0 -14.667 -5.33301 -27.167 -16 -37.5s-23.334 -15.5 -38.001 -15.5s-27.167 5.16699 -37.5 15.5s-15.5 22.833 -15.5 37.5v574
c0 14 5.16699 26.167 15.5 36.5s23.5 15.5 39.5 15.5c14 0 26.167 -5.16699 36.5 -15.5s15.5 -22.5 15.5 -36.5v-204c8 10 17.667 19.5 29 28.5s24.5 17.333 39.5 25s31 13.667 48 18s35.167 6.5 54.5 6.5c52 0 91 -13.167 117 -39.5s39 -64.166 39 -113.499v-295v0z" />
    <glyph glyph-name="i" unicode="i" horiz-adv-x="242" 
d="M121 673c18 0 33.5 -6.33301 46.5 -19s19.5 -28 19.5 -46c0 -18.667 -6.5 -34.334 -19.5 -47.001s-28.5 -19 -46.5 -19s-33.5 6.33301 -46.5 19s-19.5 28.334 -19.5 47.001c0 18 6.5 33.333 19.5 46s28.5 19 46.5 19zM175 47c0 -14.667 -5.33203 -27.167 -15.999 -37.5
s-23.334 -15.5 -38.001 -15.5s-27.167 5.16699 -37.5 15.5s-15.5 22.833 -15.5 37.5v390c0 14 5.16699 26.167 15.5 36.5s23.5 15.5 39.5 15.5c14 0 26.167 -5.16699 36.5 -15.5s15.5 -22.5 15.5 -36.5v-390z" />
    <glyph glyph-name="j" unicode="j" horiz-adv-x="242" 
d="M121 673c18 0 33.5 -6.33301 46.5 -19s19.5 -28 19.5 -46c0 -18.667 -6.5 -34.334 -19.5 -47.001s-28.5 -19 -46.5 -19s-33.5 6.33301 -46.5 19s-19.5 28.334 -19.5 47.001c0 18 6.5 33.333 19.5 46s28.5 19 46.5 19zM175 -26c0 -52 -13.498 -93.333 -40.498 -124
s-67.167 -46 -120.5 -46c-15.333 0 -29.833 1 -43.5 3s-25.334 5.16699 -35.001 9.5s-17.334 10 -23.001 17s-8.5 15.5 -8.5 25.5c0 12 4.33301 22.167 13 30.5s18.667 12.5 30 12.5c7.33301 0 14.5 -1.66699 21.5 -5s16.5 -5 28.5 -5c20.667 0 37.667 6.5 51 19.5
s20 33.833 20 62.5v463c0 14 5.16699 26.167 15.5 36.5s23.5 15.5 39.5 15.5c14 0 26.167 -5.16699 36.5 -15.5s15.5 -22.5 15.5 -36.5v-463z" />
    <glyph glyph-name="k" unicode="k" horiz-adv-x="527" 
d="M472 48c0 -13.333 -4.83105 -25.668 -14.498 -37.001s-22.5 -17 -38.5 -17c-8 0 -16 1.66699 -24 5s-14.667 9 -20 17l-134 182l-66 -69v-82c0 -14.667 -5.33301 -27.167 -16 -37.5s-23.334 -15.5 -38.001 -15.5s-27.167 5.16699 -37.5 15.5s-15.5 22.833 -15.5 37.5v574
c0 14 5.16699 26.167 15.5 36.5s23.5 15.5 39.5 15.5c14 0 26.167 -5.16699 36.5 -15.5s15.5 -22.5 15.5 -36.5v-369l201 222c9.33301 10.667 21 16 35 16c13.333 0 25.166 -5.16699 35.499 -15.5s15.5 -22.166 15.5 -35.499c0 -12 -4 -22.667 -12 -32l-132 -143l144 -186
c6.66699 -9.33301 10 -19.333 10 -30z" />
    <glyph glyph-name="l" unicode="l" horiz-adv-x="242" 
d="M175 47c0 -14.667 -5.33203 -27.167 -15.999 -37.5s-23.334 -15.5 -38.001 -15.5s-27.167 5.16699 -37.5 15.5s-15.5 22.833 -15.5 37.5v574c0 14 5.16699 26.167 15.5 36.5s23.5 15.5 39.5 15.5c14 0 26.167 -5.16699 36.5 -15.5s15.5 -22.5 15.5 -36.5v-574v0z" />
    <glyph glyph-name="m" unicode="m" horiz-adv-x="835" 
d="M768 47c0 -14.667 -5.16406 -27.168 -15.4971 -37.501s-23.5 -15.5 -39.5 -15.5c-14 0 -26.333 5.16699 -37 15.5s-16 22.833 -16 37.5v267c0 25.333 -6 46 -18 62s-32 24 -60 24c-24 0 -45.833 -6.66699 -65.5 -20s-34.834 -27.666 -45.501 -42.999v-290
c0 -14.667 -5.16699 -27.167 -15.5 -37.5s-23.166 -15.5 -38.499 -15.5c-14.667 0 -27.167 5.16699 -37.5 15.5s-15.5 22.833 -15.5 37.5v267c0 25.333 -6.16699 46 -18.5 62s-32.5 24 -60.5 24c-23.333 0 -44.833 -6.83301 -64.5 -20.5s-34.834 -28.167 -45.501 -43.5v-289
c0 -14.667 -5.33301 -27.167 -16 -37.5s-23.334 -15.5 -38.001 -15.5s-27.167 5.16699 -37.5 15.5s-15.5 22.833 -15.5 37.5v390c0 14 5.16699 26.167 15.5 36.5s23.5 15.5 39.5 15.5c14 0 26.167 -5.16699 36.5 -15.5s15.5 -22.5 15.5 -36.5v-20
c4.66699 8 12.167 16.333 22.5 25s22.5 17 36.5 25s29.167 14.667 45.5 20s33.833 8 52.5 8c36.667 0 65.667 -8 87 -24s36.333 -37.667 45 -65c6.66699 10.667 15.667 21.5 27 32.5s24.166 20.667 38.499 29s30 15 47 20s34.5 7.5 52.5 7.5c44 0 78.167 -12 102.5 -36
s36.5 -60.667 36.5 -110v-302v0z" />
    <glyph glyph-name="n" unicode="n" 
d="M501 47c0 -14.667 -5.33008 -27.166 -15.9971 -37.499s-23.334 -15.5 -38.001 -15.5s-27.167 5.16699 -37.5 15.5s-15.5 22.833 -15.5 37.5v254c0 37.333 -8.83301 63.166 -26.5 77.499s-41.167 21.5 -70.5 21.5c-13.333 0 -26 -1.83301 -38 -5.5s-23.333 -8.5 -34 -14.5
s-20.334 -12.833 -29.001 -20.5s-15.667 -15.5 -21 -23.5v-289c0 -14.667 -5.33301 -27.167 -16 -37.5s-23.334 -15.5 -38.001 -15.5s-27.167 5.16699 -37.5 15.5s-15.5 22.833 -15.5 37.5v390c0 14 5.16699 26.167 15.5 36.5s23.5 15.5 39.5 15.5
c14 0 26.167 -5.16699 36.5 -15.5s15.5 -22.5 15.5 -36.5v-20c8 10 17.667 19.5 29 28.5s24.333 17.333 39 25s30.5 13.667 47.5 18s35.167 6.5 54.5 6.5c52 0 91 -13.5 117 -40.5s39 -65.167 39 -114.5v-293v0z" />
    <glyph glyph-name="o" unicode="o" horiz-adv-x="573" 
d="M536 242c0 -34.667 -5.66699 -67.334 -17 -98.001s-27.833 -57.5 -49.5 -80.5s-47.834 -41.333 -78.501 -55s-65.334 -20.5 -104.001 -20.5s-73.5 6.83301 -104.5 20.5s-57.167 32 -78.5 55s-37.666 49.833 -48.999 80.5s-17 63.334 -17 98.001
c0 34 5.66699 66.5 17 97.5s27.666 57.833 48.999 80.5s47.5 40.834 78.5 54.501s65.833 20.5 104.5 20.5s73.334 -6.83301 104.001 -20.5s56.834 -31.834 78.501 -54.501s38.167 -49.5 49.5 -80.5s17 -63.5 17 -97.5zM424 242c0 20.667 -3 40.667 -9 60
s-14.833 36.166 -26.5 50.499s-26 25.833 -43 34.5s-36.5 13 -58.5 13c-22.667 0 -42.5 -4.33301 -59.5 -13s-31.333 -20.167 -43 -34.5s-20.5 -31.166 -26.5 -50.499s-9 -39.333 -9 -60c0 -21.333 3 -41.666 9 -60.999s14.833 -36.166 26.5 -50.499s26 -25.833 43 -34.5
s36.833 -13 59.5 -13c22 0 41.5 4.33301 58.5 13s31.333 20.167 43 34.5s20.5 31.166 26.5 50.499s9 39.666 9 60.999z" />
    <glyph glyph-name="p" unicode="p" horiz-adv-x="579" 
d="M543 242c0 -40 -5.16699 -75.667 -15.5 -107s-25 -58 -44 -80s-41.667 -38.667 -68 -50s-55.166 -17 -86.499 -17c-30.667 0 -59.167 6.5 -85.5 19.5s-49.166 32.5 -68.499 58.5v-204c0 -14 -5.33301 -26.167 -16 -36.5s-23.334 -15.5 -38.001 -15.5
s-27.167 5.16699 -37.5 15.5s-15.5 22.5 -15.5 36.5v575c0 14 5.16699 26.167 15.5 36.5s23.5 15.5 39.5 15.5c14 0 26.167 -5.16699 36.5 -15.5s15.5 -22.5 15.5 -36.5v-19c18 24 40.333 42.833 67 56.5s55.667 20.5 87 20.5s60.166 -5.66699 86.499 -17
s49 -27.833 68 -49.5s33.667 -48.167 44 -79.5s15.5 -67 15.5 -107zM432 242c0 22.667 -3.16699 43.835 -9.5 63.502s-15.333 36.5 -27 50.5s-25.834 24.833 -42.501 32.5s-35.334 11.5 -56.001 11.5c-24 0 -47.5 -6.16699 -70.5 -18.5s-40.167 -27.5 -51.5 -45.5v-189
c11.333 -17.333 28.5 -32.333 51.5 -45s46.5 -19 70.5 -19c20.667 0 39.334 3.83301 56.001 11.5s30.834 18.667 42.501 33s20.667 31.166 27 50.499s9.5 40.666 9.5 63.999z" />
    <glyph glyph-name="q" unicode="q" horiz-adv-x="579" 
d="M511 -137c0 -14.667 -5.16797 -27.167 -15.501 -37.5s-23.166 -15.5 -38.499 -15.5c-14.667 0 -27.167 5.16699 -37.5 15.5s-15.5 22.833 -15.5 37.5v203c-19.333 -26 -42.333 -45.5 -69 -58.5s-55 -19.5 -85 -19.5c-32 0 -61 5.66699 -87 17s-48.5 28 -67.5 50
s-33.833 48.667 -44.5 80s-16 67 -16 107s5.33301 75.667 16 107s25.5 57.833 44.5 79.5s41.5 38.167 67.5 49.5s55 17 87 17c31.333 0 60.333 -6.83301 87 -20.5s49 -32.5 67 -56.5v18c0 14.667 5.16699 27.167 15.5 37.5s23.5 15.5 39.5 15.5
c14 0 26.167 -5.16699 36.5 -15.5s15.5 -22.833 15.5 -37.5v-573zM403.999 147v188.995c-6 9.33301 -13.333 17.833 -22 25.5s-18.5 14.334 -29.5 20.001s-22.667 10.167 -35 13.5s-24.5 5 -36.5 5c-20 0 -38.333 -3.83301 -55 -11.5s-30.834 -18.5 -42.501 -32.5
s-20.667 -30.833 -27 -50.5s-9.5 -40.834 -9.5 -63.501c0 -23.333 3.16699 -44.666 9.5 -63.999s15.333 -36.166 27 -50.499s25.834 -25.333 42.501 -33s35 -11.5 55 -11.5c12 0 24.167 1.83301 36.5 5.5s24 8.33398 35 14.001s20.833 12.334 29.5 20.001
s16 15.834 22 24.501z" />
    <glyph glyph-name="r" unicode="r" horiz-adv-x="348" 
d="M337 443c0 -16 -4.99902 -28.833 -14.999 -38.5s-22.333 -15.5 -37 -17.5c-21.333 -2 -41.833 -7.66699 -61.5 -17s-35.834 -23.333 -48.501 -42v-281c0 -14.667 -5.16699 -27.167 -15.5 -37.5s-22.833 -15.5 -37.5 -15.5h-2c-14.667 0 -27 5.16699 -37 15.5
s-15 22.833 -15 37.5v390c0 14 5.16699 26.167 15.5 36.5s23.5 15.5 39.5 15.5c14 0 26.167 -5.16699 36.5 -15.5s15.5 -22.5 15.5 -36.5v-25c6 8.66699 13 17.5 21 26.5s16.833 17.167 26.5 24.5s20.167 13.5 31.5 18.5s23.333 7.5 36 7.5c14.667 0 26.167 -4.5 34.5 -13.5
s12.5 -19.833 12.5 -32.5z" />
    <glyph glyph-name="s" unicode="s" horiz-adv-x="472" 
d="M435 140c0 -21.333 -4.33105 -41.334 -12.998 -60.001s-21.5 -34.667 -38.5 -48s-38.167 -24 -63.5 -32s-54 -12 -86 -12c-16.667 0 -34 1.33301 -52 4s-35.667 6.5 -53 11.5s-33.333 11.5 -48 19.5s-26.667 17.333 -36 28c-6.66699 7.33301 -10 16 -10 26
c0 12.667 4.66699 23.334 14 32.001s20 13 32 13c9.33301 0 17.333 -2.33301 24 -7c18.667 -12.667 39.667 -23 63 -31s46.666 -12 69.999 -12c32 0 55.667 6 71 18s23 27.333 23 46c0 15.333 -7.16699 27 -21.5 35s-32.333 14.667 -54 20s-45.167 10.666 -70.5 15.999
s-48.666 13.333 -69.999 24s-39.333 25 -54 43s-22 42.667 -22 74c0 19.333 4.33301 38 13 56s21.167 33.667 37.5 47s36.166 24 59.499 32s50.666 12 81.999 12c16 0 32.5 -1.16699 49.5 -3.5s33.167 -6 48.5 -11s29.333 -11.167 42 -18.5s23 -15.666 31 -24.999
c6 -6.66699 9 -14.667 9 -24c0 -11.333 -4.33301 -21 -13 -29s-18.667 -12 -30 -12c-8.66699 0 -16 2 -22 6c-15.333 10.667 -33 19 -53 25s-40.667 9 -62 9c-27.333 0 -48.833 -5.66699 -64.5 -17s-23.5 -25.333 -23.5 -42c0 -14 7.16699 -24.667 21.5 -32
s32.333 -13.5 54 -18.5l70 -16c25 -5.66699 48.333 -14 70 -25s39.667 -26 54 -45s21.5 -44.5 21.5 -76.5z" />
    <glyph glyph-name="t" unicode="t" horiz-adv-x="321" 
d="M311 40c0 -8 -1.83203 -15.166 -5.49902 -21.499s-9.5 -11.833 -17.5 -16.5s-18.167 -8.16699 -30.5 -10.5s-26.833 -3.5 -43.5 -3.5c-41.333 0 -72.5 10.667 -93.5 32s-31.5 52.333 -31.5 93v276h-40c-13.333 0 -24.333 4.66699 -33 14s-13 20.666 -13 33.999
c0 12.667 4.33301 23.5 13 32.5s19.667 13.5 33 13.5h40v85c0 14.667 5.16699 27.167 15.5 37.5s23.5 15.5 39.5 15.5c14 0 26.167 -5.16699 36.5 -15.5s15.5 -22.833 15.5 -37.5v-85h59c12.667 0 23.334 -4.66699 32.001 -14s13 -20.666 13 -33.999
c0 -12.667 -4.33301 -23.5 -13 -32.5s-19.334 -13.5 -32.001 -13.5h-59v-249c0 -18.667 4.5 -32.834 13.5 -42.501s19.833 -14.5 32.5 -14.5c3.33301 0 7.16602 0.5 11.499 1.5s7.83301 1.5 10.5 1.5c14.667 0 26.167 -4.5 34.5 -13.5s12.5 -19.833 12.5 -32.5z" />
    <glyph glyph-name="u" unicode="u" 
d="M501 47c0 -14.667 -5.33301 -27.166 -16 -37.499s-23.334 -15.5 -38.001 -15.5s-27.167 5.16699 -37.5 15.5s-15.5 22.833 -15.5 37.5v17c-18 -20 -41.333 -37.667 -70 -53s-62.334 -23 -101.001 -23c-52.667 0 -91.667 13.167 -117 39.5s-38 64.166 -38 113.499v296
c0 14 5.16699 26.167 15.5 36.5s23.5 15.5 39.5 15.5c14 0 26.167 -5.16699 36.5 -15.5s15.5 -22.5 15.5 -36.5v-257c0 -18 2.16699 -33.167 6.5 -45.5s10.833 -22.333 19.5 -30s18.834 -13.167 30.501 -16.5s24.834 -5 39.501 -5c26.667 0 50.667 6.33301 72 19
s38.333 27 51 43v292c0 14 5.16699 26.167 15.5 36.5s23.5 15.5 39.5 15.5c14 0 26.167 -5.16699 36.5 -15.5s15.5 -22.5 15.5 -36.5v-390v0z" />
    <glyph glyph-name="v" unicode="v" horiz-adv-x="504" 
d="M484 435c0 -6.66699 -1.33203 -12.668 -3.99902 -18.001l-152 -373c-6.66699 -14.667 -16.667 -26.667 -30 -36s-28.333 -14 -45 -14h-2c-16 0 -30.833 4.66699 -44.5 14s-23.834 21.333 -30.501 36l-152 373c-2.66699 6.66699 -4 13 -4 19c0 13.333 5 25.333 15 36
s23 16 39 16c10.667 0 20.5 -2.83301 29.5 -8.5s15.5 -13.5 19.5 -23.5l129 -332l128 331c4 10.667 10.5 18.834 19.5 24.501s18.833 8.5 29.5 8.5c16.667 0 30 -5.33301 40 -16s15 -23 15 -37z" />
    <glyph glyph-name="w" unicode="w" horiz-adv-x="756" 
d="M735 438c0 -4.66699 -1.00098 -9.66699 -3.00098 -15l-117 -378c-4.66699 -14.667 -13.334 -26.834 -26.001 -36.501s-27 -14.5 -43 -14.5h-2c-16 0 -30.333 4.66699 -43 14s-21.334 21.666 -26.001 36.999l-97 307l-97 -307
c-4.66699 -14.667 -13.5 -26.834 -26.5 -36.501s-27.5 -14.5 -43.5 -14.5h-2c-16 0 -30.167 4.83301 -42.5 14.5s-20.833 21.834 -25.5 36.501l-118 378c-1.33301 5.33301 -2 10.333 -2 15c0 12.667 4.83301 24.334 14.5 35.001s22.5 16 38.5 16
c11.333 0 21.833 -3.5 31.5 -10.5s16.167 -15.833 19.5 -26.5l92 -317l102 312c4.66699 12.667 12.167 22.834 22.5 30.501s22.833 11.5 37.5 11.5c12.667 0 24.334 -3.83301 35.001 -11.5s18.334 -17.834 23.001 -30.501l102 -312l92 317
c2.66699 10.667 8.83398 19.5 18.501 26.5s20.5 10.5 32.5 10.5c15.333 0 28 -5.16699 38 -15.5s15 -22.166 15 -35.499z" />
    <glyph glyph-name="x" unicode="x" horiz-adv-x="497" 
d="M451 43c0 -12 -4.33301 -23.166 -13 -33.499s-20.667 -15.5 -36 -15.5c-8 0 -15.5 1.66699 -22.5 5s-12.833 8.33301 -17.5 15l-113 162l-115 -162c-10 -13.333 -23 -20 -39 -20c-13.333 0 -25 4.83301 -35 14.5s-15 21.167 -15 34.5c0 10 3 19 9 27l127 178l-117 164
c-6 8.66699 -9 17.667 -9 27c0 12 4.66699 23.167 14 33.5s21.333 15.5 36 15.5c17.333 0 31 -7 41 -21l103 -146l100 145c4.66699 7.33301 10.667 12.833 18 16.5s15.333 5.5 24 5.5c14 0 25.833 -4.83301 35.5 -14.5s14.5 -20.834 14.5 -33.501c0 -10.667 -3 -20 -9 -28
l-117 -164l128 -178c5.33301 -8 8 -17 8 -27z" />
    <glyph glyph-name="y" unicode="y" horiz-adv-x="504" 
d="M484 437c0 -8 -1.33203 -14.666 -3.99902 -19.999l-206 -503c-16.667 -39.333 -38.5 -67.5 -65.5 -84.5s-57.5 -25.5 -91.5 -25.5c-9.33301 0 -18.166 1 -26.499 3s-15.833 4.83301 -22.5 8.5s-12 8.66699 -16 15s-6 13.5 -6 21.5c0 13.333 4.66699 24.666 14 33.999
s21.333 14 36 14c3.33301 0 6.66602 -0.166992 9.99902 -0.5s6.66602 -0.166016 9.99902 0.500977c12 0.666992 22.833 4.16699 32.5 10.5s17.5 16.166 23.5 29.499l24 54l-173 424c-2 5.33301 -3 11.333 -3 18c0 13.333 4.83301 25.5 14.5 36.5s22.834 16.5 39.501 16.5
c10.667 0 20.5 -3 29.5 -9s15.833 -14.667 20.5 -26l128 -330l128 330c4 10.667 10.667 19.167 20 25.5s19.666 9.5 30.999 9.5c16 0 28.833 -5.33301 38.5 -16s14.5 -22.667 14.5 -36z" />
    <glyph glyph-name="z" unicode="z" horiz-adv-x="476" 
d="M436 48c0 -13.333 -4.5 -24.666 -13.5 -33.999s-19.5 -14 -31.5 -14h-299c-14 0 -26.167 5.16699 -36.5 15.5s-15.5 23.5 -15.5 39.5c0 6 1 11.833 3 17.5s5 11.167 9 16.5l230 300h-196c-13.333 0 -24.333 4.66699 -33 14s-13 20.666 -13 33.999
c0 12.667 4.33301 23.5 13 32.5s19.667 13.5 33 13.5h295c12.667 0 24.167 -4.83301 34.5 -14.5s15.5 -22.167 15.5 -37.5c0 -13.333 -3.66699 -24.666 -11 -33.999l-233 -304h204c12 0 22.5 -4.33301 31.5 -13s13.5 -19.334 13.5 -32.001z" />
    <glyph glyph-name="braceleft" unicode="{" horiz-adv-x="277" 
d="M266 -153c0 -10 -3.33301 -18.6699 -10 -26.0029s-16.667 -11 -30 -11h-27c-18 0 -35.667 3.5 -53 10.5s-32.666 17 -45.999 30s-24 28.667 -32 47s-12 38.833 -12 61.5v185c0 14.667 -2.16699 27.5 -6.5 38.5s-11.5 18.833 -21.5 23.5
c-10 5.33301 -17.5 10.666 -22.5 15.999s-7.5 12.666 -7.5 21.999c0 10 2.5 17.5 7.5 22.5s12.5 10.167 22.5 15.5c10 4.66699 17.167 12.5 21.5 23.5s6.5 23.833 6.5 38.5v184c0 22.667 4 43.334 12 62.001s18.667 34.5 32 47.5s28.666 23 45.999 30s35 10.5 53 10.5h27
c13.333 0 23.333 -3.66699 30 -11s10 -16 10 -26s-3.33301 -18.5 -10 -25.5s-16.667 -10.5 -30 -10.5h-27c-17.333 0 -32.166 -7 -44.499 -21s-18.5 -32.667 -18.5 -56v-195c0 -21.333 -3.5 -39.666 -10.5 -54.999s-18.833 -26.666 -35.5 -33.999
c16.667 -7.33301 28.5 -18.666 35.5 -33.999s10.5 -33.666 10.5 -54.999v-195c0 -22.667 6.16699 -41.167 18.5 -55.5s27.166 -21.5 44.499 -21.5h27c13.333 0 23.333 -3.5 30 -10.5s10 -15.5 10 -25.5z" />
    <glyph glyph-name="bar" unicode="|" horiz-adv-x="214" 
d="M144 10c0 -9.33301 -3.5 -17.666 -10.5 -24.999s-15.833 -11 -26.5 -11c-10 0 -18.5 3.66699 -25.5 11s-10.5 15.666 -10.5 24.999v648c0 9.33301 3.5 17.5 10.5 24.5s16.167 10.5 27.5 10.5c10 0 18.333 -3.5 25 -10.5s10 -15.167 10 -24.5v-648v0z" />
    <glyph glyph-name="braceright" unicode="}" horiz-adv-x="277" 
d="M279 244c0 -10 -2.5 -17.4951 -7.5 -22.4951s-12.5 -10.167 -22.5 -15.5c-10 -4.66699 -17.167 -12.5 -21.5 -23.5s-6.5 -23.833 -6.5 -38.5v-185c0 -22.667 -4 -43.167 -12 -61.5s-18.667 -34 -32 -47s-28.5 -23 -45.5 -30s-34.833 -10.5 -53.5 -10.5h-26
c-14 0 -24.333 3.66699 -31 11s-10 16 -10 26s3.33301 18.5 10 25.5s17 10.5 31 10.5h26c17.333 0 32.333 7.16699 45 21.5s19 32.833 19 55.5v195c0 21.333 3.5 39.666 10.5 54.999s18.833 26.666 35.5 33.999c-16.667 7.33301 -28.5 18.666 -35.5 33.999
s-10.5 33.666 -10.5 54.999v195c0 23.333 -6.33301 42 -19 56s-27.667 21 -45 21h-26c-14 0 -24.333 3.5 -31 10.5s-10 15.833 -10 26.5c0 10 3.33301 18.5 10 25.5s17 10.5 31 10.5h26c18.667 0 36.5 -3.5 53.5 -10.5s32.167 -17 45.5 -30s24 -28.833 32 -47.5
s12 -39.334 12 -62.001v-184c0 -14.667 2.16699 -27.5 6.5 -38.5s11.5 -18.833 21.5 -23.5c10 -5.33301 17.5 -10.5 22.5 -15.5s7.5 -12.5 7.5 -22.5z" />
    <glyph glyph-name="asciitilde" unicode="~" horiz-adv-x="507" 
d="M477 622c-3.33301 -26.667 -7.99707 -52.499 -13.9971 -77.499s-14.333 -46.833 -25 -65.5s-24.334 -33.834 -41.001 -45.501s-37 -17.5 -61 -17.5c-21.333 0 -38.666 4.5 -51.999 13.5s-24.333 20.167 -33 33.5s-15.5 28 -20.5 44s-10.167 30.667 -15.5 44
s-11.166 24.5 -17.499 33.5s-15.166 13.5 -26.499 13.5c-9.33301 0 -17.5 -3.83301 -24.5 -11.5s-13.167 -18 -18.5 -31s-10 -28.333 -14 -46s-7 -36.5 -9 -56.5c-1.33301 -10 -5.33301 -18 -12 -24s-15 -9 -25 -9c-13.333 0 -23 4.16699 -29 12.5s-9 18.166 -9 29.499
c3.33301 26.667 8.16602 52.334 14.499 77.001s14.833 46.334 25.5 65.001s24.167 33.667 40.5 45s36.5 17 60.5 17c21.333 0 38.666 -4.5 51.999 -13.5s24.333 -20.333 33 -34s15.667 -28.167 21 -43.5l15.5 -44c5 -14 10.667 -25.333 17 -34s15.166 -13 26.499 -13
c9.33301 0 17.666 3.66699 24.999 11s13.666 17.666 18.999 30.999s9.83301 29 13.5 47s6.5 37.333 8.5 58c1.33301 9.33301 5.5 16.833 12.5 22.5s15.5 8.5 25.5 8.5c12 0 21.167 -4 27.5 -12s9.5 -17.333 9.5 -28z" />
    <glyph glyph-name="uni00A0" unicode="&#xa0;" horiz-adv-x="257" 
 />
    <glyph glyph-name="exclamdown" unicode="&#xa1;" horiz-adv-x="246" 
d="M193 423c-0.666992 -19.333 -7.66699 -36 -21 -50s-30 -21 -50 -21c-19.333 0 -36 7 -50 21s-21 30.667 -21 50c0 9.33301 2 18.333 6 27s9.16699 16.167 15.5 22.5s13.833 11.5 22.5 15.5s17.667 6 27 6s18.5 -2 27.5 -6s16.5 -9.16699 22.5 -15.5s11 -13.833 15 -22.5
s6 -17.667 6 -27zM186 -127c0 -17.333 -6.16797 -32 -18.501 -44s-27.166 -18 -44.499 -18c-18 0 -33 6 -45 18s-18 26.667 -18 44c0 2 0.333008 10.833 1 26.5l2.5 58.5c1 23.333 2 49 3 77l3 81.5c1 26.333 2 50.5 3 72.5s1.5 38.667 1.5 50
c0.666992 12.667 5.66699 23.334 15 32.001s20.666 13 33.999 13s24.333 -4.33301 33 -13s13.334 -19.334 14.001 -32.001c0.666992 -11.333 1.5 -28 2.5 -50s2 -46.167 3 -72.5s2.16699 -53.5 3.5 -81.5s2.5 -53.667 3.5 -77l2.5 -58.5c0.666992 -15.667 1 -24.5 1 -26.5z
" />
    <glyph glyph-name="cent" unicode="&#xa2;" horiz-adv-x="497" 
d="M459 75c0 -7.33301 -2.00098 -14.668 -6.00098 -22.001c-12 -16.667 -29.5 -30.5 -52.5 -41.5s-48.167 -18.167 -75.5 -21.5v-54c0 -10.667 -3.83301 -19.667 -11.5 -27s-16.834 -11 -27.501 -11c-12 0 -21.833 3.66699 -29.5 11s-11.5 16.333 -11.5 27v56
c-31.333 4 -59.5 13.167 -84.5 27.5s-46.833 32.5 -65.5 54.5s-32.834 47.167 -42.501 75.5s-14.5 59.166 -14.5 92.499c0 32.667 4.83301 63.167 14.5 91.5s23.834 53.333 42.501 75s40.5 39.834 65.5 54.501s53.167 24 84.5 28v38c0 10.667 3.83301 19.667 11.5 27
s17.5 11 29.5 11c10.667 0 19.834 -3.66699 27.501 -11s11.5 -16.333 11.5 -27v-36c28 -3.33301 53.333 -10.666 76 -21.999s39.667 -25.333 51 -42c4 -7.33301 6 -14.333 6 -21c0 -14 -5.33301 -25.167 -16 -33.5s-22 -12.5 -34 -12.5c-4 0 -7.5 0.5 -10.5 1.5
s-6.16699 2.16699 -9.5 3.5c-10.667 6.66699 -21 12.5 -31 17.5s-20.667 8.83301 -32 11.5v-309c11.333 2.66699 22 6.66699 32 12l31 17c5.33301 4 12 6 20 6c12.667 0 24.334 -4.33301 35.001 -13s16 -20 16 -34zM244.999 90.998v300.999
c-30 -10 -53.667 -28.167 -71 -54.5s-26 -58.166 -26 -95.499s8.66699 -69.333 26 -96s41 -45 71 -55z" />
    <glyph glyph-name="sterling" unicode="&#xa3;" horiz-adv-x="538" 
d="M517 55c0 -12 -3.82715 -22.167 -11.4941 -30.5s-17.667 -15.333 -30 -21s-26.5 -9.83398 -42.5 -12.501s-32.333 -4 -49 -4c-22 0 -40.667 2.33301 -56 7s-29.333 9.83398 -42 15.501s-25.334 10.834 -38.001 15.501s-27.334 7 -44.001 7
c-12 0 -25.5 -2.16699 -40.5 -6.5s-30.167 -10.166 -45.5 -17.499c-3.33301 -2 -6.83301 -3.16699 -10.5 -3.5s-7.16699 -0.5 -10.5 -0.5c-13.333 0 -24.333 4.33301 -33 13s-13 19.334 -13 32.001c0 8.66699 2 16.667 6 24s10.333 13.666 19 18.999
c28 16.667 49.667 35.334 65 56.001s23 42 23 64c0 10 -1.16699 19.667 -3.5 29s-5.5 18.666 -9.5 27.999h-101c-10 0 -18.333 3.5 -25 10.5s-10 15.5 -10 25.5c0 9.33301 3.33301 17.333 10 24s15 10 25 10h54c-7.33301 9.33301 -14.5 19 -21.5 29s-13.167 20.5 -18.5 31.5
s-9.66602 22.667 -12.999 35s-5 25.5 -5 39.5c0 30 6.66699 57.5 20 82.5s31 46.333 53 64s47 31.5 75 41.5s57.333 15 88 15c21.333 0 42.166 -2 62.499 -6s39.166 -9.66699 56.499 -17s32.666 -16.333 45.999 -27s23.666 -22.334 30.999 -35.001
c1.33301 -3.33301 2.5 -6.83301 3.5 -10.5s1.5 -7.5 1.5 -11.5c0 -15.333 -5.16699 -27.5 -15.5 -36.5s-22.833 -13.5 -37.5 -13.5c-11.333 0 -21 3 -29 9c-9.33301 5.33301 -18 11 -26 17s-16 11.333 -24 16s-16.5 8.66699 -25.5 12s-19.167 5 -30.5 5
c-16 0 -31.167 -2.5 -45.5 -7.5s-27.166 -12.167 -38.499 -21.5s-20 -20.666 -26 -33.999s-9 -28 -9 -44c0 -14.667 1.83301 -28 5.5 -40s8.5 -23.333 14.5 -34s12.667 -20.667 20 -30s14.333 -19 21 -29h118c9.33301 0 17.333 -3.5 24 -10.5s10 -15.5 10 -25.5
c0 -9.33301 -3.33301 -17.333 -10 -24s-14.667 -10 -24 -10h-88l2 -14c0.666992 -4.66699 1 -9.66699 1 -15c0 -26 -6.66699 -49.167 -20 -69.5s-29.333 -36.833 -48 -49.5c7.33301 2.66699 15.5 4.66699 24.5 6s17.5 2 25.5 2c15.333 0 28.5 -1.83301 39.5 -5.5
s21.667 -7.83398 32 -12.501s20.666 -8.83398 30.999 -12.501s21.833 -5.5 34.5 -5.5c7.33301 0 14.166 0.833008 20.499 2.5l18.5 5l17.5 5c5.66699 1.66699 11.167 2.5 16.5 2.5c13.333 0 25.833 -4.83301 37.5 -14.5s17.5 -22.5 17.5 -38.5z" />
    <glyph glyph-name="currency" unicode="&#xa4;" horiz-adv-x="613" 
d="M572 114c0 -11.333 -4.33398 -21.832 -13.001 -31.499s-19.667 -14.5 -33 -14.5c-12 0 -22.333 4.33301 -31 13l-48 46c-19.333 -12.667 -40.666 -22.167 -63.999 -28.5s-49 -9.5 -77 -9.5s-53.833 3.33301 -77.5 10s-45.167 16.334 -64.5 29.001l-45 -46
c-4.66699 -4.66699 -9.83398 -8 -15.501 -10s-11.167 -3 -16.5 -3c-11.333 0 -21.833 4.16699 -31.5 12.5s-14.5 18.833 -14.5 31.5s4.33301 23.334 13 32.001l46 46c-14 20 -24.5 42 -31.5 66s-10.5 49.333 -10.5 76s3.5 52 10.5 76s17.5 46 31.5 66l-47 48
c-8.66699 8.66699 -13 19 -13 31c0 11.333 4.33301 21.666 13 30.999s19.334 14 32.001 14s23.667 -4.33301 33 -13l48 -48c19.333 12 40.5 21.333 63.5 28s48.5 10 76.5 10s53.5 -3.33301 76.5 -10s44.167 -16 63.5 -28l49 48c8.66699 8.66699 19 13 31 13
c11.333 0 21.833 -4.33301 31.5 -13s14.5 -19.334 14.5 -32.001s-4.33301 -23.334 -13 -32.001l-46 -46c14 -20 24.667 -42.167 32 -66.5s11 -49.833 11 -76.5s-3.83301 -52.167 -11.5 -76.5s-18.5 -46.833 -32.5 -67.5l47 -45c8.66699 -8.66699 13 -18.667 13 -30z
M446.999 333.001c0 19.333 -3 38 -9 56s-15 33.667 -27 47s-26.833 24 -44.5 32s-37.834 12 -60.501 12c-22 0 -41.833 -4 -59.5 -12s-32.5 -18.667 -44.5 -32s-21 -29 -27 -47s-9 -36.667 -9 -56c0 -20 3 -38.833 9 -56.5s15 -33.334 27 -47.001s26.833 -24.5 44.5 -32.5
s37.5 -12 59.5 -12c22.667 0 42.834 4 60.501 12s32.5 18.833 44.5 32.5s21 29.334 27 47.001s9 36.5 9 56.5z" />
    <glyph glyph-name="yen" unicode="&#xa5;" horiz-adv-x="638" 
d="M622 151c0 -9.33301 -3.16602 -17.166 -9.49902 -23.499s-14.166 -9.5 -23.499 -9.5h-210v-65c0 -16.667 -5.83301 -30.667 -17.5 -42s-25.834 -17 -42.501 -17c-16 0 -29.833 5.66699 -41.5 17s-17.5 25.333 -17.5 42v65h-209c-9.33301 0 -17.333 3.33301 -24 10
s-10 15 -10 25c0 9.33301 3.33301 17.166 10 23.499s14.667 9.5 24 9.5h209v90h-209c-10 0 -18.167 3.33301 -24.5 10s-9.5 15.334 -9.5 26.001c0 9.33301 3.16699 17.166 9.5 23.499s14.5 9.5 24.5 9.5h163l-161 243c-6 8 -9 17.667 -9 29
c0 13.333 5.16699 25.833 15.5 37.5s24.166 17.5 41.499 17.5c9.33301 0 18.5 -2.33301 27.5 -7s16.167 -11 21.5 -19l169 -263l167 263c5.33301 8 12.333 14.333 21 19s18 7 28 7c16.667 0 30.334 -5.5 41.001 -16.5s16 -23.833 16 -38.5
c0 -10.667 -2.66699 -20.667 -8 -30l-160 -242h165c9.33301 0 17.166 -3.33301 23.499 -10s9.5 -15 9.5 -25s-3.16699 -18.167 -9.5 -24.5s-14.166 -9.5 -23.499 -9.5h-210v-90h210c9.33301 0 17.166 -3.33301 23.499 -10s9.5 -15 9.5 -25z" />
    <glyph glyph-name="brokenbar" unicode="&#xa6;" horiz-adv-x="214" 
d="M144 404c0 -10 -3.5 -18.667 -10.5 -26s-15.833 -11 -26.5 -11c-10 0 -18.5 3.66699 -25.5 11s-10.5 16 -10.5 26v251c0 10 3.5 18.5 10.5 25.5s16.167 10.5 27.5 10.5c10 0 18.333 -3.5 25 -10.5s10 -15.5 10 -25.5v-251zM144 13c0 -10 -3.5 -18.667 -10.5 -26
s-15.833 -11 -26.5 -11c-10 0 -18.5 3.66699 -25.5 11s-10.5 16 -10.5 26v251c0 10 3.5 18.5 10.5 25.5s16.167 10.5 27.5 10.5c10 0 18.333 -3.5 25 -10.5s10 -15.5 10 -25.5v-251z" />
    <glyph glyph-name="section" unicode="&#xa7;" horiz-adv-x="478" 
d="M435 72c0 -24.667 -5.00488 -46.499 -15.0049 -65.499s-23.833 -34.833 -41.5 -47.5s-39 -22.5 -64 -29.5s-51.833 -10.5 -80.5 -10.5c-20 0 -39.333 1.5 -58 4.5s-36 7.33301 -52 13s-30.667 12.5 -44 20.5s-24.333 16.667 -33 26c-6.66699 6.66699 -10 15 -10 25
c0 11.333 4 21.166 12 29.499s17.333 12.5 28 12.5c8.66699 0 16.334 -2.33301 23.001 -7c17.333 -13.333 37.5 -24.833 60.5 -34.5s47.5 -14.5 73.5 -14.5c29.333 0 53 5.83301 71 17.5s27 28.834 27 51.501c0 18 -7.16699 31.667 -21.5 41s-32.333 17 -54 23
s-45.167 12 -70.5 18s-48.666 14.167 -69.999 24.5s-39.333 24.5 -54 42.5s-22 42 -22 72c0 17.333 3.16699 33 9.5 47s14.333 26.167 24 36.5s20.834 19.166 33.501 26.499s25.334 13 38.001 17c-33.333 11.333 -59.166 27.166 -77.499 47.499s-27.5 45.833 -27.5 76.5
c0 20 4.66699 38.667 14 56s22.166 32.333 38.499 45s36.333 22.667 60 30s50.167 11 79.5 11c22 0 43.667 -2 65 -6s40.5 -9.5 57.5 -16.5s30.667 -15.333 41 -25s15.5 -20.167 15.5 -31.5s-3.66699 -20.833 -11 -28.5s-16.333 -11.5 -27 -11.5c-8 0 -15 2.33301 -21 7
c-17.333 12 -36.166 21 -56.499 27s-40.5 9 -60.5 9c-27.333 0 -49.333 -5.66699 -66 -17s-25 -27 -25 -47c0 -16 7.16699 -28 21.5 -36s32.333 -14.833 54 -20.5s45 -11.167 70 -16.5s48.333 -13.333 70 -24s39.667 -25.167 54 -43.5s21.5 -43.166 21.5 -74.499
c0 -28 -7.16699 -53 -21.5 -75s-35.833 -39.667 -64.5 -53c25.333 -10.667 46 -25.5 62 -44.5s24 -44.833 24 -77.5zM329.995 303.001c0 12 -2.66699 22.502 -8 31.502s-12.5 16.5 -21.5 22.5s-19.167 11 -30.5 15s-23 7.66699 -35 11
c-35.333 -8.66699 -59.333 -20.167 -72 -34.5s-19 -30.833 -19 -49.5c0 -12.667 3.5 -23.167 10.5 -31.5s16 -15.5 27 -21.5s23.5 -11 37.5 -15s28.333 -7.66699 43 -11c22 9.33301 38.833 20.666 50.5 33.999s17.5 29.666 17.5 48.999z" />
    <glyph glyph-name="dieresis" unicode="&#xa8;" horiz-adv-x="286" 
d="M308 608c0 -16.667 -6 -30.834 -18 -42.501s-26 -17.5 -42 -17.5c-16.667 0 -30.834 5.83301 -42.501 17.5s-17.5 25.834 -17.5 42.501s5.83301 30.667 17.5 42s25.834 17 42.501 17c16 0 30 -5.66699 42 -17s18 -25.333 18 -42zM97 608
c0 -16.667 -5.66699 -30.834 -17 -42.501s-25 -17.5 -41 -17.5c-17.333 0 -31.666 5.83301 -42.999 17.5s-17 25.834 -17 42.501s5.66699 30.667 17 42s25.666 17 42.999 17c16 0 29.667 -5.66699 41 -17s17 -25.333 17 -42z" />
    <glyph glyph-name="copyright" unicode="&#xa9;" horiz-adv-x="778" 
d="M734 334c0 -47.333 -9 -92 -27 -134s-42.667 -78.667 -74 -110s-67.833 -56 -109.5 -74s-86.5 -27 -134.5 -27c-47.333 0 -92 9 -134 27s-78.667 42.667 -110 74s-56 68 -74 110s-27 86.667 -27 134c0 48 9 92.833 27 134.5s42.667 78.167 74 109.5s68 56 110 74
s86.667 27 134 27c48 0 92.833 -9 134.5 -27s78.167 -42.667 109.5 -74s56 -67.833 74 -109.5s27 -86.5 27 -134.5zM700 334c0 42.667 -8.16699 82.834 -24.5 120.501s-38.666 70.667 -66.999 99s-61.333 50.666 -99 66.999s-77.834 24.5 -120.501 24.5
s-82.834 -8.16699 -120.501 -24.5s-70.667 -38.666 -99 -66.999s-50.666 -61.333 -66.999 -99s-24.5 -77.834 -24.5 -120.501s8.16699 -82.834 24.5 -120.501s38.666 -70.667 66.999 -99s61.333 -50.666 99 -66.999s77.834 -24.5 120.501 -24.5s82.834 8.16699 120.501 24.5
s70.667 38.666 99 66.999s50.666 61.333 66.999 99s24.5 77.834 24.5 120.501zM535 190c0 -5.33301 -1.66699 -9.67188 -5 -13.0049c-18 -17.333 -38.5 -30.833 -61.5 -40.5s-48.167 -14.5 -75.5 -14.5c-28.667 0 -55.667 5.5 -81 16.5s-47.333 26 -66 45
s-33.5 41.333 -44.5 67s-16.5 53.834 -16.5 84.501s5.5 58.834 16.5 84.501s25.833 48 44.5 67s40.667 33.667 66 44s52.333 15.5 81 15.5c27.333 0 52.5 -4.66699 75.5 -14s43.167 -22.666 60.5 -39.999c3.33301 -3.33301 5 -7.66602 5 -12.999
c0 -4.66699 -1.83301 -9.16699 -5.5 -13.5s-8.5 -6.5 -14.5 -6.5c-5.33301 0 -10 2 -14 6c-13.333 14 -29.5 24.833 -48.5 32.5s-38.5 11.5 -58.5 11.5c-22.667 0 -44 -4.33301 -64 -13s-37.5 -20.5 -52.5 -35.5s-27 -33.167 -36 -54.5s-13.5 -45 -13.5 -71
c0 -25.333 4.5 -48.666 13.5 -69.999s21 -39.833 36 -55.5s32.5 -27.834 52.5 -36.501s41.333 -13 64 -13c20.667 0 40.5 3.83301 59.5 11.5s35.167 18.834 48.5 33.501c3.33301 3.33301 8 5 14 5c4.66699 0 9.16699 -1.83301 13.5 -5.5s6.5 -8.5 6.5 -14.5z" />
    <glyph glyph-name="ordfeminine" unicode="&#xaa;" horiz-adv-x="382" 
d="M328 358c0 -10.667 -3.6709 -19.6689 -11.0039 -27.002s-16.666 -11 -27.999 -11c-10 -1.33301 -19 1.33398 -27 8.00098s-12 15.334 -12 26.001v5c-10.667 -11.333 -24.5 -21 -41.5 -29s-37.833 -12 -62.5 -12c-14 0 -27.5 2.16699 -40.5 6.5s-24.833 10.833 -35.5 19.5
s-19.167 19.5 -25.5 32.5s-9.5 28.167 -9.5 45.5s3.16699 32.333 9.5 45s14.833 23.167 25.5 31.5s22.5 14.666 35.5 18.999s26.5 6.5 40.5 6.5c24.667 0 45.5 -3.83301 62.5 -11.5s30.833 -17.167 41.5 -28.5v46c0 18 -7 32.167 -21 42.5s-31.333 15.5 -52 15.5
c-12.667 0 -25.667 -2.33301 -39 -7s-25.666 -11 -36.999 -19c-5.33301 -4 -10.666 -6 -15.999 -6c-6.66699 0 -13.334 2.83301 -20.001 8.5s-10 12.834 -10 21.501c0 6 1.66699 11.333 5 16c6.66699 8 15.334 15 26.001 21s22 10.833 34 14.5s24 6.33398 36 8.00098
s23 2.5 33 2.5c18 0 35.5 -2 52.5 -6s31.833 -10.5 44.5 -19.5s22.834 -21.333 30.501 -37s11.5 -34.834 11.5 -57.501v-170zM249.996 399.998v43.999c-8 10 -18.5 17.667 -31.5 23s-26.833 8 -41.5 8c-17.333 0 -32.333 -4.66699 -45 -14s-19 -22.333 -19 -39
c0 -17.333 6.33301 -30.666 19 -39.999s27.667 -14 45 -14c14.667 0 28.5 2.83301 41.5 8.5s23.5 13.5 31.5 23.5z" />
    <glyph glyph-name="guillemotleft" unicode="&#xab;" horiz-adv-x="493" 
d="M422 95c0 -9.33301 -3.50195 -18 -10.502 -26s-16.167 -12 -27.5 -12s-20.333 4 -27 12l-107 120c-6.66699 8 -11.667 16.5 -15 25.5s-5 18.167 -5 27.5c0 10 1.83301 19.667 5.5 29s8.83398 18 15.501 26l106 117c6.66699 7.33301 15.334 11 26.001 11
c10 0 18.833 -3.5 26.5 -10.5s11.5 -15.833 11.5 -26.5c0 -9.33301 -2.66699 -17.333 -8 -24l-110 -121l110 -123c6 -6.66699 9 -15 9 -25zM248.998 95c0 -9.33301 -3.33398 -18 -10.001 -26s-15.667 -12 -27 -12s-20.333 4 -27 12l-107 120
c-13.333 14.667 -20 32.334 -20 53.001s7 38.667 21 54l106 118c6.66699 7.33301 15.334 11 26.001 11c9.33301 0 18 -3.33301 26 -10s12 -15.334 12 -26.001c0 -10 -3 -18.333 -9 -25l-109 -121l109 -123c6 -6.66699 9 -15 9 -25z" />
    <glyph glyph-name="logicalnot" unicode="&#xac;" horiz-adv-x="511" 
d="M473 234c0 -10 -3.5 -18.333 -10.5 -25s-15.5 -10 -25.5 -10s-18.333 3.33301 -25 10s-10 15 -10 25v160h-345c-9.33301 0 -17.333 3.5 -24 10.5s-10 15.5 -10 25.5c0 9.33301 3.33301 17.333 10 24s14.667 10 24 10h344c20 0 37 -7.16699 51 -21.5s21 -31.5 21 -51.5
v-157v0z" />
    <glyph glyph-name="uni00AD" unicode="&#xad;" horiz-adv-x="300" 
d="M229 288c12.667 0 23.334 -4.33203 32.001 -12.999s13 -19.334 13 -32.001c0 -13.333 -4.33301 -24.5 -13 -33.5s-19.334 -13.5 -32.001 -13.5h-158c-12.667 0 -23.334 4.5 -32.001 13.5s-13 19.833 -13 32.5s4.33301 23.5 13 32.5s19.334 13.5 32.001 13.5h158v0z" />
    <glyph glyph-name="registered" unicode="&#xae;" horiz-adv-x="494" 
d="M459 465c0 -29.333 -5.5 -56.833 -16.5 -82.5s-26 -48.167 -45 -67.5s-41.5 -34.5 -67.5 -45.5s-53.667 -16.5 -83 -16.5s-56.833 5.5 -82.5 16.5s-48.167 26.167 -67.5 45.5s-34.5 41.833 -45.5 67.5s-16.5 53.167 -16.5 82.5s5.5 57 16.5 83s26.167 48.5 45.5 67.5
s41.833 34 67.5 45s53.167 16.5 82.5 16.5s57 -5.5 83 -16.5s48.5 -26 67.5 -45s34 -41.5 45 -67.5s16.5 -53.667 16.5 -83zM428 465c0 24.667 -4.66699 48.167 -14 70.5s-22.166 41.666 -38.499 57.999s-35.666 29.166 -57.999 38.499s-45.833 14 -70.5 14
c-25.333 0 -49 -4.66699 -71 -14s-41.167 -22.166 -57.5 -38.499s-29.333 -35.666 -39 -57.999s-14.5 -45.833 -14.5 -70.5s4.83301 -48.167 14.5 -70.5s22.667 -41.666 39 -57.999s35.5 -29.333 57.5 -39s45.667 -14.5 71 -14.5c24.667 0 48.167 4.83301 70.5 14.5
s41.666 22.667 57.999 39s29.166 35.666 38.499 57.999s14 45.833 14 70.5zM343 512c0 -13.333 -2.50195 -24.668 -7.50195 -34.001s-11 -16.833 -18 -22.5s-14 -9.66699 -21 -12s-12.167 -3.5 -15.5 -3.5l51 -74c2 -3.33301 3 -7 3 -11
c0 -4.66699 -1.66699 -8.66699 -5 -12s-7.66602 -5 -12.999 -5c-6 0 -11 3 -15 9l-60 92h-43v-86c0 -4.66699 -1.5 -8.5 -4.5 -11.5s-7.16699 -4.5 -12.5 -4.5c-4.66699 0 -8.5 1.5 -11.5 4.5s-4.5 6.83301 -4.5 11.5v203c0 8.66699 3 15.834 9 21.501s13.333 8.5 22 8.5h68
c20.667 0 38.834 -6.66699 54.501 -20s23.5 -31.333 23.5 -54zM308.998 511.998c0 13.333 -4.66699 24.167 -14 32.5s-19.333 12.5 -30 12.5h-66v-88h66c10.667 0 20.667 4 30 12s14 18.333 14 31z" />
    <glyph glyph-name="macron" unicode="&#xaf;" horiz-adv-x="363" 
d="M363 598c0 -9.33301 -3 -17 -9 -23s-13 -9 -21 -9h-303c-8 0 -15 3 -21 9s-9 13.667 -9 23c0 8.66699 3 16 9 22s13 9 21 9h303c8 0 15 -3 21 -9s9 -13.333 9 -22z" />
    <glyph glyph-name="degree" unicode="&#xb0;" horiz-adv-x="303" 
d="M281 546c0 -18 -3.33301 -34.833 -10 -50.5s-16 -29.334 -28 -41.001s-25.833 -20.834 -41.5 -27.501s-32.5 -10 -50.5 -10s-34.833 3.33301 -50.5 10s-29.5 15.834 -41.5 27.501s-21.333 25.334 -28 41.001s-10 32.5 -10 50.5s3.33301 35 10 51s16 30 28 42
s25.833 21.333 41.5 28s32.5 10 50.5 10s34.833 -3.33301 50.5 -10s29.5 -16 41.5 -28s21.333 -26 28 -42s10 -33 10 -51zM220 546c0 19.333 -6.83301 35.833 -20.5 49.5s-29.834 20.5 -48.501 20.5c-19.333 0 -35.5 -6.83301 -48.5 -20.5s-19.5 -30.167 -19.5 -49.5
c0 -18.667 6.5 -34.667 19.5 -48s29.167 -20 48.5 -20c18.667 0 34.834 6.66699 48.501 20s20.5 29.333 20.5 48z" />
    <glyph glyph-name="plusminus" unicode="&#xb1;" horiz-adv-x="502" 
d="M479 360c0 -10 -3.16699 -18.333 -9.5 -25s-14.166 -10 -23.499 -10h-157v-176c0 -10.667 -3.5 -19.667 -10.5 -27s-16.167 -11 -27.5 -11c-10.667 0 -19.5 3.66699 -26.5 11s-10.5 16.333 -10.5 27v176h-158c-9.33301 0 -17.166 3.33301 -23.499 10s-9.5 15 -9.5 25
c0 9.33301 3.16699 17.166 9.5 23.499s14.166 9.5 23.499 9.5h158v171c0 10 3.5 18.5 10.5 25.5s16.5 10.5 28.5 10.5c10 0 18.5 -3.5 25.5 -10.5s10.5 -15.5 10.5 -25.5v-171h157c9.33301 0 17.166 -3.16699 23.499 -9.5s9.5 -14.166 9.5 -23.499zM479 35
c0 -10 -3.16699 -18.333 -9.5 -25s-14.166 -10 -23.499 -10h-390c-9.33301 -0 -17.166 3.33301 -23.499 10s-9.5 15 -9.5 25c0 9.33301 3.16699 17.166 9.5 23.499s14.166 9.5 23.499 9.5h390c9.33301 0 17.166 -3.16699 23.499 -9.5s9.5 -14.166 9.5 -23.499z" />
    <glyph glyph-name="twosuperior" unicode="&#xb2;" horiz-adv-x="394" 
d="M359 456c0 -10 -3.16309 -18.335 -9.49609 -25.002s-13.833 -10 -22.5 -10h-254c-8.66699 0 -16 3.16699 -22 9.5s-9 14.5 -9 24.5c0 7.33301 1.5 13.833 4.5 19.5s7.5 10.834 13.5 15.501c38.667 26.667 71.334 50.167 98.001 70.5s48.167 38.833 64.5 55.5
s28.166 31.5 35.499 44.5s11 25.833 11 38.5c0 10.667 -2.16699 19.834 -6.5 27.501s-9.83301 14 -16.5 19s-14.5 8.83301 -23.5 11.5s-18.5 4 -28.5 4c-16.667 0 -32.834 -3 -48.501 -9s-29.834 -13.667 -42.501 -23c-6.66699 -4.66699 -13.667 -7 -21 -7
c-8.66699 0 -16.334 3 -23.001 9s-10 14 -10 24c0 8 2.33301 15 7 21c6.66699 8.66699 15.667 16.167 27 22.5s23.5 11.666 36.5 15.999s26.167 7.5 39.5 9.5s25.666 3 36.999 3c20.667 0 40.5 -2.5 59.5 -7.5s35.5 -12.667 49.5 -23s25 -23.166 33 -38.499s12 -33 12 -53
c0 -18 -4 -35.5 -12 -52.5s-19.833 -34.333 -35.5 -52s-35 -35.667 -58 -54l-77.5 -59.5h160c8.66699 0 16.167 -3.16699 22.5 -9.5s9.5 -13.5 9.5 -21.5z" />
    <glyph glyph-name="threesuperior" unicode="&#xb3;" horiz-adv-x="394" 
d="M355 531c0 -34.667 -14.502 -62.8301 -43.502 -84.4971s-67.833 -32.5 -116.5 -32.5c-16.667 0 -34 1.66699 -52 5s-34.5 8.16602 -49.5 14.499s-27.333 13.833 -37 22.5s-14.5 18 -14.5 28s3.5 18.333 10.5 25s15.167 10 24.5 10c6.66699 0 13 -2 19 -6
c14.667 -10.667 30.5 -18.834 47.5 -24.501s33.167 -8.5 48.5 -8.5c26 0 46 5.16699 60 15.5s21 23.833 21 40.5c0 22 -9 37 -27 45s-40.333 12 -67 12h-15c-8 0 -15.333 2.33301 -22 7s-10 13 -10 25c0 10.667 3.33301 18.667 10 24s14 8 22 8h14
c27.333 0 48.833 3.83301 64.5 11.5s23.5 21.167 23.5 40.5c0 17.333 -7.5 30.333 -22.5 39s-33.833 13 -56.5 13c-15.333 0 -30.666 -2.33301 -45.999 -7s-29.333 -12.334 -42 -23.001c-5.33301 -4.66699 -12 -7 -20 -7s-15.167 3 -21.5 9s-9.5 13.667 -9.5 23
c0 6.66699 2.33301 13 7 19c12.667 15.333 31.334 27.833 56.001 37.5s52.667 14.5 84 14.5c48 0 85.5 -9.83301 112.5 -29.5s40.5 -45.834 40.5 -78.501c0 -13.333 -2.5 -25.166 -7.5 -35.499s-11.667 -19.5 -20 -27.5s-17.833 -14.333 -28.5 -19s-21.667 -8 -33 -10
c10 -0.666992 20.667 -3.16699 32 -7.5s21.833 -10.5 31.5 -18.5s17.5 -17.833 23.5 -29.5s9 -25.167 9 -40.5z" />
    <glyph glyph-name="acute" unicode="&#xb4;" horiz-adv-x="241" 
d="M194 672c0 -10 -3.66699 -17.666 -11 -22.999l-105 -92c-6 -4.66699 -12 -7 -18 -7c-6.66699 0 -13 2.66699 -19 8s-9 12 -9 20c0 7.33301 2.33301 13.666 7 18.999l97 99c5.33301 6.66699 13 10 23 10c8.66699 0 16.667 -3.16699 24 -9.5s11 -14.5 11 -24.5z" />
    <glyph glyph-name="mu" unicode="&#xb5;" horiz-adv-x="582" 
d="M568 37c0 -13.333 -3.99609 -24.835 -11.9961 -34.502s-20.667 -14.5 -38 -14.5c-12.667 0 -25 1.16699 -37 3.5s-23.333 6.83301 -34 13.5s-20.334 15.5 -29.001 26.5s-15.334 25.167 -20.001 42.5c-14.667 -24 -34.334 -44.333 -59.001 -61s-52 -25 -82 -25
c-22.667 0 -40.5 3.5 -53.5 10.5s-22.5 15.5 -28.5 25.5v-162c0 -14 -5.33301 -26.167 -16 -36.5s-23.334 -15.5 -38.001 -15.5s-27.167 5.16699 -37.5 15.5s-15.5 22.5 -15.5 36.5v575c0 14 5.16699 26.167 15.5 36.5s23.5 15.5 39.5 15.5c14 0 26.167 -5.16699 36.5 -15.5
s15.5 -22.5 15.5 -36.5v-257c0 -35.333 8.66699 -60.5 26 -75.5s41 -22.5 71 -22.5c12.667 0 25 1.83301 37 5.5s23.333 8.33398 34 14.001s20.167 12.334 28.5 20.001s15.833 15.5 22.5 23.5v292c0 14 5.16699 26.167 15.5 36.5s23.5 15.5 39.5 15.5
c14 0 26.167 -5.16699 36.5 -15.5s15.5 -22.5 15.5 -36.5v-304c0 -16.667 3.5 -28.167 10.5 -34.5s14.667 -11.666 23 -15.999s16 -9.33301 23 -15s10.5 -15.834 10.5 -30.501z" />
    <glyph glyph-name="paragraph" unicode="&#xb6;" horiz-adv-x="449" 
d="M393 -79c0 -7.33301 -2.66602 -13.667 -7.99902 -19s-12 -8 -20 -8s-14.667 2.66699 -20 8s-8 11.666 -8 18.999v691h-82v-691c0 -7.33301 -2.66699 -13.666 -8 -18.999s-12 -8 -20 -8s-14.667 2.66699 -20 8s-8 11.666 -8 18.999v402c-24 0 -46.333 4.5 -67 13.5
s-38.834 21.333 -54.501 37s-28 33.834 -37 54.501s-13.5 43 -13.5 67s4.5 46.333 13.5 67s21.333 38.834 37 54.501s33.834 28 54.501 37s43 13.5 67 13.5h140c15.333 0 28.166 -5.33301 38.499 -16s15.5 -23.334 15.5 -38.001v-692v0z" />
    <glyph glyph-name="periodcentered" unicode="&#xb7;" horiz-adv-x="246" 
d="M194 244c0 -9.33301 -1.83008 -18.166 -5.49707 -26.499s-8.83398 -15.833 -15.501 -22.5s-14.334 -11.834 -23.001 -15.501s-17.667 -5.5 -27 -5.5c-10 0 -19.167 1.83301 -27.5 5.5s-15.833 8.83398 -22.5 15.501s-11.834 14.167 -15.501 22.5s-5.5 17.166 -5.5 26.499
c0 19.333 7 36 21 50s30.667 21 50 21s36 -7 50 -21s21 -30.667 21 -50z" />
    <glyph glyph-name="cedilla" unicode="&#xb8;" horiz-adv-x="215" 
d="M215 -111c0 -26 -10.668 -46.334 -32.001 -61.001s-46.666 -22 -75.999 -22c-11.333 0 -23.166 1 -35.499 3s-23.666 4.66699 -33.999 8s-18.833 7.66602 -25.5 12.999s-10 12 -10 20c0 6.66699 2.66699 12.5 8 17.5s11.333 7.5 18 7.5c3.33301 0 6.66602 -1 9.99902 -3
c10.667 -6 21.667 -10.5 33 -13.5s22 -4.5 32 -4.5c14.667 0 27.667 3 39 9s17 15.333 17 28c0 8.66699 -2.66699 15.667 -8 21s-13.333 8 -24 8c-8.66699 0 -16 -2.16699 -22 -6.5s-13 -6.5 -21 -6.5c-8.66699 0 -15.5 2.83301 -20.5 8.5s-7.5 11.834 -7.5 18.501v5
c0 1.33301 0.333008 3 1 5l21 54c2.66699 8 7.16699 14.333 13.5 19s13.166 7 20.499 7c6 0 11 -1.83301 15 -5.5s6 -8.16699 6 -13.5c0 -4 -1 -8 -3 -12l-18 -46c10.667 7.33301 22.667 11 36 11c19.333 0 35.333 -6.16699 48 -18.5s19 -29.166 19 -50.499z" />
    <glyph glyph-name="onesuperior" unicode="&#xb9;" horiz-adv-x="266" 
d="M206 456c0 -11.333 -3.8291 -21 -11.4961 -29s-17.834 -12 -30.501 -12c-11.333 0 -20.833 4 -28.5 12s-11.5 17.667 -11.5 29v259l-48 -49c-6.66699 -6.66699 -14.334 -10 -23.001 -10s-16.5 3.33301 -23.5 10s-10.5 15 -10.5 25c0 9.33301 3.33301 17.333 10 24l95 95
c5.33301 5.33301 11.166 9.33301 17.499 12s13.166 4 20.499 4c12.667 0 23.167 -4 31.5 -12s12.5 -17.667 12.5 -29v-329v0z" />
    <glyph glyph-name="ordmasculine" unicode="&#xba;" horiz-adv-x="405" 
d="M371 483c0 -22 -3.83301 -43 -11.5 -63s-18.834 -37.5 -33.501 -52.5s-32.5 -27 -53.5 -36s-44.5 -13.5 -70.5 -13.5s-49.333 4.5 -70 13.5s-38.334 21 -53.001 36s-25.834 32.5 -33.501 52.5s-11.5 41 -11.5 63s3.83301 43 11.5 63s18.834 37.5 33.501 52.5
s32.334 27 53.001 36s44 13.5 70 13.5s49.5 -4.5 70.5 -13.5s38.833 -21 53.5 -36s25.834 -32.5 33.501 -52.5s11.5 -41 11.5 -63zM290 483c0 30 -7.66699 54 -23 72s-37 27 -65 27s-49.5 -9 -64.5 -27s-22.5 -42 -22.5 -72s7.5 -54.333 22.5 -73s36.5 -28 64.5 -28
s49.667 9.33301 65 28s23 43 23 73z" />
    <glyph glyph-name="guillemotright" unicode="&#xbb;" horiz-adv-x="493" 
d="M435 242c0 -20 -6.66699 -37.667 -20 -53l-107 -120c-6.66699 -8 -15.667 -12 -27 -12c-9.33301 0 -18 3.66699 -26 11s-12 16.333 -12 27c0 10 3.33301 18.333 10 25l109 123l-109 121c-6 6.66699 -9 14.667 -9 24s3.33301 17.833 10 25.5s15.667 11.5 27 11.5
c10.667 0 19.667 -3.66699 27 -11l107 -118c13.333 -15.333 20 -33.333 20 -54zM263 242c0 -20 -6.66797 -37.667 -20.001 -53l-107 -120c-7.33301 -8 -16.333 -12 -27 -12c-10 0 -18.833 3.66699 -26.5 11s-11.5 16.333 -11.5 27c0 10 3 18.333 9 25l110 123l-110 121
c-5.33301 7.33301 -8 15.333 -8 24c0 9.33301 3.33301 17.833 10 25.5s15.667 11.5 27 11.5c10.667 0 19.667 -3.66699 27 -11l106 -117c6.66699 -8 11.834 -16.667 15.501 -26s5.5 -19 5.5 -29z" />
    <glyph glyph-name="onequarter" unicode="&#xbc;" horiz-adv-x="809" 
d="M785 125c0 -9.33301 -3.16602 -17.3359 -9.49902 -24.0029s-13.5 -10 -21.5 -10h-30v-57c0 -11.333 -4 -20.833 -12 -28.5s-17.667 -11.5 -29 -11.5s-20.833 3.83301 -28.5 11.5s-11.5 17.167 -11.5 28.5v57h-170c-8.66699 0 -16.167 3.33301 -22.5 10
s-9.5 15.334 -9.5 26.001c0 4.66699 1 9.33398 3 14.001s4.33301 9.33398 7 14.001l141 216c7.33301 11.333 16.5 20 27.5 26s23.5 9 37.5 9c9.33301 0 18 -1.66699 26 -5s15.167 -7.83301 21.5 -13.5s11.166 -12.5 14.499 -20.5s5 -16.333 5 -25v-186h30
c8 0 15.167 -3.16699 21.5 -9.5s9.5 -13.5 9.5 -21.5zM602.001 645.997c0 -5.33301 -1.33203 -10.333 -3.99902 -15l-400 -626c-6 -8 -13.667 -12 -23 -12c-8.66699 0 -15.834 2.66699 -21.501 8s-8.5 12 -8.5 20c0 5.33301 1.66699 10.333 5 15l399 626
c6 8.66699 14 13 24 13c8 0 14.833 -3 20.5 -9s8.5 -12.667 8.5 -20zM206.002 301.997c0 -11.333 -3.8291 -21 -11.4961 -29s-17.834 -12 -30.501 -12c-11.333 0 -20.833 4 -28.5 12s-11.5 17.667 -11.5 29v259l-48 -49c-6.66699 -6.66699 -14.334 -10 -23.001 -10
s-16.5 3.33301 -23.5 10s-10.5 15 -10.5 25c0 9.33301 3.33301 17.333 10 24l95 95c5.33301 5.33301 11.166 9.33301 17.499 12s13.166 4 20.499 4c12.667 0 23.167 -4 31.5 -12s12.5 -17.667 12.5 -29v-329zM643.006 155.997v174l-114 -174h114z" />
    <glyph glyph-name="onehalf" unicode="&#xbd;" horiz-adv-x="844" 
d="M808 35c0 -10 -3.16406 -18.3359 -9.49707 -25.0029s-13.833 -10 -22.5 -10h-253c-9.33301 0 -17 3.16699 -23 9.5s-9 14.5 -9 24.5c0 7.33301 1.66699 13.833 5 19.5s8 10.834 14 15.501l97 70.5c26.667 20.333 48.167 38.833 64.5 55.5s28.166 31.5 35.499 44.5
s11 25.833 11 38.5c0 10.667 -2 19.834 -6 27.501s-9.5 14 -16.5 19s-15 8.83301 -24 11.5s-18.5 4 -28.5 4c-16.667 0 -32.834 -3 -48.501 -9s-29.5 -13.667 -41.5 -23c-6.66699 -4.66699 -14 -7 -22 -7c-8.66699 0 -16.334 3 -23.001 9s-10 14 -10 24c0 8 2.33301 15 7 21
c7.33301 8.66699 16.666 16.167 27.999 22.5s23.333 11.666 36 15.999s25.834 7.5 39.501 9.5s25.834 3 36.501 3c21.333 0 41.333 -2.5 60 -7.5s35 -12.667 49 -23s25 -23.166 33 -38.499s12 -33 12 -53c0 -18 -4 -35.5 -12 -52.5s-19.833 -34.333 -35.5 -52
s-34.834 -35.667 -57.501 -54s-48.667 -38.166 -78 -59.499h160c8.66699 0 16.167 -3.16699 22.5 -9.5s9.5 -13.5 9.5 -21.5zM602.003 645.997c0 -5.33301 -1.33203 -10.333 -3.99902 -15l-400 -626c-6 -8 -13.667 -12 -23 -12c-8.66699 0 -15.834 2.66699 -21.501 8
s-8.5 12 -8.5 20c0 5.33301 1.66699 10.333 5 15l399 626c6 8.66699 14 13 24 13c8 0 14.833 -3 20.5 -9s8.5 -12.667 8.5 -20zM206.004 301.997c0 -11.333 -3.8291 -21 -11.4961 -29s-17.834 -12 -30.501 -12c-11.333 0 -20.833 4 -28.5 12s-11.5 17.667 -11.5 29v259
l-48 -49c-6.66699 -6.66699 -14.334 -10 -23.001 -10s-16.5 3.33301 -23.5 10s-10.5 15 -10.5 25c0 9.33301 3.33301 17.333 10 24l95 95c5.33301 5.33301 11.166 9.33301 17.499 12s13.166 4 20.499 4c12.667 0 23.167 -4 31.5 -12s12.5 -17.667 12.5 -29v-329z" />
    <glyph glyph-name="threequarters" unicode="&#xbe;" horiz-adv-x="904" 
d="M881 125c0 -9.33301 -3.16602 -17.3359 -9.49902 -24.0029s-13.5 -10 -21.5 -10h-30v-57c0 -11.333 -3.83301 -20.833 -11.5 -28.5s-17.5 -11.5 -29.5 -11.5c-11.333 0 -20.833 3.83301 -28.5 11.5s-11.5 17.167 -11.5 28.5v57h-170c-8.66699 0 -16.167 3.33301 -22.5 10
s-9.5 15.334 -9.5 26.001c0 4.66699 1 9.33398 3 14.001s4.33301 9.33398 7 14.001l141 216c7.33301 11.333 16.5 20 27.5 26s23.5 9 37.5 9c9.33301 0 18 -1.66699 26 -5s15.167 -7.83301 21.5 -13.5s11.166 -12.5 14.499 -20.5s5 -16.333 5 -25v-186h30
c8 0 15.167 -3.16699 21.5 -9.5s9.5 -13.5 9.5 -21.5zM697.001 645.997c0 -5.33301 -1.33203 -10.333 -3.99902 -15l-400 -626c-6 -8 -13.667 -12 -23 -12c-8.66699 0 -15.834 2.66699 -21.501 8s-8.5 12 -8.5 20c0 5.33301 1.66699 10.333 5 15l399 626
c6 8.66699 14 13 24 13c8 0 14.833 -3 20.5 -9s8.5 -12.667 8.5 -20zM355.002 376.997c0 -34.667 -14.502 -62.8301 -43.502 -84.4971s-67.833 -32.5 -116.5 -32.5c-16.667 0 -34 1.66699 -52 5s-34.5 8.16602 -49.5 14.499s-27.333 13.833 -37 22.5s-14.5 18 -14.5 28
s3.5 18.333 10.5 25s15.167 10 24.5 10c6.66699 0 13 -2 19 -6c14.667 -10.667 30.5 -18.834 47.5 -24.501s33.167 -8.5 48.5 -8.5c26 0 46 5.16699 60 15.5s21 23.833 21 40.5c0 22 -9 37 -27 45s-40.333 12 -67 12h-15c-8 0 -15.333 2.33301 -22 7s-10 13 -10 25
c0 10.667 3.33301 18.667 10 24s14 8 22 8h14c27.333 0 48.833 3.83301 64.5 11.5s23.5 21.167 23.5 40.5c0 17.333 -7.5 30.333 -22.5 39s-33.833 13 -56.5 13c-15.333 0 -30.666 -2.33301 -45.999 -7s-29.333 -12.334 -42 -23.001c-5.33301 -4.66699 -12 -7 -20 -7
s-15.167 3 -21.5 9s-9.5 13.667 -9.5 23c0 6.66699 2.33301 13 7 19c12.667 15.333 31.334 27.833 56.001 37.5s52.667 14.5 84 14.5c48 0 85.5 -9.83301 112.5 -29.5s40.5 -45.834 40.5 -78.501c0 -13.333 -2.5 -25.166 -7.5 -35.499s-11.667 -19.5 -20 -27.5
s-17.833 -14.333 -28.5 -19s-21.667 -8 -33 -10c10 -0.666992 20.667 -3.16699 32 -7.5s21.833 -10.5 31.5 -18.5s17.5 -17.833 23.5 -29.5s9 -25.167 9 -40.5zM739 156.001v174l-114 -174h114z" />
    <glyph glyph-name="questiondown" unicode="&#xbf;" horiz-adv-x="396" 
d="M304 422c0 -19.333 -7 -35.833 -21 -49.5s-30.667 -20.5 -50 -20.5s-36 6.83301 -50 20.5s-21 30.167 -21 49.5s7 36.166 21 50.499s30.667 21.5 50 21.5s36 -7.16699 50 -21.5s21 -31.166 21 -50.499zM429 -89c0 -9.33301 -2.33105 -18.0029 -6.99805 -26.0029
c-9.33301 -13.333 -21.333 -25 -36 -35s-30.834 -18.167 -48.501 -24.5s-36 -11.333 -55 -15s-37.167 -5.5 -54.5 -5.5c-32 0 -60.5 4 -85.5 12s-46.333 19 -64 33s-31.167 30.5 -40.5 49.5s-14 39.833 -14 62.5c0 24.667 4.5 45.834 13.5 63.501s20 33.167 33 46.5
s27.167 25.333 42.5 36s29.5 21 42.5 31s24 20.667 33 32s13.5 24.666 13.5 39.999c0 6.66699 -1.33301 12.334 -4 17.001s-4 10 -4 16c0 11.333 4 21.833 12 31.5s20 14.5 36 14.5c9.33301 0 18 -2.66699 26 -8s14.667 -12.166 20 -20.499s9.66602 -17.833 12.999 -28.5
s5 -21.667 5 -33c0 -20.667 -4 -38.334 -12 -53.001s-17.833 -27.667 -29.5 -39s-24.334 -21.666 -38.001 -30.999s-26.5 -18.666 -38.5 -27.999s-21.833 -19.333 -29.5 -30s-11.5 -23 -11.5 -37c0 -19.333 7.33301 -36 22 -50s38.334 -21 71.001 -21
c21.333 0 40.5 3.5 57.5 10.5s32.5 16.5 46.5 28.5c10 7.33301 21.667 11 35 11s25 -4.5 35 -13.5s15 -21.167 15 -36.5z" />
    <glyph glyph-name="Agrave" unicode="&#xc0;" horiz-adv-x="674" 
d="M646 58c0 -15.333 -5.82812 -29.833 -17.4951 -43.5s-27.167 -20.5 -46.5 -20.5c-12.667 0 -24.334 3.5 -35.001 10.5s-18.334 16.5 -23.001 28.5l-35 93h-304l-36 -93c-4.66699 -12 -12.334 -21.5 -23.001 -28.5s-22.334 -10.5 -35.001 -10.5
c-19.333 0 -34.833 6.5 -46.5 19.5s-17.5 27.833 -17.5 44.5c0 8.66699 1.66699 16 5 22l208 530c7.33301 18.667 19.666 33.834 36.999 45.501s36 17.5 56 17.5c21.333 1.33301 41.333 -3.83398 60 -15.501s32 -27.5 40 -47.5l209 -530c2.66699 -8 4 -15.333 4 -22z
M455.005 232l-118 315l-119 -315h237zM367.005 745c0 -7.33301 -2.66699 -13.834 -8 -19.501s-12 -8.5 -20 -8.5c-6 0 -12 2.33301 -18 7l-106 92c-6.66699 5.33301 -10 13 -10 23c0 8.66699 3.33301 16.5 10 23.5s14.667 10.5 24 10.5s17.333 -3.33301 24 -10l96 -99
c5.33301 -5.33301 8 -11.666 8 -18.999z" />
    <glyph glyph-name="Aacute" unicode="&#xc1;" horiz-adv-x="674" 
d="M646 58c0 -15.333 -5.82812 -29.833 -17.4951 -43.5s-27.167 -20.5 -46.5 -20.5c-12.667 0 -24.334 3.5 -35.001 10.5s-18.334 16.5 -23.001 28.5l-35 93h-304l-36 -93c-4.66699 -12 -12.334 -21.5 -23.001 -28.5s-22.334 -10.5 -35.001 -10.5
c-19.333 0 -34.833 6.5 -46.5 19.5s-17.5 27.833 -17.5 44.5c0 8.66699 1.66699 16 5 22l208 530c7.33301 18.667 19.666 33.834 36.999 45.501s36 17.5 56 17.5c21.333 1.33301 41.333 -3.83398 60 -15.501s32 -27.5 40 -47.5l209 -530c2.66699 -8 4 -15.333 4 -22z
M455.005 232l-118 315l-119 -315h237zM470.005 839c0 -10 -3.66699 -17.666 -11 -22.999l-105 -92c-6 -4.66699 -12 -7 -18 -7c-6.66699 0 -13 2.66699 -19 8s-9 12 -9 20c0 7.33301 2.33301 13.666 7 18.999l97 99c5.33301 6.66699 13 10 23 10
c8.66699 0 16.667 -3.16699 24 -9.5s11 -14.5 11 -24.5z" />
    <glyph glyph-name="Acircumflex" unicode="&#xc2;" horiz-adv-x="674" 
d="M646 58c0 -15.333 -5.82812 -29.833 -17.4951 -43.5s-27.167 -20.5 -46.5 -20.5c-12.667 0 -24.334 3.5 -35.001 10.5s-18.334 16.5 -23.001 28.5l-35 93h-304l-36 -93c-4.66699 -12 -12.334 -21.5 -23.001 -28.5s-22.334 -10.5 -35.001 -10.5
c-19.333 0 -34.833 6.5 -46.5 19.5s-17.5 27.833 -17.5 44.5c0 8.66699 1.66699 16 5 22l208 530c7.33301 18.667 19.666 33.834 36.999 45.501s36 17.5 56 17.5c21.333 1.33301 41.333 -3.83398 60 -15.501s32 -27.5 40 -47.5l209 -530c2.66699 -8 4 -15.333 4 -22z
M455.005 232l-118 315l-119 -315h237zM461.005 745c0 -6 -2.5 -12.332 -7.5 -18.999s-12.167 -10 -21.5 -10s-16.666 3.66699 -21.999 11l-73 92l-72 -92c-6 -6.66699 -13 -10 -21 -10s-15 2.5 -21 7.5s-9 11.5 -9 19.5c0 5.33301 1.66699 10.666 5 15.999l49 76
c7.33301 11.333 17.166 20.333 29.499 27s25.833 10 40.5 10c13.333 0 26 -3.33301 38 -10s22 -15.667 30 -27l51 -76c2.66699 -4 4 -9 4 -15z" />
    <glyph glyph-name="Atilde" unicode="&#xc3;" horiz-adv-x="674" 
d="M646 58c0 -15.333 -5.82812 -29.833 -17.4951 -43.5s-27.167 -20.5 -46.5 -20.5c-12.667 0 -24.334 3.5 -35.001 10.5s-18.334 16.5 -23.001 28.5l-35 93h-304l-36 -93c-4.66699 -12 -12.334 -21.5 -23.001 -28.5s-22.334 -10.5 -35.001 -10.5
c-19.333 0 -34.833 6.5 -46.5 19.5s-17.5 27.833 -17.5 44.5c0 8.66699 1.66699 16 5 22l208 530c7.33301 18.667 19.666 33.834 36.999 45.501s36 17.5 56 17.5c21.333 1.33301 41.333 -3.83398 60 -15.501s32 -27.5 40 -47.5l209 -530c2.66699 -8 4 -15.333 4 -22z
M455.005 232l-118 315l-119 -315h237zM497.005 831c-0.666992 -11.333 -2.83008 -23.498 -6.49707 -36.498s-9.5 -24.833 -17.5 -35.5s-18.333 -19.667 -31 -27s-28.334 -11 -47.001 -11c-17.333 0 -31.333 4 -42 12s-20 16.833 -28 26.5l-22.5 26.5
c-7 8 -15.833 12 -26.5 12c-9.33301 0 -17.333 -3.66699 -24 -11s-11.334 -19.333 -14.001 -36c-1.33301 -8 -5.33301 -14.667 -12 -20s-14 -8 -22 -8s-14.167 2.66699 -18.5 8s-6.5 11.666 -6.5 18.999c0 11.333 1.83301 23.666 5.5 36.999s9.66699 25.333 18 36
s18.833 19.667 31.5 27s28.334 11 47.001 11c17.333 0 31.166 -4 41.499 -12s19.5 -16.833 27.5 -26.5s15.667 -18.5 23 -26.5s16 -12 26 -12c9.33301 0 17.333 3.66699 24 11s11.667 19.333 15 36c1.33301 8 5.16602 14.667 11.499 20s13.5 8 21.5 8
c8.66699 0 15.167 -2.83301 19.5 -8.5s6.5 -12.167 6.5 -19.5z" />
    <glyph glyph-name="Adieresis" unicode="&#xc4;" horiz-adv-x="674" 
d="M646 58c0 -15.333 -5.82812 -29.833 -17.4951 -43.5s-27.167 -20.5 -46.5 -20.5c-12.667 0 -24.334 3.5 -35.001 10.5s-18.334 16.5 -23.001 28.5l-35 93h-304l-36 -93c-4.66699 -12 -12.334 -21.5 -23.001 -28.5s-22.334 -10.5 -35.001 -10.5
c-19.333 0 -34.833 6.5 -46.5 19.5s-17.5 27.833 -17.5 44.5c0 8.66699 1.66699 16 5 22l208 530c7.33301 18.667 19.666 33.834 36.999 45.501s36 17.5 56 17.5c21.333 1.33301 41.333 -3.83398 60 -15.501s32 -27.5 40 -47.5l209 -530c2.66699 -8 4 -15.333 4 -22z
M455.005 232l-118 315l-119 -315h237zM503.005 775c0 -16.667 -6 -30.834 -18 -42.501s-26 -17.5 -42 -17.5c-16.667 0 -30.834 5.83301 -42.501 17.5s-17.5 25.834 -17.5 42.501s5.83301 30.667 17.5 42s25.834 17 42.501 17c16 0 30 -5.66699 42 -17s18 -25.333 18 -42z
M292.005 775c0 -16.667 -5.66699 -30.834 -17 -42.501s-25 -17.5 -41 -17.5c-17.333 0 -31.666 5.83301 -42.999 17.5s-17 25.834 -17 42.501s5.66699 30.667 17 42s25.666 17 42.999 17c16 0 29.667 -5.66699 41 -17s17 -25.333 17 -42z" />
    <glyph glyph-name="Aring" unicode="&#xc5;" horiz-adv-x="674" 
d="M646 58c0 -15.333 -5.82812 -29.833 -17.4951 -43.5s-27.167 -20.5 -46.5 -20.5c-12.667 0 -24.334 3.5 -35.001 10.5s-18.334 16.5 -23.001 28.5l-35 93h-304l-36 -93c-4.66699 -12 -12.334 -21.5 -23.001 -28.5s-22.334 -10.5 -35.001 -10.5
c-19.333 0 -34.833 6.5 -46.5 19.5s-17.5 27.833 -17.5 44.5c0 8.66699 1.66699 16 5 22l208 530c7.33301 18.667 19.666 33.834 36.999 45.501s36 17.5 56 17.5c21.333 1.33301 41.333 -3.83398 60 -15.501s32 -27.5 40 -47.5l209 -530c2.66699 -8 4 -15.333 4 -22z
M455.005 232l-118 315l-119 -315h237zM439.005 791c0 -14 -2.66699 -27.333 -8 -40s-12.5 -23.667 -21.5 -33s-19.667 -16.5 -32 -21.5s-25.833 -7.5 -40.5 -7.5c-13.333 0 -26.333 2.5 -39 7.5s-23.667 12.167 -33 21.5s-16.666 20.333 -21.999 33s-8 26 -8 40
s2.66699 27.167 8 39.5s12.666 23.333 21.999 33s20.333 17.167 33 22.5s25.667 8 39 8c14.667 0 28.167 -2.66699 40.5 -8s23 -12.833 32 -22.5s16.167 -20.667 21.5 -33s8 -25.5 8 -39.5zM388.005 791c0 14.667 -4.83301 27 -14.5 37s-21.834 15 -36.501 15
c-14 0 -26 -5 -36 -15s-15 -22.333 -15 -37c0 -14 5 -26.167 15 -36.5s22 -15.5 36 -15.5c14.667 0 26.834 5.16699 36.501 15.5s14.5 22.5 14.5 36.5z" />
    <glyph glyph-name="AE" unicode="&#xc6;" horiz-adv-x="960" 
d="M919 54c0 -15.333 -4.99902 -28.166 -14.999 -38.499s-22 -15.5 -36 -15.5h-341c-20 0 -37 7 -51 21s-21 31 -21 51v54h-246l-63 -105c-4.66699 -8.66699 -11.334 -15.167 -20.001 -19.5s-17.667 -6.5 -27 -6.5c-16.667 0 -30.667 5.83301 -42 17.5s-17 25.167 -17 40.5
c0 11.333 3 21.666 9 30.999l320 522c12 18.667 28 33.5 48 44.5s40.667 16.5 62 16.5h389c14 0 26 -5.16699 36 -15.5s15 -22.833 15 -37.5s-5 -27 -15 -37s-22 -15 -36 -15h-293v-170h286c14 0 26 -5.16699 36 -15.5s15 -22.833 15 -37.5s-5 -27 -15 -37s-22 -15 -36 -15
h-286v-182h293c14 0 26 -5 36 -15s15 -22 15 -36zM455.001 232v315l-188 -315h188z" />
    <glyph glyph-name="Ccedilla" unicode="&#xc7;" horiz-adv-x="683" 
d="M391 678c54.667 0 101.171 -9.99219 139.504 -29.9922s70.166 -44.667 95.499 -74c8.66699 -10.667 13 -22.334 13 -35.001c0 -15.333 -5.5 -28.333 -16.5 -39s-24.5 -16 -40.5 -16c-7.33301 0 -14.833 1.66699 -22.5 5s-14.5 8 -20.5 14
c-19.333 21.333 -42 38.166 -68 50.499s-52.667 18.5 -80 18.5c-32.667 0 -62.834 -6 -90.501 -18s-51.667 -28.667 -72 -50s-36.333 -46.5 -48 -75.5s-17.5 -60.833 -17.5 -95.5s5.83301 -66.667 17.5 -96s27.667 -54.5 48 -75.5s44.333 -37.5 72 -49.5
s57.834 -18 90.501 -18c28 0 54.833 5.83301 80.5 17.5s48.167 28.5 67.5 50.5c6 6 12.833 10.667 20.5 14s15.5 5 23.5 5c16 0 29.167 -5.33301 39.5 -16s15.5 -23.334 15.5 -38.001c0 -6.66699 -1 -12.834 -3 -18.501s-5 -11.167 -9 -16.5
c-24.667 -28 -54.834 -51.667 -90.501 -71s-79.167 -30 -130.5 -32l-15 -40c10.667 6.66699 22.667 10 36 10c18.667 0 34.5 -6.16699 47.5 -18.5s19.5 -28.833 19.5 -49.5c0 -26 -10.667 -46.5 -32 -61.5s-47 -22.5 -77 -22.5c-11.333 0 -23 1 -35 3
s-23.167 4.83301 -33.5 8.5s-18.833 8.16699 -25.5 13.5s-10 12 -10 20c0 6.66699 2.5 12.334 7.5 17.001s10.833 7 17.5 7c4 0 7.66699 -0.666992 11 -2c10.667 -6 21.667 -10.5 33 -13.5s22 -4.5 32 -4.5c14.667 0 27.667 3 39 9s17 15 17 27
c0 9.33301 -2.83301 16.666 -8.5 21.999s-13.834 8 -24.501 8c-8 0 -15 -2.33301 -21 -7s-13 -7 -21 -7c-8.66699 0 -15.667 2.83301 -21 8.5s-8 12.167 -8 19.5c0 1.33301 0.166992 2.66602 0.5 3.99902s0.833008 3 1.5 5l16 46c-44 4 -85 15.167 -123 33.5
s-70.833 42.333 -98.5 72s-49.334 64.667 -65.001 105s-23.5 84.166 -23.5 131.499c0 51.333 9 98.166 27 140.499s42.667 78.666 74 108.999s68.333 53.833 111 70.5s88.667 25 138 25z" />
    <glyph glyph-name="Egrave" unicode="&#xc8;" horiz-adv-x="578" 
d="M535 54c0 -15.333 -5 -28.167 -15 -38.5s-22 -15.5 -36 -15.5h-341c-20 0 -37 7 -51 21s-21 31 -21 51v523c0 20 7 37 21 51s31 21 51 21h341c14 0 26 -5.16699 36 -15.5s15 -22.833 15 -37.5s-5 -27 -15 -37s-22 -15 -36 -15h-294v-170h287c14 0 26 -5.16699 36 -15.5
s15 -22.833 15 -37.5s-5 -27 -15 -37s-22 -15 -36 -15h-287v-182h294c14 0 26 -5 36 -15s15 -22 15 -36zM328 744.999c0 -7.33301 -2.66699 -13.834 -8 -19.501s-12 -8.5 -20 -8.5c-6 0 -12 2.33301 -18 7l-106 92c-6.66699 5.33301 -10 13 -10 23
c0 8.66699 3.33301 16.5 10 23.5s14.667 10.5 24 10.5s17.333 -3.33301 24 -10l96 -99c5.33301 -5.33301 8 -11.666 8 -18.999z" />
    <glyph glyph-name="Eacute" unicode="&#xc9;" horiz-adv-x="578" 
d="M535 54c0 -15.333 -5 -28.167 -15 -38.5s-22 -15.5 -36 -15.5h-341c-20 0 -37 7 -51 21s-21 31 -21 51v523c0 20 7 37 21 51s31 21 51 21h341c14 0 26 -5.16699 36 -15.5s15 -22.833 15 -37.5s-5 -27 -15 -37s-22 -15 -36 -15h-294v-170h287c14 0 26 -5.16699 36 -15.5
s15 -22.833 15 -37.5s-5 -27 -15 -37s-22 -15 -36 -15h-287v-182h294c14 0 26 -5 36 -15s15 -22 15 -36zM432 838.999c0 -10 -3.66699 -17.666 -11 -22.999l-105 -92c-6 -4.66699 -12 -7 -18 -7c-6.66699 0 -13 2.66699 -19 8s-9 12 -9 20
c0 7.33301 2.33301 13.666 7 18.999l97 99c5.33301 6.66699 13 10 23 10c8.66699 0 16.667 -3.16699 24 -9.5s11 -14.5 11 -24.5z" />
    <glyph glyph-name="Ecircumflex" unicode="&#xca;" horiz-adv-x="578" 
d="M535 54c0 -15.333 -5 -28.167 -15 -38.5s-22 -15.5 -36 -15.5h-341c-20 0 -37 7 -51 21s-21 31 -21 51v523c0 20 7 37 21 51s31 21 51 21h341c14 0 26 -5.16699 36 -15.5s15 -22.833 15 -37.5s-5 -27 -15 -37s-22 -15 -36 -15h-294v-170h287c14 0 26 -5.16699 36 -15.5
s15 -22.833 15 -37.5s-5 -27 -15 -37s-22 -15 -36 -15h-287v-182h294c14 0 26 -5 36 -15s15 -22 15 -36zM422 744.999c0 -6 -2.5 -12.332 -7.5 -18.999s-12.167 -10 -21.5 -10s-16.666 3.66699 -21.999 11l-73 92l-72 -92c-6 -6.66699 -13 -10 -21 -10s-15 2.5 -21 7.5
s-9 11.5 -9 19.5c0 5.33301 1.66699 10.666 5 15.999l49 76c7.33301 11.333 17.166 20.333 29.499 27s25.833 10 40.5 10c13.333 0 26 -3.33301 38 -10s22 -15.667 30 -27l51 -76c2.66699 -4 4 -9 4 -15z" />
    <glyph glyph-name="Edieresis" unicode="&#xcb;" horiz-adv-x="578" 
d="M535 54c0 -15.333 -5 -28.167 -15 -38.5s-22 -15.5 -36 -15.5h-341c-20 0 -37 7 -51 21s-21 31 -21 51v523c0 20 7 37 21 51s31 21 51 21h341c14 0 26 -5.16699 36 -15.5s15 -22.833 15 -37.5s-5 -27 -15 -37s-22 -15 -36 -15h-294v-170h287c14 0 26 -5.16699 36 -15.5
s15 -22.833 15 -37.5s-5 -27 -15 -37s-22 -15 -36 -15h-287v-182h294c14 0 26 -5 36 -15s15 -22 15 -36zM465 774.999c0 -16.667 -6 -30.834 -18 -42.501s-26 -17.5 -42 -17.5c-16.667 0 -30.834 5.83301 -42.501 17.5s-17.5 25.834 -17.5 42.501s5.83301 30.667 17.5 42
s25.834 17 42.501 17c16 0 30 -5.66699 42 -17s18 -25.333 18 -42zM254 774.999c0 -16.667 -5.66699 -30.834 -17 -42.501s-25 -17.5 -41 -17.5c-17.333 0 -31.666 5.83301 -42.999 17.5s-17 25.834 -17 42.501s5.66699 30.667 17 42s25.666 17 42.999 17
c16 0 29.667 -5.66699 41 -17s17 -25.333 17 -42z" />
    <glyph glyph-name="Igrave" unicode="&#xcc;" horiz-adv-x="261" 
d="M190 53c0 -16.667 -5.83398 -30.667 -17.501 -42s-26.167 -17 -43.5 -17c-16 0 -29.667 5.66699 -41 17s-17 25.333 -17 42v562c0 16 5.83301 29.667 17.5 41s25.834 17 42.501 17s30.667 -5.66699 42 -17s17 -25 17 -41v-562v0zM161.999 745
c0 -7.33301 -2.66699 -13.834 -8 -19.501s-12 -8.5 -20 -8.5c-6 0 -12 2.33301 -18 7l-106 92c-6.66699 5.33301 -10 13 -10 23c0 8.66699 3.33301 16.5 10 23.5s14.667 10.5 24 10.5s17.333 -3.33301 24 -10l96 -99c5.33301 -5.33301 8 -11.666 8 -18.999z" />
    <glyph glyph-name="Iacute" unicode="&#xcd;" horiz-adv-x="261" 
d="M190 53c0 -16.667 -5.83398 -30.667 -17.501 -42s-26.167 -17 -43.5 -17c-16 0 -29.667 5.66699 -41 17s-17 25.333 -17 42v562c0 16 5.83301 29.667 17.5 41s25.834 17 42.501 17s30.667 -5.66699 42 -17s17 -25 17 -41v-562v0zM263.999 839
c0 -10 -3.66699 -17.666 -11 -22.999l-105 -92c-6 -4.66699 -12 -7 -18 -7c-6.66699 0 -13 2.66699 -19 8s-9 12 -9 20c0 7.33301 2.33301 13.666 7 18.999l97 99c5.33301 6.66699 13 10 23 10c8.66699 0 16.667 -3.16699 24 -9.5s11 -14.5 11 -24.5z" />
    <glyph glyph-name="Icircumflex" unicode="&#xce;" horiz-adv-x="261" 
d="M190 53c0 -16.667 -5.83398 -30.667 -17.501 -42s-26.167 -17 -43.5 -17c-16 0 -29.667 5.66699 -41 17s-17 25.333 -17 42v562c0 16 5.83301 29.667 17.5 41s25.834 17 42.501 17s30.667 -5.66699 42 -17s17 -25 17 -41v-562v0zM254.999 745
c0 -6 -2.5 -12.332 -7.5 -18.999s-12.167 -10 -21.5 -10s-16.666 3.66699 -21.999 11l-73 92l-72 -92c-6 -6.66699 -13 -10 -21 -10s-15 2.5 -21 7.5s-9 11.5 -9 19.5c0 5.33301 1.66699 10.666 5 15.999l49 76c7.33301 11.333 17.166 20.333 29.499 27s25.833 10 40.5 10
c13.333 0 26 -3.33301 38 -10s22 -15.667 30 -27l51 -76c2.66699 -4 4 -9 4 -15z" />
    <glyph glyph-name="Idieresis" unicode="&#xcf;" horiz-adv-x="261" 
d="M190 53c0 -16.667 -5.83398 -30.667 -17.501 -42s-26.167 -17 -43.5 -17c-16 0 -29.667 5.66699 -41 17s-17 25.333 -17 42v562c0 16 5.83301 29.667 17.5 41s25.834 17 42.501 17s30.667 -5.66699 42 -17s17 -25 17 -41v-562v0zM297.999 775
c0 -16.667 -6 -30.834 -18 -42.501s-26 -17.5 -42 -17.5c-16.667 0 -30.834 5.83301 -42.501 17.5s-17.5 25.834 -17.5 42.501s5.83301 30.667 17.5 42s25.834 17 42.501 17c16 0 30 -5.66699 42 -17s18 -25.333 18 -42zM86.999 775c0 -16.667 -5.66699 -30.834 -17 -42.501
s-25 -17.5 -41 -17.5c-17.333 0 -31.666 5.83301 -42.999 17.5s-17 25.834 -17 42.501s5.66699 30.667 17 42s25.666 17 42.999 17c16 0 29.667 -5.66699 41 -17s17 -25.333 17 -42z" />
    <glyph glyph-name="Eth" unicode="&#xd0;" horiz-adv-x="737" 
d="M696 333c0 -48.667 -8.5 -93.5029 -25.5 -134.503s-40.833 -76.167 -71.5 -105.5s-67.5 -52.166 -110.5 -68.499s-90.5 -24.5 -142.5 -24.5h-177c-20 0 -37 7 -51 21s-21 31 -21 51v213h-51c-12 0 -22.167 4.33301 -30.5 13s-12.5 19.667 -12.5 33
c0 12 4.16699 22.167 12.5 30.5s18.5 12.5 30.5 12.5h51v221c0 20 7 37 21 51s31 21 51 21h177c52 0 99.5 -8.16699 142.5 -24.5s79.833 -39.166 110.5 -68.499s54.5 -64.666 71.5 -105.999s25.5 -86.333 25.5 -135zM573 332.997c0 32 -4.83398 61.998 -14.501 89.998
s-24 52.167 -43 72.5s-42.667 36.5 -71 48.5s-61.166 18 -98.499 18h-130v-188h120c12 0 22.167 -4.16699 30.5 -12.5s12.5 -19.166 12.5 -32.499c0 -12.667 -4.16699 -23.167 -12.5 -31.5s-18.5 -12.5 -30.5 -12.5h-120v-180h130c36 0 68 6 96 18s51.833 28.333 71.5 49
s34.5 44.834 44.5 72.501s15 57.167 15 88.5z" />
    <glyph glyph-name="Ntilde" unicode="&#xd1;" horiz-adv-x="721" 
d="M650 65c0 -9.33301 -1.66602 -18.332 -4.99902 -26.999s-8.33301 -16.167 -15 -22.5s-14.5 -11.5 -23.5 -15.5s-18.833 -6 -29.5 -6c-11.333 0 -22.333 2.66699 -33 8s-19.667 12.666 -27 21.999l-327 448v-419c0 -16.667 -5.83301 -30.667 -17.5 -42
s-26.167 -17 -43.5 -17c-16 0 -29.667 5.66699 -41 17s-17 25.333 -17 42v545c0 10 1.83301 19.333 5.5 28s9 16.667 16 24s15.167 13 24.5 17s19.666 6 30.999 6c12.667 0 24.667 -2.83301 36 -8.5s21 -13.5 29 -23.5l318 -432v406c0 16 5.83301 29.667 17.5 41
s26.167 17 43.5 17c16 0 29.667 -5.66699 41 -17s17 -25 17 -41v-550v0zM518.001 831.001c-0.666992 -11.333 -2.83008 -23.498 -6.49707 -36.498s-9.5 -24.833 -17.5 -35.5s-18.333 -19.667 -31 -27s-28.334 -11 -47.001 -11c-17.333 0 -31.333 4 -42 12
s-20 16.833 -28 26.5l-22.5 26.5c-7 8 -15.833 12 -26.5 12c-9.33301 0 -17.333 -3.66699 -24 -11s-11.334 -19.333 -14.001 -36c-1.33301 -8 -5.33301 -14.667 -12 -20s-14 -8 -22 -8s-14.167 2.66699 -18.5 8s-6.5 11.666 -6.5 18.999c0 11.333 1.83301 23.666 5.5 36.999
s9.66699 25.333 18 36s18.833 19.667 31.5 27s28.334 11 47.001 11c17.333 0 31.166 -4 41.499 -12s19.5 -16.833 27.5 -26.5s15.667 -18.5 23 -26.5s16 -12 26 -12c9.33301 0 17.333 3.66699 24 11s11.667 19.333 15 36c1.33301 8 5.16602 14.667 11.499 20s13.5 8 21.5 8
c8.66699 0 15.167 -2.83301 19.5 -8.5s6.5 -12.167 6.5 -19.5z" />
    <glyph glyph-name="Ograve" unicode="&#xd2;" horiz-adv-x="765" 
d="M724 333c0 -50 -8.33301 -96 -25 -138s-40.167 -78.5 -70.5 -109.5s-66.5 -55 -108.5 -72s-88 -25.5 -138 -25.5s-95.833 8.5 -137.5 25.5s-77.667 41 -108 72s-53.833 67.5 -70.5 109.5s-25 88 -25 138s8.33301 96 25 138s40.167 78.5 70.5 109.5s66.333 55 108 72
s87.5 25.5 137.5 25.5s96 -8.5 138 -25.5s78.167 -41 108.5 -72s53.833 -67.5 70.5 -109.5s25 -88 25 -138zM601 333c0 34 -5.16699 65.667 -15.5 95s-25 54.666 -44 75.999s-42 38 -69 50s-57.167 18 -90.5 18s-63.5 -6 -90.5 -18s-50 -28.667 -69 -50
s-33.667 -46.666 -44 -75.999s-15.5 -61 -15.5 -95s5.16699 -65.667 15.5 -95s25 -54.5 44 -75.5s42 -37.667 69 -50s57.167 -18.5 90.5 -18.5s63.5 6.16699 90.5 18.5s50 29 69 50s33.667 46.167 44 75.5s15.5 61 15.5 95zM413 745c0 -7.33301 -2.66699 -13.834 -8 -19.501
s-12 -8.5 -20 -8.5c-6 0 -12 2.33301 -18 7l-106 92c-6.66699 5.33301 -10 13 -10 23c0 8.66699 3.33301 16.5 10 23.5s14.667 10.5 24 10.5s17.333 -3.33301 24 -10l96 -99c5.33301 -5.33301 8 -11.666 8 -18.999z" />
    <glyph glyph-name="Oacute" unicode="&#xd3;" horiz-adv-x="765" 
d="M724 333c0 -50 -8.33301 -96 -25 -138s-40.167 -78.5 -70.5 -109.5s-66.5 -55 -108.5 -72s-88 -25.5 -138 -25.5s-95.833 8.5 -137.5 25.5s-77.667 41 -108 72s-53.833 67.5 -70.5 109.5s-25 88 -25 138s8.33301 96 25 138s40.167 78.5 70.5 109.5s66.333 55 108 72
s87.5 25.5 137.5 25.5s96 -8.5 138 -25.5s78.167 -41 108.5 -72s53.833 -67.5 70.5 -109.5s25 -88 25 -138zM601 333c0 34 -5.16699 65.667 -15.5 95s-25 54.666 -44 75.999s-42 38 -69 50s-57.167 18 -90.5 18s-63.5 -6 -90.5 -18s-50 -28.667 -69 -50
s-33.667 -46.666 -44 -75.999s-15.5 -61 -15.5 -95s5.16699 -65.667 15.5 -95s25 -54.5 44 -75.5s42 -37.667 69 -50s57.167 -18.5 90.5 -18.5s63.5 6.16699 90.5 18.5s50 29 69 50s33.667 46.167 44 75.5s15.5 61 15.5 95zM516 839c0 -10 -3.66699 -17.666 -11 -22.999
l-105 -92c-6 -4.66699 -12 -7 -18 -7c-6.66699 0 -13 2.66699 -19 8s-9 12 -9 20c0 7.33301 2.33301 13.666 7 18.999l97 99c5.33301 6.66699 13 10 23 10c8.66699 0 16.667 -3.16699 24 -9.5s11 -14.5 11 -24.5z" />
    <glyph glyph-name="Ocircumflex" unicode="&#xd4;" horiz-adv-x="765" 
d="M724 333c0 -50 -8.33301 -96 -25 -138s-40.167 -78.5 -70.5 -109.5s-66.5 -55 -108.5 -72s-88 -25.5 -138 -25.5s-95.833 8.5 -137.5 25.5s-77.667 41 -108 72s-53.833 67.5 -70.5 109.5s-25 88 -25 138s8.33301 96 25 138s40.167 78.5 70.5 109.5s66.333 55 108 72
s87.5 25.5 137.5 25.5s96 -8.5 138 -25.5s78.167 -41 108.5 -72s53.833 -67.5 70.5 -109.5s25 -88 25 -138zM601 333c0 34 -5.16699 65.667 -15.5 95s-25 54.666 -44 75.999s-42 38 -69 50s-57.167 18 -90.5 18s-63.5 -6 -90.5 -18s-50 -28.667 -69 -50
s-33.667 -46.666 -44 -75.999s-15.5 -61 -15.5 -95s5.16699 -65.667 15.5 -95s25 -54.5 44 -75.5s42 -37.667 69 -50s57.167 -18.5 90.5 -18.5s63.5 6.16699 90.5 18.5s50 29 69 50s33.667 46.167 44 75.5s15.5 61 15.5 95zM508 745c0 -6 -2.5 -12.332 -7.5 -18.999
s-12.167 -10 -21.5 -10s-16.666 3.66699 -21.999 11l-73 92l-72 -92c-6 -6.66699 -13 -10 -21 -10s-15 2.5 -21 7.5s-9 11.5 -9 19.5c0 5.33301 1.66699 10.666 5 15.999l49 76c7.33301 11.333 17.166 20.333 29.499 27s25.833 10 40.5 10c13.333 0 26 -3.33301 38 -10
s22 -15.667 30 -27l51 -76c2.66699 -4 4 -9 4 -15z" />
    <glyph glyph-name="Otilde" unicode="&#xd5;" horiz-adv-x="765" 
d="M724 333c0 -50 -8.33301 -96 -25 -138s-40.167 -78.5 -70.5 -109.5s-66.5 -55 -108.5 -72s-88 -25.5 -138 -25.5s-95.833 8.5 -137.5 25.5s-77.667 41 -108 72s-53.833 67.5 -70.5 109.5s-25 88 -25 138s8.33301 96 25 138s40.167 78.5 70.5 109.5s66.333 55 108 72
s87.5 25.5 137.5 25.5s96 -8.5 138 -25.5s78.167 -41 108.5 -72s53.833 -67.5 70.5 -109.5s25 -88 25 -138zM601 333c0 34 -5.16699 65.667 -15.5 95s-25 54.666 -44 75.999s-42 38 -69 50s-57.167 18 -90.5 18s-63.5 -6 -90.5 -18s-50 -28.667 -69 -50
s-33.667 -46.666 -44 -75.999s-15.5 -61 -15.5 -95s5.16699 -65.667 15.5 -95s25 -54.5 44 -75.5s42 -37.667 69 -50s57.167 -18.5 90.5 -18.5s63.5 6.16699 90.5 18.5s50 29 69 50s33.667 46.167 44 75.5s15.5 61 15.5 95zM542 831
c-0.666992 -11.333 -2.83008 -23.498 -6.49707 -36.498s-9.5 -24.833 -17.5 -35.5s-18.333 -19.667 -31 -27s-28.334 -11 -47.001 -11c-17.333 0 -31.333 4 -42 12s-20 16.833 -28 26.5l-22.5 26.5c-7 8 -15.833 12 -26.5 12c-9.33301 0 -17.333 -3.66699 -24 -11
s-11.334 -19.333 -14.001 -36c-1.33301 -8 -5.33301 -14.667 -12 -20s-14 -8 -22 -8s-14.167 2.66699 -18.5 8s-6.5 11.666 -6.5 18.999c0 11.333 1.83301 23.666 5.5 36.999s9.66699 25.333 18 36s18.833 19.667 31.5 27s28.334 11 47.001 11
c17.333 0 31.166 -4 41.499 -12s19.5 -16.833 27.5 -26.5s15.667 -18.5 23 -26.5s16 -12 26 -12c9.33301 0 17.333 3.66699 24 11s11.667 19.333 15 36c1.33301 8 5.16602 14.667 11.499 20s13.5 8 21.5 8c8.66699 0 15.167 -2.83301 19.5 -8.5s6.5 -12.167 6.5 -19.5z" />
    <glyph glyph-name="Odieresis" unicode="&#xd6;" horiz-adv-x="765" 
d="M724 333c0 -50 -8.33301 -96 -25 -138s-40.167 -78.5 -70.5 -109.5s-66.5 -55 -108.5 -72s-88 -25.5 -138 -25.5s-95.833 8.5 -137.5 25.5s-77.667 41 -108 72s-53.833 67.5 -70.5 109.5s-25 88 -25 138s8.33301 96 25 138s40.167 78.5 70.5 109.5s66.333 55 108 72
s87.5 25.5 137.5 25.5s96 -8.5 138 -25.5s78.167 -41 108.5 -72s53.833 -67.5 70.5 -109.5s25 -88 25 -138zM601 333c0 34 -5.16699 65.667 -15.5 95s-25 54.666 -44 75.999s-42 38 -69 50s-57.167 18 -90.5 18s-63.5 -6 -90.5 -18s-50 -28.667 -69 -50
s-33.667 -46.666 -44 -75.999s-15.5 -61 -15.5 -95s5.16699 -65.667 15.5 -95s25 -54.5 44 -75.5s42 -37.667 69 -50s57.167 -18.5 90.5 -18.5s63.5 6.16699 90.5 18.5s50 29 69 50s33.667 46.167 44 75.5s15.5 61 15.5 95zM548 775c0 -16.667 -6 -30.834 -18 -42.501
s-26 -17.5 -42 -17.5c-16.667 0 -30.834 5.83301 -42.501 17.5s-17.5 25.834 -17.5 42.501s5.83301 30.667 17.5 42s25.834 17 42.501 17c16 0 30 -5.66699 42 -17s18 -25.333 18 -42zM337 775c0 -16.667 -5.66699 -30.834 -17 -42.501s-25 -17.5 -41 -17.5
c-17.333 0 -31.666 5.83301 -42.999 17.5s-17 25.834 -17 42.501s5.66699 30.667 17 42s25.666 17 42.999 17c16 0 29.667 -5.66699 41 -17s17 -25.333 17 -42z" />
    <glyph glyph-name="multiply" unicode="&#xd7;" horiz-adv-x="502" 
d="M433 186c0 -10 -3.83496 -18.1699 -11.502 -24.5029s-15.5 -9.5 -23.5 -9.5c-9.33301 0 -17.333 3.33301 -24 10l-123 123l-123 -123c-6.66699 -6.66699 -14.334 -10 -23.001 -10c-9.33301 0 -17.666 3.33301 -24.999 10s-11 15 -11 25
c0 8.66699 3.33301 16.334 10 23.001l123 124l-122 123c-7.33301 6.66699 -11 14.334 -11 23.001s3.16699 16.834 9.5 24.501s14.5 11.5 24.5 11.5s18.333 -3.33301 25 -10l123 -124l123 124c6.66699 6.66699 14.334 10 23.001 10s16.834 -3.5 24.501 -10.5
s11.5 -15.167 11.5 -24.5s-3.33301 -17.333 -10 -24l-123 -123l123 -124c6.66699 -7.33301 10 -15.333 10 -24z" />
    <glyph glyph-name="Oslash" unicode="&#xd8;" horiz-adv-x="765" 
d="M724 333c0 -50 -8.33203 -96.001 -24.999 -138.001s-40.167 -78.5 -70.5 -109.5s-66.5 -55 -108.5 -72s-88 -25.5 -138 -25.5c-34 0 -66.167 4 -96.5 12s-58.166 19.333 -83.499 34l-20 -28c-7.33301 -8.66699 -16.333 -13 -27 -13c-10 0 -18.667 3.33301 -26 10
s-11 14.667 -11 24c0 6.66699 2.33301 13.667 7 21l20 29c-32.667 30.667 -58.167 67.834 -76.5 111.501s-27.5 91.834 -27.5 144.501c0 50 8.33301 96 25 138s40.167 78.5 70.5 109.5s66.333 55 108 72s87.5 25.5 137.5 25.5c32 0 62.167 -3.5 90.5 -10.5
s55.166 -17.167 80.499 -30.5l16 22c7.33301 9.33301 16.666 14 27.999 14c9.33301 0 17.833 -3.33301 25.5 -10s11.5 -14.667 11.5 -24c0 -7.33301 -2 -14 -6 -20l-17 -23c36 -31.333 63.833 -69.333 83.5 -114s29.5 -94.334 29.5 -149.001zM601.001 332.999
c0 34 -5.16699 65.499 -15.5 94.499s-24.833 53.833 -43.5 74.5l-274 -378c16 -9.33301 33.5 -16.666 52.5 -21.999s39.5 -8 61.5 -8c33.333 0 63.5 6.16699 90.5 18.5s50 29 69 50s33.667 46.167 44 75.5s15.5 61 15.5 95zM486.001 546.998
c-14.667 8 -30.833 14.167 -48.5 18.5s-36.167 6.5 -55.5 6.5c-33.333 0 -63.5 -6 -90.5 -18s-50 -28.667 -69 -50s-33.667 -46.666 -44 -75.999s-15.5 -61 -15.5 -95c0 -32 4.5 -61.833 13.5 -89.5s22.167 -51.834 39.5 -72.501z" />
    <glyph glyph-name="Ugrave" unicode="&#xd9;" horiz-adv-x="720" 
d="M650 264c0 -41.333 -6.00098 -79 -18.001 -113s-30 -63.167 -54 -87.5s-54.167 -43 -90.5 -56s-78.833 -19.5 -127.5 -19.5c-48 0 -90.167 6.66699 -126.5 20s-66.666 32 -90.999 56s-42.333 52.833 -54 86.5s-17.5 71.167 -17.5 112.5v351
c0 16 5.83301 29.833 17.5 41.5s26.167 17.5 43.5 17.5c16 0 29.833 -5.83301 41.5 -17.5s17.5 -25.5 17.5 -41.5v-347c0 -52 14.333 -93.833 43 -125.5s70.667 -47.5 126 -47.5c56 0 98.167 15.833 126.5 47.5s42.5 73.5 42.5 125.5v347c0 16 5.83301 29.833 17.5 41.5
s26.5 17.5 44.5 17.5c16.667 0 30.667 -5.83301 42 -17.5s17 -25.5 17 -41.5v-350v0zM389.999 745c0 -7.33301 -2.66699 -13.834 -8 -19.501s-12 -8.5 -20 -8.5c-6 0 -12 2.33301 -18 7l-106 92c-6.66699 5.33301 -10 13 -10 23c0 8.66699 3.33301 16.5 10 23.5
s14.667 10.5 24 10.5s17.333 -3.33301 24 -10l96 -99c5.33301 -5.33301 8 -11.666 8 -18.999z" />
    <glyph glyph-name="Uacute" unicode="&#xda;" horiz-adv-x="720" 
d="M650 264c0 -41.333 -6.00098 -79 -18.001 -113s-30 -63.167 -54 -87.5s-54.167 -43 -90.5 -56s-78.833 -19.5 -127.5 -19.5c-48 0 -90.167 6.66699 -126.5 20s-66.666 32 -90.999 56s-42.333 52.833 -54 86.5s-17.5 71.167 -17.5 112.5v351
c0 16 5.83301 29.833 17.5 41.5s26.167 17.5 43.5 17.5c16 0 29.833 -5.83301 41.5 -17.5s17.5 -25.5 17.5 -41.5v-347c0 -52 14.333 -93.833 43 -125.5s70.667 -47.5 126 -47.5c56 0 98.167 15.833 126.5 47.5s42.5 73.5 42.5 125.5v347c0 16 5.83301 29.833 17.5 41.5
s26.5 17.5 44.5 17.5c16.667 0 30.667 -5.83301 42 -17.5s17 -25.5 17 -41.5v-350v0zM493.999 839c0 -10 -3.66699 -17.666 -11 -22.999l-105 -92c-6 -4.66699 -12 -7 -18 -7c-6.66699 0 -13 2.66699 -19 8s-9 12 -9 20c0 7.33301 2.33301 13.666 7 18.999l97 99
c5.33301 6.66699 13 10 23 10c8.66699 0 16.667 -3.16699 24 -9.5s11 -14.5 11 -24.5z" />
    <glyph glyph-name="Ucircumflex" unicode="&#xdb;" horiz-adv-x="720" 
d="M650 264c0 -41.333 -6.00098 -79 -18.001 -113s-30 -63.167 -54 -87.5s-54.167 -43 -90.5 -56s-78.833 -19.5 -127.5 -19.5c-48 0 -90.167 6.66699 -126.5 20s-66.666 32 -90.999 56s-42.333 52.833 -54 86.5s-17.5 71.167 -17.5 112.5v351
c0 16 5.83301 29.833 17.5 41.5s26.167 17.5 43.5 17.5c16 0 29.833 -5.83301 41.5 -17.5s17.5 -25.5 17.5 -41.5v-347c0 -52 14.333 -93.833 43 -125.5s70.667 -47.5 126 -47.5c56 0 98.167 15.833 126.5 47.5s42.5 73.5 42.5 125.5v347c0 16 5.83301 29.833 17.5 41.5
s26.5 17.5 44.5 17.5c16.667 0 30.667 -5.83301 42 -17.5s17 -25.5 17 -41.5v-350v0zM486.999 745c0 -6 -2.5 -12.332 -7.5 -18.999s-12.167 -10 -21.5 -10s-16.666 3.66699 -21.999 11l-73 92l-72 -92c-6 -6.66699 -13 -10 -21 -10s-15 2.5 -21 7.5s-9 11.5 -9 19.5
c0 5.33301 1.66699 10.666 5 15.999l49 76c7.33301 11.333 17.166 20.333 29.499 27s25.833 10 40.5 10c13.333 0 26 -3.33301 38 -10s22 -15.667 30 -27l51 -76c2.66699 -4 4 -9 4 -15z" />
    <glyph glyph-name="Udieresis" unicode="&#xdc;" horiz-adv-x="720" 
d="M650 264c0 -41.333 -6.00098 -79 -18.001 -113s-30 -63.167 -54 -87.5s-54.167 -43 -90.5 -56s-78.833 -19.5 -127.5 -19.5c-48 0 -90.167 6.66699 -126.5 20s-66.666 32 -90.999 56s-42.333 52.833 -54 86.5s-17.5 71.167 -17.5 112.5v351
c0 16 5.83301 29.833 17.5 41.5s26.167 17.5 43.5 17.5c16 0 29.833 -5.83301 41.5 -17.5s17.5 -25.5 17.5 -41.5v-347c0 -52 14.333 -93.833 43 -125.5s70.667 -47.5 126 -47.5c56 0 98.167 15.833 126.5 47.5s42.5 73.5 42.5 125.5v347c0 16 5.83301 29.833 17.5 41.5
s26.5 17.5 44.5 17.5c16.667 0 30.667 -5.83301 42 -17.5s17 -25.5 17 -41.5v-350v0zM526.999 775c0 -16.667 -6 -30.834 -18 -42.501s-26 -17.5 -42 -17.5c-16.667 0 -30.834 5.83301 -42.501 17.5s-17.5 25.834 -17.5 42.501s5.83301 30.667 17.5 42s25.834 17 42.501 17
c16 0 30 -5.66699 42 -17s18 -25.333 18 -42zM315.999 775c0 -16.667 -5.66699 -30.834 -17 -42.501s-25 -17.5 -41 -17.5c-17.333 0 -31.666 5.83301 -42.999 17.5s-17 25.834 -17 42.501s5.66699 30.667 17 42s25.666 17 42.999 17c16 0 29.667 -5.66699 41 -17
s17 -25.333 17 -42z" />
    <glyph glyph-name="Yacute" unicode="&#xdd;" horiz-adv-x="638" 
d="M592 617c0 -10.667 -2.66699 -20.667 -8 -30l-205 -311v-223c0 -16.667 -5.83301 -30.667 -17.5 -42s-25.834 -17 -42.501 -17s-30.667 5.66699 -42 17s-17 25.333 -17 42v223l-207 312c-6 8 -9 17.667 -9 29c0 13.333 5.33301 25.833 16 37.5s24.667 17.5 42 17.5
c8.66699 0 17.5 -2.16699 26.5 -6.5s16.167 -10.833 21.5 -19.5l169 -263l167 263c5.33301 8 12.333 14.333 21 19s18 7 28 7c16.667 0 30.334 -5.5 41.001 -16.5s16 -23.833 16 -38.5zM452 839c0 -10 -3.66699 -17.666 -11 -22.999l-105 -92c-6 -4.66699 -12 -7 -18 -7
c-6.66699 0 -13 2.66699 -19 8s-9 12 -9 20c0 7.33301 2.33301 13.666 7 18.999l97 99c5.33301 6.66699 13 10 23 10c8.66699 0 16.667 -3.16699 24 -9.5s11 -14.5 11 -24.5z" />
    <glyph glyph-name="Thorn" unicode="&#xde;" horiz-adv-x="610" 
d="M584 344c0 -28.667 -4.83203 -55.502 -14.499 -80.502s-23.834 -47 -42.501 -66s-41.5 -34 -68.5 -45s-57.833 -16.5 -92.5 -16.5h-176v-81c0 -16 -5.83301 -29.833 -17.5 -41.5s-26.167 -17.5 -43.5 -17.5c-16 0 -29.667 5.83301 -41 17.5s-17 25.5 -17 41.5v557
c0 16.667 5.83301 30.667 17.5 42s25.834 17 42.501 17s30.667 -5.66699 42 -17s17 -25.333 17 -42v-57h176c34.667 0 65.667 -5.66699 93 -17s50.166 -26.666 68.499 -45.999s32.333 -41.666 42 -66.999s14.5 -52.333 14.5 -81zM462.001 344.998
c0 32 -10.667 57.333 -32 76s-48.333 28 -81 28h-159v-207h159c32.667 0 59.667 9.16699 81 27.5s32 43.5 32 75.5z" />
    <glyph glyph-name="germandbls" unicode="&#xdf;" horiz-adv-x="625" 
d="M608 141c0 -22 -4.3252 -42.168 -12.9922 -60.501s-21.5 -34.5 -38.5 -48.5s-37.5 -24.833 -61.5 -32.5s-51.333 -11.5 -82 -11.5c-18.667 0 -36.834 1.5 -54.501 4.5s-34 7.16699 -49 12.5s-28.5 11.833 -40.5 19.5s-22 16.5 -30 26.5c-6 8 -9 17 -9 27
c0 12 3.83301 22.167 11.5 30.5s17.167 12.5 28.5 12.5c8 0 16.333 -2.66699 25 -8c15.333 -12 33.166 -21.833 53.499 -29.5s41.833 -11.5 64.5 -11.5c30.667 0 53.667 6.66699 69 20s23 28.333 23 45c0 15.333 -6.83301 27 -20.5 35s-30.334 15 -50.001 21
s-41.334 11.833 -65.001 17.5s-45.334 13.834 -65.001 24.501s-36.334 24.667 -50.001 42s-20.5 41.333 -20.5 72c0 17.333 3.33301 32.5 10 45.5s14.834 24.667 24.501 35s20.167 19.5 31.5 27.5l31.5 23c9.66699 7.33301 17.834 14.5 24.501 21.5s10 14.833 10 23.5
c0 9.33301 -2.5 17.5 -7.5 24.5s-11.5 13 -19.5 18s-17.167 8.66699 -27.5 11s-20.833 3.5 -31.5 3.5c-14.667 0 -28.334 -2.16699 -41.001 -6.5s-23.834 -10.833 -33.501 -19.5s-17.167 -19 -22.5 -31s-8 -25.667 -8 -41v-437c0 -14.667 -5.33301 -27.167 -16 -37.5
s-23.334 -15.5 -38.001 -15.5s-27.167 5.16699 -37.5 15.5s-15.5 22.833 -15.5 37.5v437c0 26.667 4.83301 51.667 14.5 75s23.667 43.833 42 61.5s40.833 31.5 67.5 41.5s56.667 15 90 15c25.333 0 49.666 -3.16699 72.999 -9.5s43.833 -15.5 61.5 -27.5s32 -26.5 43 -43.5
s16.5 -36.167 16.5 -57.5c0 -18.667 -3.5 -34.667 -10.5 -48s-15.667 -25 -26 -35s-21.333 -18.833 -33 -26.5s-22.667 -15.5 -33 -23.5s-19 -16.333 -26 -25s-10.5 -18.667 -10.5 -30c0 -14 6.83301 -24.333 20.5 -31s30.5 -12.5 50.5 -17.5l65 -15.5
c23.333 -5.33301 45 -13.5 65 -24.5s36.667 -26 50 -45s20 -44.5 20 -76.5z" />
    <glyph glyph-name="agrave" unicode="&#xe0;" horiz-adv-x="537" 
d="M469 47c0 -14.667 -4.99805 -27.165 -14.998 -37.498s-22.667 -15.5 -38 -15.5c-10.667 0 -19.834 2.16699 -27.501 6.5s-14 11.666 -19 21.999s-7.5 20.166 -7.5 29.499c-18 -20.667 -40.333 -36.5 -67 -47.5s-56 -16.5 -88 -16.5c-20 0 -40 3.33301 -60 10
s-38 16.667 -54 30s-29.167 30 -39.5 50s-15.5 43.333 -15.5 70c0 27.333 5.16699 51 15.5 71s23.5 36.333 39.5 49s34 22 54 28s40 9 60 9c32 0 61.5 -5.16699 88.5 -15.5s49.167 -25.833 66.5 -46.5v74c0 28 -10.333 49.833 -31 65.5s-47.667 23.5 -81 23.5
c-21.333 0 -41.5 -2.83301 -60.5 -8.5s-37.167 -15.167 -54.5 -28.5c-7.33301 -4.66699 -14.666 -7 -21.999 -7c-10 0 -19.5 3.66699 -28.5 11s-13.5 17.666 -13.5 30.999c0 8.66699 2.66699 16.334 8 23.001c9.33301 12 21.666 22.333 36.999 31s31.666 15.667 48.999 21
s35 9.33301 53 12s34.333 4 49 4c26.667 0 52.167 -3 76.5 -9s45.833 -15.833 64.5 -29.5s33.5 -31.667 44.5 -54s16.5 -49.833 16.5 -82.5v-273zM362.002 111.002v72c-12 16 -28.167 28 -48.5 36s-42.166 12 -65.499 12c-28.667 0 -52.667 -7.66699 -72 -23
s-29 -36 -29 -62s9.66699 -46.5 29 -61.5s43.333 -22.5 72 -22.5c23.333 0 45.166 4 65.499 12s36.5 20.333 48.5 37zM297.002 578.002c0 -7.33301 -2.66699 -13.834 -8 -19.501s-12 -8.5 -20 -8.5c-6 0 -12 2.33301 -18 7l-106 92c-6.66699 5.33301 -10 13 -10 23
c0 8.66699 3.33301 16.5 10 23.5s14.667 10.5 24 10.5s17.333 -3.33301 24 -10l96 -99c5.33301 -5.33301 8 -11.666 8 -18.999z" />
    <glyph glyph-name="aacute" unicode="&#xe1;" horiz-adv-x="537" 
d="M469 47c0 -14.667 -4.99805 -27.165 -14.998 -37.498s-22.667 -15.5 -38 -15.5c-10.667 0 -19.834 2.16699 -27.501 6.5s-14 11.666 -19 21.999s-7.5 20.166 -7.5 29.499c-18 -20.667 -40.333 -36.5 -67 -47.5s-56 -16.5 -88 -16.5c-20 0 -40 3.33301 -60 10
s-38 16.667 -54 30s-29.167 30 -39.5 50s-15.5 43.333 -15.5 70c0 27.333 5.16699 51 15.5 71s23.5 36.333 39.5 49s34 22 54 28s40 9 60 9c32 0 61.5 -5.16699 88.5 -15.5s49.167 -25.833 66.5 -46.5v74c0 28 -10.333 49.833 -31 65.5s-47.667 23.5 -81 23.5
c-21.333 0 -41.5 -2.83301 -60.5 -8.5s-37.167 -15.167 -54.5 -28.5c-7.33301 -4.66699 -14.666 -7 -21.999 -7c-10 0 -19.5 3.66699 -28.5 11s-13.5 17.666 -13.5 30.999c0 8.66699 2.66699 16.334 8 23.001c9.33301 12 21.666 22.333 36.999 31s31.666 15.667 48.999 21
s35 9.33301 53 12s34.333 4 49 4c26.667 0 52.167 -3 76.5 -9s45.833 -15.833 64.5 -29.5s33.5 -31.667 44.5 -54s16.5 -49.833 16.5 -82.5v-273zM362.002 111.002v72c-12 16 -28.167 28 -48.5 36s-42.166 12 -65.499 12c-28.667 0 -52.667 -7.66699 -72 -23
s-29 -36 -29 -62s9.66699 -46.5 29 -61.5s43.333 -22.5 72 -22.5c23.333 0 45.166 4 65.499 12s36.5 20.333 48.5 37zM400.002 672.002c0 -10 -3.66699 -17.666 -11 -22.999l-105 -92c-6 -4.66699 -12 -7 -18 -7c-6.66699 0 -13 2.66699 -19 8s-9 12 -9 20
c0 7.33301 2.33301 13.666 7 18.999l97 99c5.33301 6.66699 13 10 23 10c8.66699 0 16.667 -3.16699 24 -9.5s11 -14.5 11 -24.5z" />
    <glyph glyph-name="acircumflex" unicode="&#xe2;" horiz-adv-x="537" 
d="M469 47c0 -14.667 -4.99805 -27.165 -14.998 -37.498s-22.667 -15.5 -38 -15.5c-10.667 0 -19.834 2.16699 -27.501 6.5s-14 11.666 -19 21.999s-7.5 20.166 -7.5 29.499c-18 -20.667 -40.333 -36.5 -67 -47.5s-56 -16.5 -88 -16.5c-20 0 -40 3.33301 -60 10
s-38 16.667 -54 30s-29.167 30 -39.5 50s-15.5 43.333 -15.5 70c0 27.333 5.16699 51 15.5 71s23.5 36.333 39.5 49s34 22 54 28s40 9 60 9c32 0 61.5 -5.16699 88.5 -15.5s49.167 -25.833 66.5 -46.5v74c0 28 -10.333 49.833 -31 65.5s-47.667 23.5 -81 23.5
c-21.333 0 -41.5 -2.83301 -60.5 -8.5s-37.167 -15.167 -54.5 -28.5c-7.33301 -4.66699 -14.666 -7 -21.999 -7c-10 0 -19.5 3.66699 -28.5 11s-13.5 17.666 -13.5 30.999c0 8.66699 2.66699 16.334 8 23.001c9.33301 12 21.666 22.333 36.999 31s31.666 15.667 48.999 21
s35 9.33301 53 12s34.333 4 49 4c26.667 0 52.167 -3 76.5 -9s45.833 -15.833 64.5 -29.5s33.5 -31.667 44.5 -54s16.5 -49.833 16.5 -82.5v-273zM362.002 111.002v72c-12 16 -28.167 28 -48.5 36s-42.166 12 -65.499 12c-28.667 0 -52.667 -7.66699 -72 -23
s-29 -36 -29 -62s9.66699 -46.5 29 -61.5s43.333 -22.5 72 -22.5c23.333 0 45.166 4 65.499 12s36.5 20.333 48.5 37zM392.002 578.002c0 -6 -2.5 -12.332 -7.5 -18.999s-12.167 -10 -21.5 -10s-16.666 3.66699 -21.999 11l-73 92l-72 -92c-6 -6.66699 -13 -10 -21 -10
s-15 2.5 -21 7.5s-9 11.5 -9 19.5c0 5.33301 1.66699 10.666 5 15.999l49 76c7.33301 11.333 17.166 20.333 29.499 27s25.833 10 40.5 10c13.333 0 26 -3.33301 38 -10s22 -15.667 30 -27l51 -76c2.66699 -4 4 -9 4 -15z" />
    <glyph glyph-name="atilde" unicode="&#xe3;" horiz-adv-x="537" 
d="M469 47c0 -14.667 -4.99805 -27.165 -14.998 -37.498s-22.667 -15.5 -38 -15.5c-10.667 0 -19.834 2.16699 -27.501 6.5s-14 11.666 -19 21.999s-7.5 20.166 -7.5 29.499c-18 -20.667 -40.333 -36.5 -67 -47.5s-56 -16.5 -88 -16.5c-20 0 -40 3.33301 -60 10
s-38 16.667 -54 30s-29.167 30 -39.5 50s-15.5 43.333 -15.5 70c0 27.333 5.16699 51 15.5 71s23.5 36.333 39.5 49s34 22 54 28s40 9 60 9c32 0 61.5 -5.16699 88.5 -15.5s49.167 -25.833 66.5 -46.5v74c0 28 -10.333 49.833 -31 65.5s-47.667 23.5 -81 23.5
c-21.333 0 -41.5 -2.83301 -60.5 -8.5s-37.167 -15.167 -54.5 -28.5c-7.33301 -4.66699 -14.666 -7 -21.999 -7c-10 0 -19.5 3.66699 -28.5 11s-13.5 17.666 -13.5 30.999c0 8.66699 2.66699 16.334 8 23.001c9.33301 12 21.666 22.333 36.999 31s31.666 15.667 48.999 21
s35 9.33301 53 12s34.333 4 49 4c26.667 0 52.167 -3 76.5 -9s45.833 -15.833 64.5 -29.5s33.5 -31.667 44.5 -54s16.5 -49.833 16.5 -82.5v-273zM362.002 111.002v72c-12 16 -28.167 28 -48.5 36s-42.166 12 -65.499 12c-28.667 0 -52.667 -7.66699 -72 -23
s-29 -36 -29 -62s9.66699 -46.5 29 -61.5s43.333 -22.5 72 -22.5c23.333 0 45.166 4 65.499 12s36.5 20.333 48.5 37zM427.002 664.002c-0.666992 -11.333 -2.83008 -23.498 -6.49707 -36.498s-9.5 -24.833 -17.5 -35.5s-18.333 -19.667 -31 -27s-28.334 -11 -47.001 -11
c-17.333 0 -31.333 4 -42 12s-20 16.833 -28 26.5l-22.5 26.5c-7 8 -15.833 12 -26.5 12c-9.33301 0 -17.333 -3.66699 -24 -11s-11.334 -19.333 -14.001 -36c-1.33301 -8 -5.33301 -14.667 -12 -20s-14 -8 -22 -8s-14.167 2.66699 -18.5 8s-6.5 11.666 -6.5 18.999
c0 11.333 1.83301 23.666 5.5 36.999s9.66699 25.333 18 36s18.833 19.667 31.5 27s28.334 11 47.001 11c17.333 0 31.166 -4 41.499 -12s19.5 -16.833 27.5 -26.5s15.667 -18.5 23 -26.5s16 -12 26 -12c9.33301 0 17.333 3.66699 24 11s11.667 19.333 15 36
c1.33301 8 5.16602 14.667 11.499 20s13.5 8 21.5 8c8.66699 0 15.167 -2.83301 19.5 -8.5s6.5 -12.167 6.5 -19.5z" />
    <glyph glyph-name="adieresis" unicode="&#xe4;" horiz-adv-x="537" 
d="M469 47c0 -14.667 -4.99805 -27.165 -14.998 -37.498s-22.667 -15.5 -38 -15.5c-10.667 0 -19.834 2.16699 -27.501 6.5s-14 11.666 -19 21.999s-7.5 20.166 -7.5 29.499c-18 -20.667 -40.333 -36.5 -67 -47.5s-56 -16.5 -88 -16.5c-20 0 -40 3.33301 -60 10
s-38 16.667 -54 30s-29.167 30 -39.5 50s-15.5 43.333 -15.5 70c0 27.333 5.16699 51 15.5 71s23.5 36.333 39.5 49s34 22 54 28s40 9 60 9c32 0 61.5 -5.16699 88.5 -15.5s49.167 -25.833 66.5 -46.5v74c0 28 -10.333 49.833 -31 65.5s-47.667 23.5 -81 23.5
c-21.333 0 -41.5 -2.83301 -60.5 -8.5s-37.167 -15.167 -54.5 -28.5c-7.33301 -4.66699 -14.666 -7 -21.999 -7c-10 0 -19.5 3.66699 -28.5 11s-13.5 17.666 -13.5 30.999c0 8.66699 2.66699 16.334 8 23.001c9.33301 12 21.666 22.333 36.999 31s31.666 15.667 48.999 21
s35 9.33301 53 12s34.333 4 49 4c26.667 0 52.167 -3 76.5 -9s45.833 -15.833 64.5 -29.5s33.5 -31.667 44.5 -54s16.5 -49.833 16.5 -82.5v-273zM362.002 111.002v72c-12 16 -28.167 28 -48.5 36s-42.166 12 -65.499 12c-28.667 0 -52.667 -7.66699 -72 -23
s-29 -36 -29 -62s9.66699 -46.5 29 -61.5s43.333 -22.5 72 -22.5c23.333 0 45.166 4 65.499 12s36.5 20.333 48.5 37zM433.002 608.002c0 -16.667 -6 -30.834 -18 -42.501s-26 -17.5 -42 -17.5c-16.667 0 -30.834 5.83301 -42.501 17.5s-17.5 25.834 -17.5 42.501
s5.83301 30.667 17.5 42s25.834 17 42.501 17c16 0 30 -5.66699 42 -17s18 -25.333 18 -42zM222.002 608.002c0 -16.667 -5.66699 -30.834 -17 -42.501s-25 -17.5 -41 -17.5c-17.333 0 -31.666 5.83301 -42.999 17.5s-17 25.834 -17 42.501s5.66699 30.667 17 42
s25.666 17 42.999 17c16 0 29.667 -5.66699 41 -17s17 -25.333 17 -42z" />
    <glyph glyph-name="aring" unicode="&#xe5;" horiz-adv-x="537" 
d="M469 47c0 -14.667 -4.99805 -27.165 -14.998 -37.498s-22.667 -15.5 -38 -15.5c-10.667 0 -19.834 2.16699 -27.501 6.5s-14 11.666 -19 21.999s-7.5 20.166 -7.5 29.499c-18 -20.667 -40.333 -36.5 -67 -47.5s-56 -16.5 -88 -16.5c-20 0 -40 3.33301 -60 10
s-38 16.667 -54 30s-29.167 30 -39.5 50s-15.5 43.333 -15.5 70c0 27.333 5.16699 51 15.5 71s23.5 36.333 39.5 49s34 22 54 28s40 9 60 9c32 0 61.5 -5.16699 88.5 -15.5s49.167 -25.833 66.5 -46.5v74c0 28 -10.333 49.833 -31 65.5s-47.667 23.5 -81 23.5
c-21.333 0 -41.5 -2.83301 -60.5 -8.5s-37.167 -15.167 -54.5 -28.5c-7.33301 -4.66699 -14.666 -7 -21.999 -7c-10 0 -19.5 3.66699 -28.5 11s-13.5 17.666 -13.5 30.999c0 8.66699 2.66699 16.334 8 23.001c9.33301 12 21.666 22.333 36.999 31s31.666 15.667 48.999 21
s35 9.33301 53 12s34.333 4 49 4c26.667 0 52.167 -3 76.5 -9s45.833 -15.833 64.5 -29.5s33.5 -31.667 44.5 -54s16.5 -49.833 16.5 -82.5v-273zM362.002 111.002v72c-12 16 -28.167 28 -48.5 36s-42.166 12 -65.499 12c-28.667 0 -52.667 -7.66699 -72 -23
s-29 -36 -29 -62s9.66699 -46.5 29 -61.5s43.333 -22.5 72 -22.5c23.333 0 45.166 4 65.499 12s36.5 20.333 48.5 37zM370.002 638.002c0 -14 -2.66699 -27.333 -8 -40s-12.5 -23.667 -21.5 -33s-19.667 -16.5 -32 -21.5s-25.833 -7.5 -40.5 -7.5
c-13.333 0 -26.333 2.5 -39 7.5s-23.667 12.167 -33 21.5s-16.666 20.333 -21.999 33s-8 26 -8 40s2.66699 27.167 8 39.5s12.666 23.333 21.999 33s20.333 17.167 33 22.5s25.667 8 39 8c14.667 0 28.167 -2.66699 40.5 -8s23 -12.833 32 -22.5s16.167 -20.667 21.5 -33
s8 -25.5 8 -39.5zM319.002 638.002c0 14.667 -4.83301 27 -14.5 37s-21.834 15 -36.501 15c-14 0 -26 -5 -36 -15s-15 -22.333 -15 -37c0 -14 5 -26.167 15 -36.5s22 -15.5 36 -15.5c14.667 0 26.834 5.16699 36.501 15.5s14.5 22.5 14.5 36.5z" />
    <glyph glyph-name="ae" unicode="&#xe6;" horiz-adv-x="877" 
d="M840 260c0 -14.667 -5.15723 -27.166 -15.4902 -37.499s-22.833 -15.5 -37.5 -15.5h-296c2 -17.333 6.5 -34 13.5 -50s16.5 -30 28.5 -42s26.333 -21.333 43 -28s35.667 -10 57 -10c16 0 32.333 2.16699 49 6.5s32.334 11.5 47.001 21.5c7.33301 4 15.666 6 24.999 6
c11.333 0 21.666 -3.66699 30.999 -11s14 -17.333 14 -30c0 -8 -2.66699 -16 -8 -24c-8.66699 -10 -19.834 -18.667 -33.501 -26s-28.167 -13.5 -43.5 -18.5s-30.833 -8.5 -46.5 -10.5s-29.5 -3 -41.5 -3c-40.667 0 -77 7.66699 -109 23s-58.667 40.666 -80 75.999
c-18.667 -29.333 -45.667 -53.166 -81 -71.499s-75 -27.5 -119 -27.5c-26.667 0 -51.834 3.16699 -75.501 9.5s-44.834 16.166 -63.501 29.499s-33.334 30 -44.001 50s-16 43.333 -16 70c0 26 4.83301 48.833 14.5 68.5s22.5 36.167 38.5 49.5s34.667 23.333 56 30
s43.666 10 66.999 10c34.667 0 66.667 -5 96 -15s53.666 -25 72.999 -45v73c0 27.333 -11.167 48.833 -33.5 64.5s-51.833 23.5 -88.5 23.5c-22.667 0 -44.334 -3 -65.001 -9s-40.667 -15.667 -60 -29c-7.33301 -4.66699 -15 -7 -23 -7c-9.33301 0 -18.5 3.83301 -27.5 11.5
s-13.5 17.834 -13.5 30.501c0 9.33301 2.66699 17.333 8 24c9.33301 12 21.833 22.333 37.5 31s32.5 15.667 50.5 21s36.333 9.33301 55 12s35.667 4 51 4c20.667 0 40 -1.83301 58 -5.5s34.167 -9.33398 48.5 -17.001s27 -17.167 38 -28.5s19.5 -24.666 25.5 -39.999
c8 12 17.5 23.667 28.5 35s23.667 21 38 29s30.666 14.5 48.999 19.5s38.5 7.5 60.5 7.5c53.333 0 98.166 -15.333 134.499 -46s61.5 -72.667 75.5 -126c2.66699 -8.66699 5 -18.334 7 -29.001s3 -22 3 -34zM738.01 281.001c-0.666992 14 -3.33398 28.5 -8.00098 43.5
s-12 28.833 -22 41.5s-22.833 23 -38.5 31s-34.5 12 -56.5 12c-20 0 -37.5 -4 -52.5 -12s-27.667 -18.167 -38 -30.5s-18.166 -26 -23.499 -41s-8.33301 -29.833 -9 -44.5h248zM383.01 173.001l0.000976562 9.00098c-14 15.333 -32.167 27.333 -54.5 36s-45.833 13 -70.5 13
c-32.667 0 -59.334 -6.83301 -80.001 -20.5s-31 -32.834 -31 -57.501c0 -25.333 10.333 -44.833 31 -58.5s46.667 -20.5 78 -20.5c18 0 34.667 3 50 9s28.833 13.667 40.5 23s20.667 19.833 27 31.5s9.5 23.5 9.5 35.5z" />
    <glyph glyph-name="ccedilla" unicode="&#xe7;" horiz-adv-x="497" 
d="M459 75c0 -8.66699 -2.33691 -16.0059 -7.00391 -22.0059c-6 -9.33301 -13.833 -17.666 -23.5 -24.999s-20.667 -13.666 -33 -18.999s-25.666 -9.66602 -39.999 -12.999s-29.166 -5.66602 -44.499 -6.99902l-16 -41c11.333 7.33301 23.333 11 36 11
c19.333 0 35.333 -6.33301 48 -19s19 -29.334 19 -50.001c0 -26 -10.667 -46.333 -32 -61s-46.666 -22 -75.999 -22c-11.333 0 -23 0.833008 -35 2.5s-23.333 4.33398 -34 8.00098s-19.334 8.16699 -26.001 13.5s-10 12 -10 20c0 6.66699 2.66699 12.5 8 17.5
s11.333 7.5 18 7.5c3.33301 0 6.66602 -1 9.99902 -3c10.667 -6 21.667 -10.5 33 -13.5s22 -4.5 32 -4.5c14.667 0 27.667 3 39 9s17 15 17 27c0 9.33301 -2.66699 16.666 -8 21.999s-13.333 8 -24 8c-8.66699 0 -16 -2.33301 -22 -7s-13 -7 -21 -7s-14.667 3 -20 9
s-8 12.333 -8 19v4.5c0 1.66699 0.333008 3.16699 1 4.5l17 46c-32.667 3.33301 -62.5 11.833 -89.5 25.5s-50 31.5 -69 53.5s-33.833 47.667 -44.5 77s-16 61.333 -16 96c0 36.667 6.16699 70.334 18.5 101.001s29.5 57.334 51.5 80.001s48.333 40.334 79 53.001
s64.334 19 101.001 19c18.667 0 36.334 -1.66699 53.001 -5s32 -7.83301 46 -13.5s26.5 -12.334 37.5 -20.001s19.833 -16.5 26.5 -26.5c4.66699 -6.66699 7 -14 7 -22c0 -14 -5.33301 -25.167 -16 -33.5s-22 -12.5 -34 -12.5c-11.333 0 -21.666 3.33301 -30.999 10
c-12.667 9.33301 -26 16.333 -40 21s-28.667 7 -44 7c-22 0 -41.833 -3.83301 -59.5 -11.5s-32.834 -18.5 -45.501 -32.5s-22.5 -30.833 -29.5 -50.5s-10.5 -40.834 -10.5 -63.501c0 -23.333 3.5 -44.666 10.5 -63.999s16.833 -36.166 29.5 -50.499
s27.834 -25.333 45.501 -33s37.5 -11.5 59.5 -11.5c32 0 60 9.66699 84 29c9.33301 6.66699 19.666 10 30.999 10c12.667 0 24.334 -4.33301 35.001 -13s16 -20 16 -34z" />
    <glyph glyph-name="egrave" unicode="&#xe8;" horiz-adv-x="557" 
d="M520 259c0 -14 -5.00293 -26.166 -15.0029 -36.499s-22.333 -15.5 -37 -15.5h-318c2 -18 6.83301 -35.167 14.5 -51.5s17.834 -30.5 30.501 -42.5s28 -21.5 46 -28.5s38.333 -10.5 61 -10.5c17.333 0 35.5 2.66699 54.5 8s36.833 13.333 53.5 24
c7.33301 4 14.666 6 21.999 6c10.667 0 20.834 -4 30.501 -12s14.5 -18.667 14.5 -32c0 -14 -6 -24.667 -18 -32c-24 -16.667 -50.167 -28.834 -78.5 -36.501s-58.166 -11.5 -89.499 -11.5c-36 0 -69.667 6 -101 18s-58.166 29.167 -80.499 51.5s-39.833 49 -52.5 80
s-19 65.833 -19 104.5c0 34.667 6 67.5 18 98.5s28.833 57.833 50.5 80.5s47.5 40.667 77.5 54s63 20 99 20c28.667 0 55 -4.16699 79 -12.5s45.5 -20 64.5 -35s35.5 -33 49.5 -54s24.667 -44.5 32 -70.5l8 -31.5c2.66699 -11 4 -21.833 4 -32.5zM416.997 281.001
c0 14 -2.66699 28.5 -8 43.5s-13.5 28.833 -24.5 41.5s-24.833 23 -41.5 31s-36.667 12 -60 12c-22.667 0 -42 -4 -58 -12s-29.5 -18.167 -40.5 -30.5s-19.5 -26 -25.5 -41s-9.33301 -29.833 -10 -44.5h268zM312.997 578.001c0 -7.33301 -2.66699 -13.834 -8 -19.501
s-12 -8.5 -20 -8.5c-6 0 -12 2.33301 -18 7l-106 92c-6.66699 5.33301 -10 13 -10 23c0 8.66699 3.33301 16.5 10 23.5s14.667 10.5 24 10.5s17.333 -3.33301 24 -10l96 -99c5.33301 -5.33301 8 -11.666 8 -18.999z" />
    <glyph glyph-name="eacute" unicode="&#xe9;" horiz-adv-x="557" 
d="M520 259c0 -14 -5.00293 -26.166 -15.0029 -36.499s-22.333 -15.5 -37 -15.5h-318c2 -18 6.83301 -35.167 14.5 -51.5s17.834 -30.5 30.501 -42.5s28 -21.5 46 -28.5s38.333 -10.5 61 -10.5c17.333 0 35.5 2.66699 54.5 8s36.833 13.333 53.5 24
c7.33301 4 14.666 6 21.999 6c10.667 0 20.834 -4 30.501 -12s14.5 -18.667 14.5 -32c0 -14 -6 -24.667 -18 -32c-24 -16.667 -50.167 -28.834 -78.5 -36.501s-58.166 -11.5 -89.499 -11.5c-36 0 -69.667 6 -101 18s-58.166 29.167 -80.499 51.5s-39.833 49 -52.5 80
s-19 65.833 -19 104.5c0 34.667 6 67.5 18 98.5s28.833 57.833 50.5 80.5s47.5 40.667 77.5 54s63 20 99 20c28.667 0 55 -4.16699 79 -12.5s45.5 -20 64.5 -35s35.5 -33 49.5 -54s24.667 -44.5 32 -70.5l8 -31.5c2.66699 -11 4 -21.833 4 -32.5zM416.997 281.001
c0 14 -2.66699 28.5 -8 43.5s-13.5 28.833 -24.5 41.5s-24.833 23 -41.5 31s-36.667 12 -60 12c-22.667 0 -42 -4 -58 -12s-29.5 -18.167 -40.5 -30.5s-19.5 -26 -25.5 -41s-9.33301 -29.833 -10 -44.5h268zM415.997 672.001c0 -10 -3.66699 -17.666 -11 -22.999l-105 -92
c-6 -4.66699 -12 -7 -18 -7c-6.66699 0 -13 2.66699 -19 8s-9 12 -9 20c0 7.33301 2.33301 13.666 7 18.999l97 99c5.33301 6.66699 13 10 23 10c8.66699 0 16.667 -3.16699 24 -9.5s11 -14.5 11 -24.5z" />
    <glyph glyph-name="ecircumflex" unicode="&#xea;" horiz-adv-x="557" 
d="M520 259c0 -14 -5.00293 -26.166 -15.0029 -36.499s-22.333 -15.5 -37 -15.5h-318c2 -18 6.83301 -35.167 14.5 -51.5s17.834 -30.5 30.501 -42.5s28 -21.5 46 -28.5s38.333 -10.5 61 -10.5c17.333 0 35.5 2.66699 54.5 8s36.833 13.333 53.5 24
c7.33301 4 14.666 6 21.999 6c10.667 0 20.834 -4 30.501 -12s14.5 -18.667 14.5 -32c0 -14 -6 -24.667 -18 -32c-24 -16.667 -50.167 -28.834 -78.5 -36.501s-58.166 -11.5 -89.499 -11.5c-36 0 -69.667 6 -101 18s-58.166 29.167 -80.499 51.5s-39.833 49 -52.5 80
s-19 65.833 -19 104.5c0 34.667 6 67.5 18 98.5s28.833 57.833 50.5 80.5s47.5 40.667 77.5 54s63 20 99 20c28.667 0 55 -4.16699 79 -12.5s45.5 -20 64.5 -35s35.5 -33 49.5 -54s24.667 -44.5 32 -70.5l8 -31.5c2.66699 -11 4 -21.833 4 -32.5zM416.997 281.001
c0 14 -2.66699 28.5 -8 43.5s-13.5 28.833 -24.5 41.5s-24.833 23 -41.5 31s-36.667 12 -60 12c-22.667 0 -42 -4 -58 -12s-29.5 -18.167 -40.5 -30.5s-19.5 -26 -25.5 -41s-9.33301 -29.833 -10 -44.5h268zM406.997 578.001c0 -6 -2.5 -12.332 -7.5 -18.999
s-12.167 -10 -21.5 -10s-16.666 3.66699 -21.999 11l-73 92l-72 -92c-6 -6.66699 -13 -10 -21 -10s-15 2.5 -21 7.5s-9 11.5 -9 19.5c0 5.33301 1.66699 10.666 5 15.999l49 76c7.33301 11.333 17.166 20.333 29.499 27s25.833 10 40.5 10c13.333 0 26 -3.33301 38 -10
s22 -15.667 30 -27l51 -76c2.66699 -4 4 -9 4 -15z" />
    <glyph glyph-name="edieresis" unicode="&#xeb;" horiz-adv-x="557" 
d="M520 259c0 -14 -5.00293 -26.166 -15.0029 -36.499s-22.333 -15.5 -37 -15.5h-318c2 -18 6.83301 -35.167 14.5 -51.5s17.834 -30.5 30.501 -42.5s28 -21.5 46 -28.5s38.333 -10.5 61 -10.5c17.333 0 35.5 2.66699 54.5 8s36.833 13.333 53.5 24
c7.33301 4 14.666 6 21.999 6c10.667 0 20.834 -4 30.501 -12s14.5 -18.667 14.5 -32c0 -14 -6 -24.667 -18 -32c-24 -16.667 -50.167 -28.834 -78.5 -36.501s-58.166 -11.5 -89.499 -11.5c-36 0 -69.667 6 -101 18s-58.166 29.167 -80.499 51.5s-39.833 49 -52.5 80
s-19 65.833 -19 104.5c0 34.667 6 67.5 18 98.5s28.833 57.833 50.5 80.5s47.5 40.667 77.5 54s63 20 99 20c28.667 0 55 -4.16699 79 -12.5s45.5 -20 64.5 -35s35.5 -33 49.5 -54s24.667 -44.5 32 -70.5l8 -31.5c2.66699 -11 4 -21.833 4 -32.5zM416.997 281.001
c0 14 -2.66699 28.5 -8 43.5s-13.5 28.833 -24.5 41.5s-24.833 23 -41.5 31s-36.667 12 -60 12c-22.667 0 -42 -4 -58 -12s-29.5 -18.167 -40.5 -30.5s-19.5 -26 -25.5 -41s-9.33301 -29.833 -10 -44.5h268zM448.997 608.001c0 -16.667 -6 -30.834 -18 -42.501
s-26 -17.5 -42 -17.5c-16.667 0 -30.834 5.83301 -42.501 17.5s-17.5 25.834 -17.5 42.501s5.83301 30.667 17.5 42s25.834 17 42.501 17c16 0 30 -5.66699 42 -17s18 -25.333 18 -42zM237.997 608.001c0 -16.667 -5.66699 -30.834 -17 -42.501s-25 -17.5 -41 -17.5
c-17.333 0 -31.666 5.83301 -42.999 17.5s-17 25.834 -17 42.501s5.66699 30.667 17 42s25.666 17 42.999 17c16 0 29.667 -5.66699 41 -17s17 -25.333 17 -42z" />
    <glyph glyph-name="igrave" unicode="&#xec;" horiz-adv-x="242" 
d="M175 47c0 -14.667 -5.33203 -27.167 -15.999 -37.5s-23.334 -15.5 -38.001 -15.5s-27.167 5.16699 -37.5 15.5s-15.5 22.833 -15.5 37.5v390c0 14 5.16699 26.167 15.5 36.5s23.5 15.5 39.5 15.5c14 0 26.167 -5.16699 36.5 -15.5s15.5 -22.5 15.5 -36.5v-390v0z
M153.001 578c0 -7.33301 -2.66699 -13.834 -8 -19.501s-12 -8.5 -20 -8.5c-6 0 -12 2.33301 -18 7l-106 92c-6.66699 5.33301 -10 13 -10 23c0 8.66699 3.33301 16.5 10 23.5s14.667 10.5 24 10.5s17.333 -3.33301 24 -10l96 -99c5.33301 -5.33301 8 -11.666 8 -18.999z" />
    <glyph glyph-name="iacute" unicode="&#xed;" horiz-adv-x="242" 
d="M175 47c0 -14.667 -5.33203 -27.167 -15.999 -37.5s-23.334 -15.5 -38.001 -15.5s-27.167 5.16699 -37.5 15.5s-15.5 22.833 -15.5 37.5v390c0 14 5.16699 26.167 15.5 36.5s23.5 15.5 39.5 15.5c14 0 26.167 -5.16699 36.5 -15.5s15.5 -22.5 15.5 -36.5v-390v0z
M254.001 672c0 -10 -3.66699 -17.666 -11 -22.999l-105 -92c-6 -4.66699 -12 -7 -18 -7c-6.66699 0 -13 2.66699 -19 8s-9 12 -9 20c0 7.33301 2.33301 13.666 7 18.999l97 99c5.33301 6.66699 13 10 23 10c8.66699 0 16.667 -3.16699 24 -9.5s11 -14.5 11 -24.5z" />
    <glyph glyph-name="icircumflex" unicode="&#xee;" horiz-adv-x="242" 
d="M175 47c0 -14.667 -5.33203 -27.167 -15.999 -37.5s-23.334 -15.5 -38.001 -15.5s-27.167 5.16699 -37.5 15.5s-15.5 22.833 -15.5 37.5v390c0 14 5.16699 26.167 15.5 36.5s23.5 15.5 39.5 15.5c14 0 26.167 -5.16699 36.5 -15.5s15.5 -22.5 15.5 -36.5v-390v0z
M246.001 578c0 -6 -2.5 -12.332 -7.5 -18.999s-12.167 -10 -21.5 -10s-16.666 3.66699 -21.999 11l-73 92l-72 -92c-6 -6.66699 -13 -10 -21 -10s-15 2.5 -21 7.5s-9 11.5 -9 19.5c0 5.33301 1.66699 10.666 5 15.999l49 76c7.33301 11.333 17.166 20.333 29.499 27
s25.833 10 40.5 10c13.333 0 26 -3.33301 38 -10s22 -15.667 30 -27l51 -76c2.66699 -4 4 -9 4 -15z" />
    <glyph glyph-name="idieresis" unicode="&#xef;" horiz-adv-x="242" 
d="M175 47c0 -14.667 -5.33203 -27.167 -15.999 -37.5s-23.334 -15.5 -38.001 -15.5s-27.167 5.16699 -37.5 15.5s-15.5 22.833 -15.5 37.5v390c0 14 5.16699 26.167 15.5 36.5s23.5 15.5 39.5 15.5c14 0 26.167 -5.16699 36.5 -15.5s15.5 -22.5 15.5 -36.5v-390v0z
M288.001 608c0 -16.667 -6 -30.834 -18 -42.501s-26 -17.5 -42 -17.5c-16.667 0 -30.834 5.83301 -42.501 17.5s-17.5 25.834 -17.5 42.501s5.83301 30.667 17.5 42s25.834 17 42.501 17c16 0 30 -5.66699 42 -17s18 -25.333 18 -42zM77.001 608
c0 -16.667 -5.66699 -30.834 -17 -42.501s-25 -17.5 -41 -17.5c-17.333 0 -31.666 5.83301 -42.999 17.5s-17 25.834 -17 42.501s5.66699 30.667 17 42s25.666 17 42.999 17c16 0 29.667 -5.66699 41 -17s17 -25.333 17 -42z" />
    <glyph glyph-name="eth" unicode="&#xf0;" horiz-adv-x="573" 
d="M536 250c0 -38.667 -5.66113 -74.0029 -16.9941 -106.003s-27.833 -59.5 -49.5 -82.5s-47.834 -41 -78.501 -54s-65.334 -19.5 -104.001 -19.5c-38 0 -72.333 6 -103 18s-56.834 28.667 -78.501 50s-38.334 46.666 -50.001 75.999s-17.5 61.333 -17.5 96
s5.33301 66.5 16 95.5s25.667 54.333 45 76s42.333 38.334 69 50.001s55.334 17.5 86.001 17.5c33.333 0 63.166 -7.33301 89.499 -22s49.5 -37.667 69.5 -69c-15.333 31.333 -36.833 60.833 -64.5 88.5s-58.834 53.834 -93.501 78.501l-123 -54
c-4 -1.33301 -7.66699 -2 -11 -2c-6.66699 0 -13 2.66699 -19 8s-9 12.333 -9 21c0 12.667 5.66699 21.334 17 26.001l89 40l-17 11c-6 4 -11.333 8.33301 -16 13s-8.5 9.83398 -11.5 15.501s-4.5 12.167 -4.5 19.5c0.666992 15.333 6.33398 27.833 17.001 37.5
s22.667 14.5 36 14.5c7.33301 0 15.5 -2.16699 24.5 -6.5s18.5 -9.83301 28.5 -16.5s19.667 -13.5 29 -20.5l25 -19.5l84 37c3.33301 1.33301 6.66602 2 9.99902 2c6.66699 0 13 -2.5 19 -7.5s9 -11.833 9 -20.5c0 -12 -5.33301 -20.333 -16 -25l-57 -26
c26.667 -23.333 51 -47.833 73 -73.5s40.667 -52.5 56 -80.5s27.166 -57.5 35.499 -88.5s12.5 -63.5 12.5 -97.5zM424.006 227.997c0 19.333 -3 37.666 -9 54.999s-14.833 32.666 -26.5 45.999s-26 23.833 -43 31.5s-36.5 11.5 -58.5 11.5
c-22.667 0 -42.5 -3.83301 -59.5 -11.5s-31.333 -18.167 -43 -31.5s-20.5 -28.666 -26.5 -45.999s-9 -35.666 -9 -54.999s3 -37.833 9 -55.5s14.833 -33 26.5 -46s26 -23.5 43 -31.5s36.833 -12 59.5 -12c22 0 41.5 4 58.5 12s31.333 18.5 43 31.5s20.5 28.333 26.5 46
s9 36.167 9 55.5z" />
    <glyph glyph-name="ntilde" unicode="&#xf1;" 
d="M501 47c0 -14.667 -5.33008 -27.166 -15.9971 -37.499s-23.334 -15.5 -38.001 -15.5s-27.167 5.16699 -37.5 15.5s-15.5 22.833 -15.5 37.5v254c0 37.333 -8.83301 63.166 -26.5 77.499s-41.167 21.5 -70.5 21.5c-13.333 0 -26 -1.83301 -38 -5.5s-23.333 -8.5 -34 -14.5
s-20.334 -12.833 -29.001 -20.5s-15.667 -15.5 -21 -23.5v-289c0 -14.667 -5.33301 -27.167 -16 -37.5s-23.334 -15.5 -38.001 -15.5s-27.167 5.16699 -37.5 15.5s-15.5 22.833 -15.5 37.5v390c0 14 5.16699 26.167 15.5 36.5s23.5 15.5 39.5 15.5
c14 0 26.167 -5.16699 36.5 -15.5s15.5 -22.5 15.5 -36.5v-20c8 10 17.667 19.5 29 28.5s24.333 17.333 39 25s30.5 13.667 47.5 18s35.167 6.5 54.5 6.5c52 0 91 -13.5 117 -40.5s39 -65.167 39 -114.5v-293v0zM444.003 664.001
c-0.666992 -11.333 -2.83008 -23.498 -6.49707 -36.498s-9.5 -24.833 -17.5 -35.5s-18.333 -19.667 -31 -27s-28.334 -11 -47.001 -11c-17.333 0 -31.333 4 -42 12s-20 16.833 -28 26.5l-22.5 26.5c-7 8 -15.833 12 -26.5 12c-9.33301 0 -17.333 -3.66699 -24 -11
s-11.334 -19.333 -14.001 -36c-1.33301 -8 -5.33301 -14.667 -12 -20s-14 -8 -22 -8s-14.167 2.66699 -18.5 8s-6.5 11.666 -6.5 18.999c0 11.333 1.83301 23.666 5.5 36.999s9.66699 25.333 18 36s18.833 19.667 31.5 27s28.334 11 47.001 11
c17.333 0 31.166 -4 41.499 -12s19.5 -16.833 27.5 -26.5s15.667 -18.5 23 -26.5s16 -12 26 -12c9.33301 0 17.333 3.66699 24 11s11.667 19.333 15 36c1.33301 8 5.16602 14.667 11.499 20s13.5 8 21.5 8c8.66699 0 15.167 -2.83301 19.5 -8.5s6.5 -12.167 6.5 -19.5z" />
    <glyph glyph-name="ograve" unicode="&#xf2;" horiz-adv-x="573" 
d="M536 242c0 -34.667 -5.66699 -67.334 -17 -98.001s-27.833 -57.5 -49.5 -80.5s-47.834 -41.333 -78.501 -55s-65.334 -20.5 -104.001 -20.5s-73.5 6.83301 -104.5 20.5s-57.167 32 -78.5 55s-37.666 49.833 -48.999 80.5s-17 63.334 -17 98.001
c0 34 5.66699 66.5 17 97.5s27.666 57.833 48.999 80.5s47.5 40.834 78.5 54.501s65.833 20.5 104.5 20.5s73.334 -6.83301 104.001 -20.5s56.834 -31.834 78.501 -54.501s38.167 -49.5 49.5 -80.5s17 -63.5 17 -97.5zM424 242c0 20.667 -3 40.667 -9 60
s-14.833 36.166 -26.5 50.499s-26 25.833 -43 34.5s-36.5 13 -58.5 13c-22.667 0 -42.5 -4.33301 -59.5 -13s-31.333 -20.167 -43 -34.5s-20.5 -31.166 -26.5 -50.499s-9 -39.333 -9 -60c0 -21.333 3 -41.666 9 -60.999s14.833 -36.166 26.5 -50.499s26 -25.833 43 -34.5
s36.833 -13 59.5 -13c22 0 41.5 4.33301 58.5 13s31.333 20.167 43 34.5s20.5 31.166 26.5 50.499s9 39.666 9 60.999zM317 578c0 -7.33301 -2.66699 -13.834 -8 -19.501s-12 -8.5 -20 -8.5c-6 0 -12 2.33301 -18 7l-106 92c-6.66699 5.33301 -10 13 -10 23
c0 8.66699 3.33301 16.5 10 23.5s14.667 10.5 24 10.5s17.333 -3.33301 24 -10l96 -99c5.33301 -5.33301 8 -11.666 8 -18.999z" />
    <glyph glyph-name="oacute" unicode="&#xf3;" horiz-adv-x="573" 
d="M536 242c0 -34.667 -5.66699 -67.334 -17 -98.001s-27.833 -57.5 -49.5 -80.5s-47.834 -41.333 -78.501 -55s-65.334 -20.5 -104.001 -20.5s-73.5 6.83301 -104.5 20.5s-57.167 32 -78.5 55s-37.666 49.833 -48.999 80.5s-17 63.334 -17 98.001
c0 34 5.66699 66.5 17 97.5s27.666 57.833 48.999 80.5s47.5 40.834 78.5 54.501s65.833 20.5 104.5 20.5s73.334 -6.83301 104.001 -20.5s56.834 -31.834 78.501 -54.501s38.167 -49.5 49.5 -80.5s17 -63.5 17 -97.5zM424 242c0 20.667 -3 40.667 -9 60
s-14.833 36.166 -26.5 50.499s-26 25.833 -43 34.5s-36.5 13 -58.5 13c-22.667 0 -42.5 -4.33301 -59.5 -13s-31.333 -20.167 -43 -34.5s-20.5 -31.166 -26.5 -50.499s-9 -39.333 -9 -60c0 -21.333 3 -41.666 9 -60.999s14.833 -36.166 26.5 -50.499s26 -25.833 43 -34.5
s36.833 -13 59.5 -13c22 0 41.5 4.33301 58.5 13s31.333 20.167 43 34.5s20.5 31.166 26.5 50.499s9 39.666 9 60.999zM420 672c0 -10 -3.66699 -17.666 -11 -22.999l-105 -92c-6 -4.66699 -12 -7 -18 -7c-6.66699 0 -13 2.66699 -19 8s-9 12 -9 20
c0 7.33301 2.33301 13.666 7 18.999l97 99c5.33301 6.66699 13 10 23 10c8.66699 0 16.667 -3.16699 24 -9.5s11 -14.5 11 -24.5z" />
    <glyph glyph-name="ocircumflex" unicode="&#xf4;" horiz-adv-x="573" 
d="M536 242c0 -34.667 -5.66699 -67.334 -17 -98.001s-27.833 -57.5 -49.5 -80.5s-47.834 -41.333 -78.501 -55s-65.334 -20.5 -104.001 -20.5s-73.5 6.83301 -104.5 20.5s-57.167 32 -78.5 55s-37.666 49.833 -48.999 80.5s-17 63.334 -17 98.001
c0 34 5.66699 66.5 17 97.5s27.666 57.833 48.999 80.5s47.5 40.834 78.5 54.501s65.833 20.5 104.5 20.5s73.334 -6.83301 104.001 -20.5s56.834 -31.834 78.501 -54.501s38.167 -49.5 49.5 -80.5s17 -63.5 17 -97.5zM424 242c0 20.667 -3 40.667 -9 60
s-14.833 36.166 -26.5 50.499s-26 25.833 -43 34.5s-36.5 13 -58.5 13c-22.667 0 -42.5 -4.33301 -59.5 -13s-31.333 -20.167 -43 -34.5s-20.5 -31.166 -26.5 -50.499s-9 -39.333 -9 -60c0 -21.333 3 -41.666 9 -60.999s14.833 -36.166 26.5 -50.499s26 -25.833 43 -34.5
s36.833 -13 59.5 -13c22 0 41.5 4.33301 58.5 13s31.333 20.167 43 34.5s20.5 31.166 26.5 50.499s9 39.666 9 60.999zM410 578c0 -6 -2.5 -12.332 -7.5 -18.999s-12.167 -10 -21.5 -10s-16.666 3.66699 -21.999 11l-73 92l-72 -92c-6 -6.66699 -13 -10 -21 -10
s-15 2.5 -21 7.5s-9 11.5 -9 19.5c0 5.33301 1.66699 10.666 5 15.999l49 76c7.33301 11.333 17.166 20.333 29.499 27s25.833 10 40.5 10c13.333 0 26 -3.33301 38 -10s22 -15.667 30 -27l51 -76c2.66699 -4 4 -9 4 -15z" />
    <glyph glyph-name="otilde" unicode="&#xf5;" horiz-adv-x="573" 
d="M536 242c0 -34.667 -5.66699 -67.334 -17 -98.001s-27.833 -57.5 -49.5 -80.5s-47.834 -41.333 -78.501 -55s-65.334 -20.5 -104.001 -20.5s-73.5 6.83301 -104.5 20.5s-57.167 32 -78.5 55s-37.666 49.833 -48.999 80.5s-17 63.334 -17 98.001
c0 34 5.66699 66.5 17 97.5s27.666 57.833 48.999 80.5s47.5 40.834 78.5 54.501s65.833 20.5 104.5 20.5s73.334 -6.83301 104.001 -20.5s56.834 -31.834 78.501 -54.501s38.167 -49.5 49.5 -80.5s17 -63.5 17 -97.5zM424 242c0 20.667 -3 40.667 -9 60
s-14.833 36.166 -26.5 50.499s-26 25.833 -43 34.5s-36.5 13 -58.5 13c-22.667 0 -42.5 -4.33301 -59.5 -13s-31.333 -20.167 -43 -34.5s-20.5 -31.166 -26.5 -50.499s-9 -39.333 -9 -60c0 -21.333 3 -41.666 9 -60.999s14.833 -36.166 26.5 -50.499s26 -25.833 43 -34.5
s36.833 -13 59.5 -13c22 0 41.5 4.33301 58.5 13s31.333 20.167 43 34.5s20.5 31.166 26.5 50.499s9 39.666 9 60.999zM446 664c-0.666992 -11.333 -2.83008 -23.498 -6.49707 -36.498s-9.5 -24.833 -17.5 -35.5s-18.333 -19.667 -31 -27s-28.334 -11 -47.001 -11
c-17.333 0 -31.333 4 -42 12s-20 16.833 -28 26.5l-22.5 26.5c-7 8 -15.833 12 -26.5 12c-9.33301 0 -17.333 -3.66699 -24 -11s-11.334 -19.333 -14.001 -36c-1.33301 -8 -5.33301 -14.667 -12 -20s-14 -8 -22 -8s-14.167 2.66699 -18.5 8s-6.5 11.666 -6.5 18.999
c0 11.333 1.83301 23.666 5.5 36.999s9.66699 25.333 18 36s18.833 19.667 31.5 27s28.334 11 47.001 11c17.333 0 31.166 -4 41.499 -12s19.5 -16.833 27.5 -26.5s15.667 -18.5 23 -26.5s16 -12 26 -12c9.33301 0 17.333 3.66699 24 11s11.667 19.333 15 36
c1.33301 8 5.16602 14.667 11.499 20s13.5 8 21.5 8c8.66699 0 15.167 -2.83301 19.5 -8.5s6.5 -12.167 6.5 -19.5z" />
    <glyph glyph-name="odieresis" unicode="&#xf6;" horiz-adv-x="573" 
d="M536 242c0 -34.667 -5.66699 -67.334 -17 -98.001s-27.833 -57.5 -49.5 -80.5s-47.834 -41.333 -78.501 -55s-65.334 -20.5 -104.001 -20.5s-73.5 6.83301 -104.5 20.5s-57.167 32 -78.5 55s-37.666 49.833 -48.999 80.5s-17 63.334 -17 98.001
c0 34 5.66699 66.5 17 97.5s27.666 57.833 48.999 80.5s47.5 40.834 78.5 54.501s65.833 20.5 104.5 20.5s73.334 -6.83301 104.001 -20.5s56.834 -31.834 78.501 -54.501s38.167 -49.5 49.5 -80.5s17 -63.5 17 -97.5zM424 242c0 20.667 -3 40.667 -9 60
s-14.833 36.166 -26.5 50.499s-26 25.833 -43 34.5s-36.5 13 -58.5 13c-22.667 0 -42.5 -4.33301 -59.5 -13s-31.333 -20.167 -43 -34.5s-20.5 -31.166 -26.5 -50.499s-9 -39.333 -9 -60c0 -21.333 3 -41.666 9 -60.999s14.833 -36.166 26.5 -50.499s26 -25.833 43 -34.5
s36.833 -13 59.5 -13c22 0 41.5 4.33301 58.5 13s31.333 20.167 43 34.5s20.5 31.166 26.5 50.499s9 39.666 9 60.999zM452 608c0 -16.667 -6 -30.834 -18 -42.501s-26 -17.5 -42 -17.5c-16.667 0 -30.834 5.83301 -42.501 17.5s-17.5 25.834 -17.5 42.501
s5.83301 30.667 17.5 42s25.834 17 42.501 17c16 0 30 -5.66699 42 -17s18 -25.333 18 -42zM241 608c0 -16.667 -5.66699 -30.834 -17 -42.501s-25 -17.5 -41 -17.5c-17.333 0 -31.666 5.83301 -42.999 17.5s-17 25.834 -17 42.501s5.66699 30.667 17 42
s25.666 17 42.999 17c16 0 29.667 -5.66699 41 -17s17 -25.333 17 -42z" />
    <glyph glyph-name="divide" unicode="&#xf7;" horiz-adv-x="511" 
d="M255 574c16 0 29.333 -5.16699 40 -15.5s16 -23.166 16 -38.499s-5.33301 -28.5 -16 -39.5s-24 -16.5 -40 -16.5c-15.333 0 -28.333 5.5 -39 16.5s-16 24.167 -16 39.5s5.33301 28.166 16 38.499s23.667 15.5 39 15.5zM486 339c0 -10.667 -3.16699 -19.334 -9.5 -26.001
s-14.166 -10 -23.499 -10h-394c-10 0 -18.167 3.33301 -24.5 10s-9.5 15.334 -9.5 26.001c0 9.33301 3.16699 17.166 9.5 23.499s14.5 9.5 24.5 9.5h394c9.33301 0 17.166 -3.16699 23.499 -9.5s9.5 -14.166 9.5 -23.499zM311 152c0 -15.333 -5.33301 -28.333 -16 -39
s-24 -16 -40 -16c-15.333 0 -28.333 5.33301 -39 16s-16 23.667 -16 39s5.33301 28.333 16 39s23.667 16 39 16c16 0 29.333 -5.33301 40 -16s16 -23.667 16 -39z" />
    <glyph glyph-name="oslash" unicode="&#xf8;" horiz-adv-x="573" 
d="M118 0c-5.33301 -6 -11.6641 -8.99805 -18.9971 -8.99805c-6.66699 0 -12.834 2.66699 -18.501 8s-8.5 11.666 -8.5 18.999c0 6.66699 2 12 6 16l25 31c-21.333 23.333 -37.5 50 -48.5 80s-16.5 62.333 -16.5 97c0 34 5.66699 66.5 17 97.5s27.666 57.833 48.999 80.5
s47.5 40.834 78.5 54.501s65.833 20.5 104.5 20.5c27.333 0 52.5 -3.33301 75.5 -10s44.167 -16.334 63.5 -29.001l22 26c3.33301 6 9.33301 9 18 9c7.33301 0 14 -2.5 20 -7.5s9 -11.167 9 -18.5c0 -6 -2 -11.667 -6 -17l-22 -26c22.667 -23.333 39.834 -50.333 51.501 -81
s17.5 -63.667 17.5 -99c0 -34.667 -5.66699 -67.334 -17 -98.001s-27.833 -57.5 -49.5 -80.5s-47.834 -41.333 -78.501 -55s-65.334 -20.5 -104.001 -20.5c-56.667 0 -104.667 14 -144 42zM208.002 108.002c10.667 -8 22.5 -14.165 35.5 -18.498s27.5 -6.5 43.5 -6.5
c22 0 41.5 4.33301 58.5 13s31.333 20.167 43 34.5s20.5 31.166 26.5 50.499s9 39.666 9 60.999c0 36.667 -8.66699 69 -26 97zM287.002 400.004c-22.667 0 -42.5 -4.33398 -59.5 -13.001s-31.333 -20.167 -43 -34.5s-20.5 -31.166 -26.5 -50.499s-9 -39.333 -9 -60
c0 -35.333 8 -66.333 24 -93l188 229c-21.333 14.667 -46 22 -74 22z" />
    <glyph glyph-name="ugrave" unicode="&#xf9;" 
d="M501 47c0 -14.667 -5.33301 -27.166 -16 -37.499s-23.334 -15.5 -38.001 -15.5s-27.167 5.16699 -37.5 15.5s-15.5 22.833 -15.5 37.5v17c-18 -20 -41.333 -37.667 -70 -53s-62.334 -23 -101.001 -23c-52.667 0 -91.667 13.167 -117 39.5s-38 64.166 -38 113.499v296
c0 14 5.16699 26.167 15.5 36.5s23.5 15.5 39.5 15.5c14 0 26.167 -5.16699 36.5 -15.5s15.5 -22.5 15.5 -36.5v-257c0 -18 2.16699 -33.167 6.5 -45.5s10.833 -22.333 19.5 -30s18.834 -13.167 30.501 -16.5s24.834 -5 39.501 -5c26.667 0 50.667 6.33301 72 19
s38.333 27 51 43v292c0 14 5.16699 26.167 15.5 36.5s23.5 15.5 39.5 15.5c14 0 26.167 -5.16699 36.5 -15.5s15.5 -22.5 15.5 -36.5v-390v0zM314 578.001c0 -7.33301 -2.66699 -13.834 -8 -19.501s-12 -8.5 -20 -8.5c-6 0 -12 2.33301 -18 7l-106 92
c-6.66699 5.33301 -10 13 -10 23c0 8.66699 3.33301 16.5 10 23.5s14.667 10.5 24 10.5s17.333 -3.33301 24 -10l96 -99c5.33301 -5.33301 8 -11.666 8 -18.999z" />
    <glyph glyph-name="uacute" unicode="&#xfa;" 
d="M501 47c0 -14.667 -5.33301 -27.166 -16 -37.499s-23.334 -15.5 -38.001 -15.5s-27.167 5.16699 -37.5 15.5s-15.5 22.833 -15.5 37.5v17c-18 -20 -41.333 -37.667 -70 -53s-62.334 -23 -101.001 -23c-52.667 0 -91.667 13.167 -117 39.5s-38 64.166 -38 113.499v296
c0 14 5.16699 26.167 15.5 36.5s23.5 15.5 39.5 15.5c14 0 26.167 -5.16699 36.5 -15.5s15.5 -22.5 15.5 -36.5v-257c0 -18 2.16699 -33.167 6.5 -45.5s10.833 -22.333 19.5 -30s18.834 -13.167 30.501 -16.5s24.834 -5 39.501 -5c26.667 0 50.667 6.33301 72 19
s38.333 27 51 43v292c0 14 5.16699 26.167 15.5 36.5s23.5 15.5 39.5 15.5c14 0 26.167 -5.16699 36.5 -15.5s15.5 -22.5 15.5 -36.5v-390v0zM416 672.001c0 -10 -3.66699 -17.666 -11 -22.999l-105 -92c-6 -4.66699 -12 -7 -18 -7c-6.66699 0 -13 2.66699 -19 8
s-9 12 -9 20c0 7.33301 2.33301 13.666 7 18.999l97 99c5.33301 6.66699 13 10 23 10c8.66699 0 16.667 -3.16699 24 -9.5s11 -14.5 11 -24.5z" />
    <glyph glyph-name="ucircumflex" unicode="&#xfb;" 
d="M501 47c0 -14.667 -5.33301 -27.166 -16 -37.499s-23.334 -15.5 -38.001 -15.5s-27.167 5.16699 -37.5 15.5s-15.5 22.833 -15.5 37.5v17c-18 -20 -41.333 -37.667 -70 -53s-62.334 -23 -101.001 -23c-52.667 0 -91.667 13.167 -117 39.5s-38 64.166 -38 113.499v296
c0 14 5.16699 26.167 15.5 36.5s23.5 15.5 39.5 15.5c14 0 26.167 -5.16699 36.5 -15.5s15.5 -22.5 15.5 -36.5v-257c0 -18 2.16699 -33.167 6.5 -45.5s10.833 -22.333 19.5 -30s18.834 -13.167 30.501 -16.5s24.834 -5 39.501 -5c26.667 0 50.667 6.33301 72 19
s38.333 27 51 43v292c0 14 5.16699 26.167 15.5 36.5s23.5 15.5 39.5 15.5c14 0 26.167 -5.16699 36.5 -15.5s15.5 -22.5 15.5 -36.5v-390v0zM407 578.001c0 -6 -2.5 -12.332 -7.5 -18.999s-12.167 -10 -21.5 -10s-16.666 3.66699 -21.999 11l-73 92l-72 -92
c-6 -6.66699 -13 -10 -21 -10s-15 2.5 -21 7.5s-9 11.5 -9 19.5c0 5.33301 1.66699 10.666 5 15.999l49 76c7.33301 11.333 17.166 20.333 29.499 27s25.833 10 40.5 10c13.333 0 26 -3.33301 38 -10s22 -15.667 30 -27l51 -76c2.66699 -4 4 -9 4 -15z" />
    <glyph glyph-name="udieresis" unicode="&#xfc;" 
d="M501 47c0 -14.667 -5.33301 -27.166 -16 -37.499s-23.334 -15.5 -38.001 -15.5s-27.167 5.16699 -37.5 15.5s-15.5 22.833 -15.5 37.5v17c-18 -20 -41.333 -37.667 -70 -53s-62.334 -23 -101.001 -23c-52.667 0 -91.667 13.167 -117 39.5s-38 64.166 -38 113.499v296
c0 14 5.16699 26.167 15.5 36.5s23.5 15.5 39.5 15.5c14 0 26.167 -5.16699 36.5 -15.5s15.5 -22.5 15.5 -36.5v-257c0 -18 2.16699 -33.167 6.5 -45.5s10.833 -22.333 19.5 -30s18.834 -13.167 30.501 -16.5s24.834 -5 39.501 -5c26.667 0 50.667 6.33301 72 19
s38.333 27 51 43v292c0 14 5.16699 26.167 15.5 36.5s23.5 15.5 39.5 15.5c14 0 26.167 -5.16699 36.5 -15.5s15.5 -22.5 15.5 -36.5v-390v0zM450 608.001c0 -16.667 -6 -30.834 -18 -42.501s-26 -17.5 -42 -17.5c-16.667 0 -30.834 5.83301 -42.501 17.5
s-17.5 25.834 -17.5 42.501s5.83301 30.667 17.5 42s25.834 17 42.501 17c16 0 30 -5.66699 42 -17s18 -25.333 18 -42zM239 608.001c0 -16.667 -5.66699 -30.834 -17 -42.501s-25 -17.5 -41 -17.5c-17.333 0 -31.666 5.83301 -42.999 17.5s-17 25.834 -17 42.501
s5.66699 30.667 17 42s25.666 17 42.999 17c16 0 29.667 -5.66699 41 -17s17 -25.333 17 -42z" />
    <glyph glyph-name="yacute" unicode="&#xfd;" horiz-adv-x="504" 
d="M484 437c0 -8 -1.33203 -14.666 -3.99902 -19.999l-206 -503c-16.667 -39.333 -38.5 -67.5 -65.5 -84.5s-57.5 -25.5 -91.5 -25.5c-9.33301 0 -18.166 1 -26.499 3s-15.833 4.83301 -22.5 8.5s-12 8.66699 -16 15s-6 13.5 -6 21.5c0 13.333 4.66699 24.666 14 33.999
s21.333 14 36 14c3.33301 0 6.66602 -0.166992 9.99902 -0.5s6.66602 -0.166016 9.99902 0.500977c12 0.666992 22.833 4.16699 32.5 10.5s17.5 16.166 23.5 29.499l24 54l-173 424c-2 5.33301 -3 11.333 -3 18c0 13.333 4.83301 25.5 14.5 36.5s22.834 16.5 39.501 16.5
c10.667 0 20.5 -3 29.5 -9s15.833 -14.667 20.5 -26l128 -330l128 330c4 10.667 10.667 19.167 20 25.5s19.666 9.5 30.999 9.5c16 0 28.833 -5.33301 38.5 -16s14.5 -22.667 14.5 -36zM384.001 672.001c0 -10 -3.66699 -17.666 -11 -22.999l-105 -92
c-6 -4.66699 -12 -7 -18 -7c-6.66699 0 -13 2.66699 -19 8s-9 12 -9 20c0 7.33301 2.33301 13.666 7 18.999l97 99c5.33301 6.66699 13 10 23 10c8.66699 0 16.667 -3.16699 24 -9.5s11 -14.5 11 -24.5z" />
    <glyph glyph-name="thorn" unicode="&#xfe;" horiz-adv-x="579" 
d="M543 242c0 -40 -5.16699 -75.667 -15.5 -107s-25 -58 -44 -80s-41.667 -38.667 -68 -50s-55.166 -17 -86.499 -17c-30.667 0 -59.167 6.5 -85.5 19.5s-49.166 32.5 -68.499 58.5v-202c0 -14 -5.33301 -26.167 -16 -36.5s-23.334 -15.5 -38.001 -15.5
s-27.167 5.16699 -37.5 15.5s-15.5 22.5 -15.5 36.5v755c0 14 5.16699 26.167 15.5 36.5s23.5 15.5 39.5 15.5c14 0 26.167 -5.16699 36.5 -15.5s15.5 -22.5 15.5 -36.5v-201c18 24 40.333 42.833 67 56.5s55.667 20.5 87 20.5s60.166 -5.66699 86.499 -17
s49 -27.833 68 -49.5s33.667 -48.167 44 -79.5s15.5 -67 15.5 -107zM432 242c0 22.667 -3.16699 43.835 -9.5 63.502s-15.333 36.5 -27 50.5s-25.834 24.833 -42.501 32.5s-35.334 11.5 -56.001 11.5c-24 0 -47.5 -6.16699 -70.5 -18.5s-40.167 -27.5 -51.5 -45.5v-189
c11.333 -17.333 28.5 -32.333 51.5 -45s46.5 -19 70.5 -19c20.667 0 39.334 3.83301 56.001 11.5s30.834 18.667 42.501 33s20.667 31.166 27 50.499s9.5 40.666 9.5 63.999z" />
    <glyph glyph-name="ydieresis" unicode="&#xff;" horiz-adv-x="504" 
d="M484 437c0 -8 -1.33203 -14.666 -3.99902 -19.999l-206 -503c-16.667 -39.333 -38.5 -67.5 -65.5 -84.5s-57.5 -25.5 -91.5 -25.5c-9.33301 0 -18.166 1 -26.499 3s-15.833 4.83301 -22.5 8.5s-12 8.66699 -16 15s-6 13.5 -6 21.5c0 13.333 4.66699 24.666 14 33.999
s21.333 14 36 14c3.33301 0 6.66602 -0.166992 9.99902 -0.5s6.66602 -0.166016 9.99902 0.500977c12 0.666992 22.833 4.16699 32.5 10.5s17.5 16.166 23.5 29.499l24 54l-173 424c-2 5.33301 -3 11.333 -3 18c0 13.333 4.83301 25.5 14.5 36.5s22.834 16.5 39.501 16.5
c10.667 0 20.5 -3 29.5 -9s15.833 -14.667 20.5 -26l128 -330l128 330c4 10.667 10.667 19.167 20 25.5s19.666 9.5 30.999 9.5c16 0 28.833 -5.33301 38.5 -16s14.5 -22.667 14.5 -36zM417.001 608.001c0 -16.667 -6 -30.834 -18 -42.501s-26 -17.5 -42 -17.5
c-16.667 0 -30.834 5.83301 -42.501 17.5s-17.5 25.834 -17.5 42.501s5.83301 30.667 17.5 42s25.834 17 42.501 17c16 0 30 -5.66699 42 -17s18 -25.333 18 -42zM206.001 608.001c0 -16.667 -5.66699 -30.834 -17 -42.501s-25 -17.5 -41 -17.5
c-17.333 0 -31.666 5.83301 -42.999 17.5s-17 25.834 -17 42.501s5.66699 30.667 17 42s25.666 17 42.999 17c16 0 29.667 -5.66699 41 -17s17 -25.333 17 -42z" />
    <glyph glyph-name="Amacron" unicode="&#x100;" horiz-adv-x="674" 
d="M646 58c0 -15.333 -5.82812 -29.833 -17.4951 -43.5s-27.167 -20.5 -46.5 -20.5c-12.667 0 -24.334 3.5 -35.001 10.5s-18.334 16.5 -23.001 28.5l-35 93h-304l-36 -93c-4.66699 -12 -12.334 -21.5 -23.001 -28.5s-22.334 -10.5 -35.001 -10.5
c-19.333 0 -34.833 6.5 -46.5 19.5s-17.5 27.833 -17.5 44.5c0 8.66699 1.66699 16 5 22l208 530c7.33301 18.667 19.666 33.834 36.999 45.501s36 17.5 56 17.5c21.333 1.33301 41.333 -3.83398 60 -15.501s32 -27.5 40 -47.5l209 -530c2.66699 -8 4 -15.333 4 -22z
M455.005 232l-118 315l-119 -315h237zM518.005 765c0 -9.33301 -3 -17 -9 -23s-13 -9 -21 -9h-303c-8 0 -15 3 -21 9s-9 13.667 -9 23c0 8.66699 3 16 9 22s13 9 21 9h303c8 0 15 -3 21 -9s9 -13.333 9 -22z" />
    <glyph glyph-name="amacron" unicode="&#x101;" horiz-adv-x="537" 
d="M469 47c0 -14.667 -4.99805 -27.165 -14.998 -37.498s-22.667 -15.5 -38 -15.5c-10.667 0 -19.834 2.16699 -27.501 6.5s-14 11.666 -19 21.999s-7.5 20.166 -7.5 29.499c-18 -20.667 -40.333 -36.5 -67 -47.5s-56 -16.5 -88 -16.5c-20 0 -40 3.33301 -60 10
s-38 16.667 -54 30s-29.167 30 -39.5 50s-15.5 43.333 -15.5 70c0 27.333 5.16699 51 15.5 71s23.5 36.333 39.5 49s34 22 54 28s40 9 60 9c32 0 61.5 -5.16699 88.5 -15.5s49.167 -25.833 66.5 -46.5v74c0 28 -10.333 49.833 -31 65.5s-47.667 23.5 -81 23.5
c-21.333 0 -41.5 -2.83301 -60.5 -8.5s-37.167 -15.167 -54.5 -28.5c-7.33301 -4.66699 -14.666 -7 -21.999 -7c-10 0 -19.5 3.66699 -28.5 11s-13.5 17.666 -13.5 30.999c0 8.66699 2.66699 16.334 8 23.001c9.33301 12 21.666 22.333 36.999 31s31.666 15.667 48.999 21
s35 9.33301 53 12s34.333 4 49 4c26.667 0 52.167 -3 76.5 -9s45.833 -15.833 64.5 -29.5s33.5 -31.667 44.5 -54s16.5 -49.833 16.5 -82.5v-273zM362.002 111.002v72c-12 16 -28.167 28 -48.5 36s-42.166 12 -65.499 12c-28.667 0 -52.667 -7.66699 -72 -23
s-29 -36 -29 -62s9.66699 -46.5 29 -61.5s43.333 -22.5 72 -22.5c23.333 0 45.166 4 65.499 12s36.5 20.333 48.5 37zM449.002 598.002c0 -9.33301 -3 -17 -9 -23s-13 -9 -21 -9h-303c-8 0 -15 3 -21 9s-9 13.667 -9 23c0 8.66699 3 16 9 22s13 9 21 9h303c8 0 15 -3 21 -9
s9 -13.333 9 -22z" />
    <glyph glyph-name="Abreve" unicode="&#x102;" horiz-adv-x="674" 
d="M646 58c0 -15.333 -5.82812 -29.833 -17.4951 -43.5s-27.167 -20.5 -46.5 -20.5c-12.667 0 -24.334 3.5 -35.001 10.5s-18.334 16.5 -23.001 28.5l-35 93h-304l-36 -93c-4.66699 -12 -12.334 -21.5 -23.001 -28.5s-22.334 -10.5 -35.001 -10.5
c-19.333 0 -34.833 6.5 -46.5 19.5s-17.5 27.833 -17.5 44.5c0 8.66699 1.66699 16 5 22l208 530c7.33301 18.667 19.666 33.834 36.999 45.501s36 17.5 56 17.5c21.333 1.33301 41.333 -3.83398 60 -15.501s32 -27.5 40 -47.5l209 -530c2.66699 -8 4 -15.333 4 -22z
M455.005 232l-118 315l-119 -315h237zM500.005 784c0 -7.33301 -2.66602 -13.667 -7.99902 -19c-20 -20 -43.167 -35.667 -69.5 -47s-54.833 -17 -85.5 -17s-59.167 5.66699 -85.5 17s-49.5 27 -69.5 47c-5.33301 5.33301 -8 11.666 -8 18.999c0 8 3.16699 15.333 9.5 22
s13.5 10 21.5 10c9.33301 0 17.666 -3.33301 24.999 -10c14 -13.333 30 -23.666 48 -30.999s37.667 -11 59 -11s40.833 3.83301 58.5 11.5s33.5 18.167 47.5 31.5c6.66699 6 15 9 25 9c8.66699 0 16.167 -3.16699 22.5 -9.5s9.5 -13.833 9.5 -22.5z" />
    <glyph glyph-name="abreve" unicode="&#x103;" horiz-adv-x="537" 
d="M469 47c0 -14.667 -4.99805 -27.165 -14.998 -37.498s-22.667 -15.5 -38 -15.5c-10.667 0 -19.834 2.16699 -27.501 6.5s-14 11.666 -19 21.999s-7.5 20.166 -7.5 29.499c-18 -20.667 -40.333 -36.5 -67 -47.5s-56 -16.5 -88 -16.5c-20 0 -40 3.33301 -60 10
s-38 16.667 -54 30s-29.167 30 -39.5 50s-15.5 43.333 -15.5 70c0 27.333 5.16699 51 15.5 71s23.5 36.333 39.5 49s34 22 54 28s40 9 60 9c32 0 61.5 -5.16699 88.5 -15.5s49.167 -25.833 66.5 -46.5v74c0 28 -10.333 49.833 -31 65.5s-47.667 23.5 -81 23.5
c-21.333 0 -41.5 -2.83301 -60.5 -8.5s-37.167 -15.167 -54.5 -28.5c-7.33301 -4.66699 -14.666 -7 -21.999 -7c-10 0 -19.5 3.66699 -28.5 11s-13.5 17.666 -13.5 30.999c0 8.66699 2.66699 16.334 8 23.001c9.33301 12 21.666 22.333 36.999 31s31.666 15.667 48.999 21
s35 9.33301 53 12s34.333 4 49 4c26.667 0 52.167 -3 76.5 -9s45.833 -15.833 64.5 -29.5s33.5 -31.667 44.5 -54s16.5 -49.833 16.5 -82.5v-273zM362.002 111.002v72c-12 16 -28.167 28 -48.5 36s-42.166 12 -65.499 12c-28.667 0 -52.667 -7.66699 -72 -23
s-29 -36 -29 -62s9.66699 -46.5 29 -61.5s43.333 -22.5 72 -22.5c23.333 0 45.166 4 65.499 12s36.5 20.333 48.5 37zM431.002 617.002c0 -7.33301 -2.66602 -13.667 -7.99902 -19c-20 -20 -43.167 -35.667 -69.5 -47s-54.833 -17 -85.5 -17s-59.167 5.66699 -85.5 17
s-49.5 27 -69.5 47c-5.33301 5.33301 -8 11.666 -8 18.999c0 8 3.16699 15.333 9.5 22s13.5 10 21.5 10c9.33301 0 17.666 -3.33301 24.999 -10c14 -13.333 30 -23.666 48 -30.999s37.667 -11 59 -11s40.833 3.83301 58.5 11.5s33.5 18.167 47.5 31.5c6.66699 6 15 9 25 9
c8.66699 0 16.167 -3.16699 22.5 -9.5s9.5 -13.833 9.5 -22.5z" />
    <glyph glyph-name="Aogonek" unicode="&#x104;" horiz-adv-x="674" 
d="M725 -133c0 -8 -2.66699 -15.168 -8 -21.501s-12.166 -11.833 -20.499 -16.5s-17.5 -8.33398 -27.5 -11.001s-19.667 -4 -29 -4c-25.333 0 -47.5 7 -66.5 21s-28.5 36.667 -28.5 68c0 18 3.83301 35 11.5 51s18.834 30.667 33.501 44
c-2.66699 -0.666992 -4.83398 -1.16699 -6.50098 -1.5s-3.83398 -0.166016 -6.50098 0.500977c-12 0 -22.833 3.33301 -32.5 10s-16.5 15.667 -20.5 27l-35 92h-304l-36 -93c-4.66699 -12 -12.334 -21.5 -23.001 -28.5s-22.334 -10.5 -35.001 -10.5
c-19.333 0 -34.833 6.5 -46.5 19.5s-17.5 27.833 -17.5 44.5c0 8.66699 1.66699 16 5 22l208 530c7.33301 18.667 19.666 33.834 36.999 45.501s36 17.5 56 17.5c21.333 1.33301 41.333 -3.83398 60 -15.501s32 -27.5 40 -47.5l211 -535
c2.66699 -7.33301 4.66699 -13.666 6 -18.999s2 -10.666 2 -15.999c0 -12 -2.5 -23 -7.5 -33s-11.5 -20.667 -19.5 -32c-7.33301 -10.667 -13.166 -21.334 -17.499 -32.001s-6.5 -22.667 -6.5 -36c0 -16 3.83301 -27.5 11.5 -34.5s16.834 -10.5 27.501 -10.5
c10 0 18 2.33301 24 7l19 15c4.66699 4 10.334 6 17.001 6c7.33301 0 13.333 -2.16699 18 -6.5s7 -9.83301 7 -16.5zM455 231.999l-118 315l-119 -315h237z" />
    <glyph glyph-name="aogonek" unicode="&#x105;" horiz-adv-x="537" 
d="M522 -133c0 -8 -2.83496 -15.1641 -8.50195 -21.4971s-12.667 -11.833 -21 -16.5s-17.5 -8.33398 -27.5 -11.001s-19.333 -4 -28 -4c-25.333 0 -47.666 7 -66.999 21s-29 36.667 -29 68c0 18.667 4.33301 36.167 13 52.5s20.334 31.166 35.001 44.499
c-10 4 -17 10.5 -21 19.5s-6 19.833 -6 32.5c-18 -20.667 -40.333 -36.5 -67 -47.5s-56 -16.5 -88 -16.5c-20 0 -40 3.33301 -60 10s-38 16.667 -54 30s-29.167 30 -39.5 50s-15.5 43.333 -15.5 70c0 27.333 5.16699 51 15.5 71s23.5 36.333 39.5 49s34 22 54 28s40 9 60 9
c32 0 61.5 -5.16699 88.5 -15.5s49.167 -25.833 66.5 -46.5v74c0 28 -10.333 49.833 -31 65.5s-47.667 23.5 -81 23.5c-21.333 0 -41.5 -2.83301 -60.5 -8.5s-37.167 -15.167 -54.5 -28.5c-7.33301 -4.66699 -14.666 -7 -21.999 -7c-10 0 -19.5 3.66699 -28.5 11
s-13.5 17.666 -13.5 30.999c0 8.66699 2.66699 16.334 8 23.001c9.33301 12 21.666 22.333 36.999 31s31.666 15.667 48.999 21s35 9.33301 53 12s34.333 4 49 4c26.667 0 52.167 -3 76.5 -9s45.833 -15.833 64.5 -29.5s33.5 -31.667 44.5 -54s16.5 -49.833 16.5 -82.5v-273
c0 -10.667 -3 -20.667 -9 -30c-6.66699 -8 -13.667 -15.833 -21 -23.5s-14.166 -15.834 -20.499 -24.501s-11.5 -18 -15.5 -28s-6 -21.333 -6 -34c0 -16 3.83301 -27.5 11.5 -34.5s17.167 -10.5 28.5 -10.5c9.33301 0 17.166 2.33301 23.499 7s12.5 9.66699 18.5 15
c4.66699 4 10.334 6 17.001 6c7.33301 0 13.5 -2.16699 18.5 -6.5s7.5 -9.83301 7.5 -16.5zM361.998 111.003v72c-12 16 -28.167 28 -48.5 36s-42.166 12 -65.499 12c-28.667 0 -52.667 -7.66699 -72 -23s-29 -36 -29 -62s9.66699 -46.5 29 -61.5s43.333 -22.5 72 -22.5
c23.333 0 45.166 4 65.499 12s36.5 20.333 48.5 37z" />
    <glyph glyph-name="Cacute" unicode="&#x106;" horiz-adv-x="683" 
d="M391 678c54.667 0 101.168 -9.99219 139.501 -29.9922s70.166 -44.667 95.499 -74c8.66699 -10.667 13 -22.334 13 -35.001c0 -15.333 -5.5 -28.333 -16.5 -39s-24.5 -16 -40.5 -16c-7.33301 0 -14.833 1.66699 -22.5 5s-14.5 8 -20.5 14
c-19.333 21.333 -42 38.166 -68 50.499s-52.667 18.5 -80 18.5c-32.667 0 -62.834 -6 -90.501 -18s-51.667 -28.667 -72 -50s-36.333 -46.5 -48 -75.5s-17.5 -60.833 -17.5 -95.5s5.83301 -66.667 17.5 -96s27.667 -54.5 48 -75.5s44.333 -37.5 72 -49.5
s57.834 -18 90.501 -18c28 0 54.833 5.83301 80.5 17.5s48.167 28.5 67.5 50.5c6 6 12.833 10.667 20.5 14s15.5 5 23.5 5c16 0 29.167 -5.33301 39.5 -16s15.5 -23.334 15.5 -38.001c0 -6.66699 -1 -12.834 -3 -18.501s-5 -11.167 -9 -16.5c-26 -29.333 -58 -54 -96 -74
s-84.333 -30 -139 -30c-49.333 0 -95.333 8.33301 -138 25s-79.667 40.167 -111 70.5s-56 66.666 -74 108.999s-27 89.166 -27 140.499s9 98.166 27 140.499s42.667 78.666 74 108.999s68.333 53.833 111 70.5s88.667 25 138 25zM524.001 839.008
c0 -10 -3.66699 -17.666 -11 -22.999l-105 -92c-6 -4.66699 -12 -7 -18 -7c-6.66699 0 -13 2.66699 -19 8s-9 12 -9 20c0 7.33301 2.33301 13.666 7 18.999l97 99c5.33301 6.66699 13 10 23 10c8.66699 0 16.667 -3.16699 24 -9.5s11 -14.5 11 -24.5z" />
    <glyph glyph-name="cacute" unicode="&#x107;" horiz-adv-x="497" 
d="M459 75c0 -6 -1.33691 -11.8359 -4.00391 -17.5029s-6.66699 -10.834 -12 -15.501c-17.333 -16 -38.666 -29 -63.999 -39s-55.666 -15 -90.999 -15c-36.667 0 -70.334 6.33301 -101.001 19s-57 30.334 -79 53.001s-39.167 49.5 -51.5 80.5s-18.5 64.833 -18.5 101.5
s6.16699 70.334 18.5 101.001s29.5 57.334 51.5 80.001s48.333 40.334 79 53.001s64.334 19 101.001 19c18.667 0 36.334 -1.66699 53.001 -5s32 -7.83301 46 -13.5s26.5 -12.334 37.5 -20.001s19.833 -16.5 26.5 -26.5c4.66699 -6.66699 7 -14 7 -22
c0 -14 -5.33301 -25.167 -16 -33.5s-22 -12.5 -34 -12.5c-11.333 0 -21.666 3.33301 -30.999 10c-12.667 9.33301 -26 16.333 -40 21s-28.667 7 -44 7c-22 0 -41.833 -3.83301 -59.5 -11.5s-32.834 -18.5 -45.501 -32.5s-22.5 -30.833 -29.5 -50.5
s-10.5 -40.834 -10.5 -63.501c0 -23.333 3.5 -44.666 10.5 -63.999s16.833 -36.166 29.5 -50.499s27.834 -25.333 45.501 -33s37.5 -11.5 59.5 -11.5c32 0 60 9.66699 84 29c9.33301 6.66699 19.666 10 30.999 10c12.667 0 24.334 -4.33301 35.001 -13s16 -20 16 -34z
M419.996 671.997c0 -10 -3.66699 -17.666 -11 -22.999l-105 -92c-6 -4.66699 -12 -7 -18 -7c-6.66699 0 -13 2.66699 -19 8s-9 12 -9 20c0 7.33301 2.33301 13.666 7 18.999l97 99c5.33301 6.66699 13 10 23 10c8.66699 0 16.667 -3.16699 24 -9.5s11 -14.5 11 -24.5z" />
    <glyph glyph-name="Ccaron" unicode="&#x10c;" horiz-adv-x="683" 
d="M391 678c54.667 0 101.168 -9.99219 139.501 -29.9922s70.166 -44.667 95.499 -74c8.66699 -10.667 13 -22.334 13 -35.001c0 -15.333 -5.5 -28.333 -16.5 -39s-24.5 -16 -40.5 -16c-7.33301 0 -14.833 1.66699 -22.5 5s-14.5 8 -20.5 14
c-19.333 21.333 -42 38.166 -68 50.499s-52.667 18.5 -80 18.5c-32.667 0 -62.834 -6 -90.501 -18s-51.667 -28.667 -72 -50s-36.333 -46.5 -48 -75.5s-17.5 -60.833 -17.5 -95.5s5.83301 -66.667 17.5 -96s27.667 -54.5 48 -75.5s44.333 -37.5 72 -49.5
s57.834 -18 90.501 -18c28 0 54.833 5.83301 80.5 17.5s48.167 28.5 67.5 50.5c6 6 12.833 10.667 20.5 14s15.5 5 23.5 5c16 0 29.167 -5.33301 39.5 -16s15.5 -23.334 15.5 -38.001c0 -6.66699 -1 -12.834 -3 -18.501s-5 -11.167 -9 -16.5c-26 -29.333 -58 -54 -96 -74
s-84.333 -30 -139 -30c-49.333 0 -95.333 8.33301 -138 25s-79.667 40.167 -111 70.5s-56 66.666 -74 108.999s-27 89.166 -27 140.499s9 98.166 27 140.499s42.667 78.666 74 108.999s68.333 53.833 111 70.5s88.667 25 138 25zM516.001 844.008
c0 -6 -1.33496 -10.667 -4.00195 -14l-51 -77c-8 -10.667 -18 -19.5 -30 -26.5s-25.333 -10.5 -40 -10.5c-13.333 0 -26.166 3.5 -38.499 10.5s-22.166 15.833 -29.499 26.5l-49 77c-3.33301 4 -5 8.66699 -5 14c0 6 2.5 12.167 7.5 18.5s12.167 9.5 21.5 9.5
c8.66699 0 16 -3.33301 22 -10l72 -91l73 91c5.33301 6.66699 12.333 10 21 10c8 0 15 -2.66699 21 -8s9 -12 9 -20z" />
    <glyph glyph-name="ccaron" unicode="&#x10d;" horiz-adv-x="497" 
d="M459 75c0 -6 -1.33691 -11.8359 -4.00391 -17.5029s-6.66699 -10.834 -12 -15.501c-17.333 -16 -38.666 -29 -63.999 -39s-55.666 -15 -90.999 -15c-36.667 0 -70.334 6.33301 -101.001 19s-57 30.334 -79 53.001s-39.167 49.5 -51.5 80.5s-18.5 64.833 -18.5 101.5
s6.16699 70.334 18.5 101.001s29.5 57.334 51.5 80.001s48.333 40.334 79 53.001s64.334 19 101.001 19c18.667 0 36.334 -1.66699 53.001 -5s32 -7.83301 46 -13.5s26.5 -12.334 37.5 -20.001s19.833 -16.5 26.5 -26.5c4.66699 -6.66699 7 -14 7 -22
c0 -14 -5.33301 -25.167 -16 -33.5s-22 -12.5 -34 -12.5c-11.333 0 -21.666 3.33301 -30.999 10c-12.667 9.33301 -26 16.333 -40 21s-28.667 7 -44 7c-22 0 -41.833 -3.83301 -59.5 -11.5s-32.834 -18.5 -45.501 -32.5s-22.5 -30.833 -29.5 -50.5
s-10.5 -40.834 -10.5 -63.501c0 -23.333 3.5 -44.666 10.5 -63.999s16.833 -36.166 29.5 -50.499s27.834 -25.333 45.501 -33s37.5 -11.5 59.5 -11.5c32 0 60 9.66699 84 29c9.33301 6.66699 19.666 10 30.999 10c12.667 0 24.334 -4.33301 35.001 -13s16 -20 16 -34z
M415.996 676.997c0 -6 -1.33496 -10.667 -4.00195 -14l-51 -77c-8 -10.667 -18 -19.5 -30 -26.5s-25.333 -10.5 -40 -10.5c-13.333 0 -26.166 3.5 -38.499 10.5s-22.166 15.833 -29.499 26.5l-49 77c-3.33301 4 -5 8.66699 -5 14c0 6 2.5 12.167 7.5 18.5
s12.167 9.5 21.5 9.5c8.66699 0 16 -3.33301 22 -10l72 -91l73 91c5.33301 6.66699 12.333 10 21 10c8 0 15 -2.66699 21 -8s9 -12 9 -20z" />
    <glyph glyph-name="Dcaron" unicode="&#x10e;" horiz-adv-x="711" 
d="M670 333c0 -48.667 -8.5 -93.5029 -25.5 -134.503s-40.833 -76.167 -71.5 -105.5s-67.5 -52.166 -110.5 -68.499s-90.5 -24.5 -142.5 -24.5h-177c-20 0 -37 7 -51 21s-21 31 -21 51v523c0 20 7 37 21 51s31 21 51 21h177c52 0 99.5 -8.16699 142.5 -24.5
s79.833 -39.166 110.5 -68.499s54.5 -64.666 71.5 -105.999s25.5 -86.333 25.5 -135zM547 332.997c0 32 -4.83203 61.999 -14.499 89.999s-24 52.167 -43 72.5s-42.833 36.5 -71.5 48.5s-61.334 18 -98.001 18h-130v-457h130c36 0 68 6 96 18s51.833 28.333 71.5 49
s34.5 44.834 44.5 72.501s15 57.167 15 88.5zM484.001 843.996c0 -6 -1.33496 -10.667 -4.00195 -14l-51 -77c-8 -10.667 -18 -19.5 -30 -26.5s-25.333 -10.5 -40 -10.5c-13.333 0 -26.166 3.5 -38.499 10.5s-22.166 15.833 -29.499 26.5l-49 77
c-3.33301 4 -5 8.66699 -5 14c0 6 2.5 12.167 7.5 18.5s12.167 9.5 21.5 9.5c8.66699 0 16 -3.33301 22 -10l72 -91l73 91c5.33301 6.66699 12.333 10 21 10c8 0 15 -2.66699 21 -8s9 -12 9 -20z" />
    <glyph glyph-name="dcaron" unicode="&#x10f;" horiz-adv-x="672" 
d="M514 47c0 -14.667 -5.16895 -27.166 -15.502 -37.499s-23.166 -15.5 -38.499 -15.5c-14.667 0 -27.167 5.16699 -37.5 15.5s-15.5 22.833 -15.5 37.5v19c-19.333 -24.667 -42.166 -43.834 -68.499 -57.501s-55.166 -20.5 -86.499 -20.5
c-30.667 0 -59.167 5.66699 -85.5 17s-49 27.833 -68 49.5s-33.833 48.167 -44.5 79.5s-16 67 -16 107c0 39.333 5.16699 74.666 15.5 105.999s25 58 44 80s41.667 38.833 68 50.5s55.166 17.5 86.499 17.5c30 0 58.5 -6.66699 85.5 -20s50.167 -32.666 69.5 -57.999v203
c0 14.667 5.16699 27.167 15.5 37.5s23.5 15.5 39.5 15.5c14 0 26.167 -5.16699 36.5 -15.5s15.5 -22.833 15.5 -37.5v-573zM406.998 146.001v190.002c-12 18 -29.5 33.167 -52.5 45.5s-46.833 18.5 -71.5 18.5c-20 0 -38.333 -3.83301 -55 -11.5
s-30.834 -18.667 -42.501 -33s-20.834 -31.333 -27.501 -51s-10 -40.834 -10 -63.501s3.33301 -43.834 10 -63.501s15.834 -36.5 27.501 -50.5s25.834 -24.833 42.501 -32.5s35 -11.5 55 -11.5c24.667 0 48.5 6 71.5 18s40.5 27 52.5 45zM676.998 604.003
c0 -24.667 -5.49707 -48.332 -16.4971 -70.999s-26.167 -42.334 -45.5 -59.001c-6 -4.66699 -12.667 -7 -20 -7c-6.66699 0 -12.334 2 -17.001 6l-1 1c-4.66699 4.66699 -7 9.66699 -7 15c0 4 1.66699 8.33301 5 13l27 33c10 12.667 16 25.334 18 38.001
c-0.666992 -0.666992 -2.33398 -1.16699 -5.00098 -1.5s-5.33398 -0.5 -8.00098 -0.5c-14 0 -25.667 4.83301 -35 14.5s-14 22.167 -14 37.5s5.33301 28.666 16 39.999s23.667 17 39 17c17.333 0 32.333 -6.66699 45 -20s19 -32 19 -56z" />
    <glyph glyph-name="Dcroat" unicode="&#x110;" horiz-adv-x="737" 
d="M696 333c0 -48.667 -8.5 -93.5029 -25.5 -134.503s-40.833 -76.167 -71.5 -105.5s-67.5 -52.166 -110.5 -68.499s-90.5 -24.5 -142.5 -24.5h-177c-20 0 -37 7 -51 21s-21 31 -21 51v213h-51c-12 0 -22.167 4.33301 -30.5 13s-12.5 19.667 -12.5 33
c0 12 4.16699 22.167 12.5 30.5s18.5 12.5 30.5 12.5h51v221c0 20 7 37 21 51s31 21 51 21h177c52 0 99.5 -8.16699 142.5 -24.5s79.833 -39.166 110.5 -68.499s54.5 -64.666 71.5 -105.999s25.5 -86.333 25.5 -135zM573 332.997c0 32 -4.83398 61.998 -14.501 89.998
s-24 52.167 -43 72.5s-42.667 36.5 -71 48.5s-61.166 18 -98.499 18h-130v-188h120c12 0 22.167 -4.16699 30.5 -12.5s12.5 -19.166 12.5 -32.499c0 -12.667 -4.16699 -23.167 -12.5 -31.5s-18.5 -12.5 -30.5 -12.5h-120v-180h130c36 0 68 6 96 18s51.833 28.333 71.5 49
s34.5 44.834 44.5 72.501s15 57.167 15 88.5z" />
    <glyph glyph-name="dcroat" unicode="&#x111;" horiz-adv-x="585" 
d="M582 561c0 -8 -3.00195 -15 -9.00195 -21s-13 -9 -21 -9h-38v-484c0 -14.667 -5.16699 -27.167 -15.5 -37.5s-23.166 -15.5 -38.499 -15.5c-14.667 0 -27.167 5.16699 -37.5 15.5s-15.5 22.833 -15.5 37.5v19c-19.333 -24.667 -42.166 -43.834 -68.499 -57.501
s-55.166 -20.5 -86.499 -20.5c-30.667 0 -59.167 5.66699 -85.5 17s-49 27.833 -68 49.5s-33.833 48.167 -44.5 79.5s-16 67 -16 107c0 39.333 5.16699 74.666 15.5 105.999s25 58 44 80s41.667 38.833 68 50.5s55.166 17.5 86.499 17.5c30 0 58.5 -6.66699 85.5 -20
s50.167 -32.666 69.5 -57.999v114h-126c-8 0 -15 3 -21 9s-9 13.667 -9 23c0 8.66699 3 15.834 9 21.501s13 8.5 21 8.5h126v27c0 14.667 5.16699 27.167 15.5 37.5s23.5 15.5 39.5 15.5c14 0 26.167 -5.16699 36.5 -15.5s15.5 -22.833 15.5 -37.5v-27h38c8 0 15 -3 21 -9
s9 -13.667 9 -23zM406.998 146v190.002c-12 18 -29.5 33.167 -52.5 45.5s-46.833 18.5 -71.5 18.5c-20 0 -38.333 -3.83301 -55 -11.5s-30.834 -18.667 -42.501 -33s-20.834 -31.333 -27.501 -51s-10 -40.834 -10 -63.501s3.33301 -43.834 10 -63.501
s15.834 -36.5 27.501 -50.5s25.834 -24.833 42.501 -32.5s35 -11.5 55 -11.5c24.667 0 48.5 6 71.5 18s40.5 27 52.5 45z" />
    <glyph glyph-name="Emacron" unicode="&#x112;" horiz-adv-x="578" 
d="M535 54c0 -15.333 -5 -28.167 -15 -38.5s-22 -15.5 -36 -15.5h-341c-20 0 -37 7 -51 21s-21 31 -21 51v523c0 20 7 37 21 51s31 21 51 21h341c14 0 26 -5.16699 36 -15.5s15 -22.833 15 -37.5s-5 -27 -15 -37s-22 -15 -36 -15h-294v-170h287c14 0 26 -5.16699 36 -15.5
s15 -22.833 15 -37.5s-5 -27 -15 -37s-22 -15 -36 -15h-287v-182h294c14 0 26 -5 36 -15s15 -22 15 -36zM480 764.999c0 -9.33301 -3 -17 -9 -23s-13 -9 -21 -9h-303c-8 0 -15 3 -21 9s-9 13.667 -9 23c0 8.66699 3 16 9 22s13 9 21 9h303c8 0 15 -3 21 -9s9 -13.333 9 -22z
" />
    <glyph glyph-name="emacron" unicode="&#x113;" horiz-adv-x="557" 
d="M520 259c0 -14 -5.00293 -26.166 -15.0029 -36.499s-22.333 -15.5 -37 -15.5h-318c2 -18 6.83301 -35.167 14.5 -51.5s17.834 -30.5 30.501 -42.5s28 -21.5 46 -28.5s38.333 -10.5 61 -10.5c17.333 0 35.5 2.66699 54.5 8s36.833 13.333 53.5 24
c7.33301 4 14.666 6 21.999 6c10.667 0 20.834 -4 30.501 -12s14.5 -18.667 14.5 -32c0 -14 -6 -24.667 -18 -32c-24 -16.667 -50.167 -28.834 -78.5 -36.501s-58.166 -11.5 -89.499 -11.5c-36 0 -69.667 6 -101 18s-58.166 29.167 -80.499 51.5s-39.833 49 -52.5 80
s-19 65.833 -19 104.5c0 34.667 6 67.5 18 98.5s28.833 57.833 50.5 80.5s47.5 40.667 77.5 54s63 20 99 20c28.667 0 55 -4.16699 79 -12.5s45.5 -20 64.5 -35s35.5 -33 49.5 -54s24.667 -44.5 32 -70.5l8 -31.5c2.66699 -11 4 -21.833 4 -32.5zM416.997 281.001
c0 14 -2.66699 28.5 -8 43.5s-13.5 28.833 -24.5 41.5s-24.833 23 -41.5 31s-36.667 12 -60 12c-22.667 0 -42 -4 -58 -12s-29.5 -18.167 -40.5 -30.5s-19.5 -26 -25.5 -41s-9.33301 -29.833 -10 -44.5h268zM463.997 598.001c0 -9.33301 -3 -17 -9 -23s-13 -9 -21 -9h-303
c-8 0 -15 3 -21 9s-9 13.667 -9 23c0 8.66699 3 16 9 22s13 9 21 9h303c8 0 15 -3 21 -9s9 -13.333 9 -22z" />
    <glyph glyph-name="Edotaccent" unicode="&#x116;" horiz-adv-x="578" 
d="M535 54c0 -15.333 -5 -28.167 -15 -38.5s-22 -15.5 -36 -15.5h-341c-20 0 -37 7 -51 21s-21 31 -21 51v523c0 20 7 37 21 51s31 21 51 21h341c14 0 26 -5.16699 36 -15.5s15 -22.833 15 -37.5s-5 -27 -15 -37s-22 -15 -36 -15h-294v-170h287c14 0 26 -5.16699 36 -15.5
s15 -22.833 15 -37.5s-5 -27 -15 -37s-22 -15 -36 -15h-287v-182h294c14 0 26 -5 36 -15s15 -22 15 -36zM361 774.999c0 -17.333 -5.83301 -31.666 -17.5 -42.999s-25.5 -17 -41.5 -17c-16.667 0 -30.834 5.66699 -42.501 17s-17.5 25.666 -17.5 42.999
c0 16 5.83301 29.833 17.5 41.5s25.834 17.5 42.501 17.5c16 0 29.833 -5.83301 41.5 -17.5s17.5 -25.5 17.5 -41.5z" />
    <glyph glyph-name="edotaccent" unicode="&#x117;" horiz-adv-x="557" 
d="M520 259c0 -14 -5.00293 -26.166 -15.0029 -36.499s-22.333 -15.5 -37 -15.5h-318c2 -18 6.83301 -35.167 14.5 -51.5s17.834 -30.5 30.501 -42.5s28 -21.5 46 -28.5s38.333 -10.5 61 -10.5c17.333 0 35.5 2.66699 54.5 8s36.833 13.333 53.5 24
c7.33301 4 14.666 6 21.999 6c10.667 0 20.834 -4 30.501 -12s14.5 -18.667 14.5 -32c0 -14 -6 -24.667 -18 -32c-24 -16.667 -50.167 -28.834 -78.5 -36.501s-58.166 -11.5 -89.499 -11.5c-36 0 -69.667 6 -101 18s-58.166 29.167 -80.499 51.5s-39.833 49 -52.5 80
s-19 65.833 -19 104.5c0 34.667 6 67.5 18 98.5s28.833 57.833 50.5 80.5s47.5 40.667 77.5 54s63 20 99 20c28.667 0 55 -4.16699 79 -12.5s45.5 -20 64.5 -35s35.5 -33 49.5 -54s24.667 -44.5 32 -70.5l8 -31.5c2.66699 -11 4 -21.833 4 -32.5zM416.997 281.001
c0 14 -2.66699 28.5 -8 43.5s-13.5 28.833 -24.5 41.5s-24.833 23 -41.5 31s-36.667 12 -60 12c-22.667 0 -42 -4 -58 -12s-29.5 -18.167 -40.5 -30.5s-19.5 -26 -25.5 -41s-9.33301 -29.833 -10 -44.5h268zM344.997 608.001c0 -17.333 -5.83301 -31.666 -17.5 -42.999
s-25.5 -17 -41.5 -17c-16.667 0 -30.834 5.66699 -42.501 17s-17.5 25.666 -17.5 42.999c0 16 5.83301 29.833 17.5 41.5s25.834 17.5 42.501 17.5c16 0 29.833 -5.83301 41.5 -17.5s17.5 -25.5 17.5 -41.5z" />
    <glyph glyph-name="Eogonek" unicode="&#x118;" horiz-adv-x="578" 
d="M575 -133c0 -8 -2.66895 -15.1641 -8.00195 -21.4971s-12.166 -11.833 -20.499 -16.5s-17.5 -8.33398 -27.5 -11.001s-19.667 -4 -29 -4c-25.333 0 -47.5 7 -66.5 21s-28.5 36.667 -28.5 68c0 18.667 4.16699 36.167 12.5 52.5s20.166 31.166 35.499 44.499h-300
c-20 0 -37 7 -51 21s-21 31 -21 51v523c0 20 7 37 21 51s31 21 51 21h341c14 0 26 -5.16699 36 -15.5s15 -22.833 15 -37.5s-5 -27 -15 -37s-22 -15 -36 -15h-294v-170h287c14 0 26 -5.16699 36 -15.5s15 -22.833 15 -37.5s-5 -27 -15 -37s-22 -15 -36 -15h-287v-182h294
c14 0 26 -5 36 -15s15 -22 15 -36c0 -13.333 -4 -24.833 -12 -34.5s-17 -18.834 -27 -27.501c-12 -12 -22.5 -24.5 -31.5 -37.5s-13.5 -28.833 -13.5 -47.5c0 -16 3.83301 -27.5 11.5 -34.5s16.834 -10.5 27.501 -10.5c10 0 18 2.33301 24 7l19 15
c4.66699 4 10.334 6 17.001 6c7.33301 0 13.333 -2.16699 18 -6.5s7 -9.83301 7 -16.5z" />
    </font>
</defs>
</svg>
